%FSLAX45Y45*%
G04 Gerber Fmt 4.5, Leading zero omitted, Abs format (unit mm)*
G04 Created by KiCad (PCBNEW 5.0.0-fee4fd1~66~ubuntu18.04.1) date Wed Oct 10 23:27:11 2018*
%MOMM*%
%LPD*%
G01*
G04 APERTURE LIST*
%ADD10C,0.150000*%
%ADD11C,0.200000*%
%ADD12C,0.300000*%
G04 APERTURE END LIST*
D10*
X6756400Y-1803400D02*
G75*
G02X7112000Y-2159000I0J-355600D01*
G01*
X2946400Y-2159000D02*
G75*
G02X3302000Y-1803400I355600J0D01*
G01*
X3302000Y-5435600D02*
G75*
G02X2946400Y-5080000I0J355600D01*
G01*
X7112000Y-5080000D02*
G75*
G02X6756400Y-5435600I-355600J0D01*
G01*
X7112000Y-2159000D02*
X7112000Y-5080000D01*
X2946400Y-2159000D02*
X2946400Y-5080000D01*
X3302000Y-5435600D02*
X6756400Y-5435600D01*
X3302000Y-1803400D02*
X6756400Y-1803400D01*
D11*
X3466150Y-3288350D02*
X3506150Y-3328350D01*
X3506150Y-3288350D02*
X3466150Y-3328350D01*
X4069400Y-4806000D02*
X4109400Y-4846000D01*
X4109400Y-4806000D02*
X4069400Y-4846000D01*
X4132900Y-3447100D02*
X4172900Y-3487100D01*
X4172900Y-3447100D02*
X4132900Y-3487100D01*
X4310700Y-3701100D02*
X4350700Y-3741100D01*
X4350700Y-3701100D02*
X4310700Y-3741100D01*
X4590100Y-3840800D02*
X4630100Y-3880800D01*
X4630100Y-3840800D02*
X4590100Y-3880800D01*
X5250500Y-3936050D02*
X5290500Y-3976050D01*
X5290500Y-3936050D02*
X5250500Y-3976050D01*
X5618800Y-3853500D02*
X5658800Y-3893500D01*
X5658800Y-3853500D02*
X5618800Y-3893500D01*
X4027800Y-2281600D02*
G75*
G03X4027800Y-2281600I-40000J0D01*
G01*
X4382800Y-2281600D02*
G75*
G03X4382800Y-2281600I-40000J0D01*
G01*
X4027800Y-2992800D02*
G75*
G03X4027800Y-2992800I-40000J0D01*
G01*
X4382800Y-2992800D02*
G75*
G03X4382800Y-2992800I-40000J0D01*
G01*
X3200400Y-3484240D02*
X3200400Y-3584240D01*
X3150400Y-3534240D02*
X3250400Y-3534240D01*
X3200400Y-3738240D02*
X3200400Y-3838240D01*
X3150400Y-3788240D02*
X3250400Y-3788240D01*
X3200400Y-3992240D02*
X3200400Y-4092240D01*
X3150400Y-4042240D02*
X3250400Y-4042240D01*
X3200400Y-4246240D02*
X3200400Y-4346240D01*
X3150400Y-4296240D02*
X3250400Y-4296240D01*
X4953000Y-5030000D02*
X4953000Y-5130000D01*
X4903000Y-5080000D02*
X5003000Y-5080000D01*
X3937000Y-5039780D02*
X3937000Y-5139780D01*
X3887000Y-5089780D02*
X3987000Y-5089780D01*
X4445000Y-5030000D02*
X4445000Y-5130000D01*
X4395000Y-5080000D02*
X4495000Y-5080000D01*
X5461000Y-5030000D02*
X5461000Y-5130000D01*
X5411000Y-5080000D02*
X5511000Y-5080000D01*
X6769795Y-3594795D02*
X6769795Y-3517205D01*
X6692205Y-3517205D01*
X6692205Y-3594795D01*
X6769795Y-3594795D01*
X6769795Y-3848795D02*
X6769795Y-3771205D01*
X6692205Y-3771205D01*
X6692205Y-3848795D01*
X6769795Y-3848795D01*
X6769795Y-4102795D02*
X6769795Y-4025205D01*
X6692205Y-4025205D01*
X6692205Y-4102795D01*
X6769795Y-4102795D01*
X6769795Y-4356795D02*
X6769795Y-4279205D01*
X6692205Y-4279205D01*
X6692205Y-4356795D01*
X6769795Y-4356795D01*
X5257800Y-2336600D02*
X5312800Y-2281600D01*
X5257800Y-2226600D01*
X5202800Y-2281600D01*
X5257800Y-2336600D01*
X6019800Y-2336600D02*
X6074800Y-2281600D01*
X6019800Y-2226600D01*
X5964800Y-2281600D01*
X6019800Y-2336600D01*
X5257800Y-3047800D02*
X5312800Y-2992800D01*
X5257800Y-2937800D01*
X5202800Y-2992800D01*
X5257800Y-3047800D01*
X6019800Y-3047800D02*
X6074800Y-2992800D01*
X6019800Y-2937800D01*
X5964800Y-2992800D01*
X6019800Y-3047800D01*
D12*
X3225328Y-5908814D02*
X3225328Y-5608814D01*
X3296757Y-5608814D01*
X3339614Y-5623100D01*
X3368186Y-5651671D01*
X3382471Y-5680243D01*
X3396757Y-5737386D01*
X3396757Y-5780243D01*
X3382471Y-5837386D01*
X3368186Y-5865957D01*
X3339614Y-5894529D01*
X3296757Y-5908814D01*
X3225328Y-5908814D01*
X3525328Y-5908814D02*
X3525328Y-5708814D01*
X3525328Y-5765957D02*
X3539614Y-5737386D01*
X3553900Y-5723100D01*
X3582471Y-5708814D01*
X3611043Y-5708814D01*
X3711043Y-5908814D02*
X3711043Y-5708814D01*
X3711043Y-5608814D02*
X3696757Y-5623100D01*
X3711043Y-5637386D01*
X3725328Y-5623100D01*
X3711043Y-5608814D01*
X3711043Y-5637386D01*
X3896757Y-5908814D02*
X3868186Y-5894529D01*
X3853900Y-5865957D01*
X3853900Y-5608814D01*
X4053900Y-5908814D02*
X4025328Y-5894529D01*
X4011043Y-5865957D01*
X4011043Y-5608814D01*
X4396757Y-5908814D02*
X4396757Y-5608814D01*
X4496757Y-5823100D01*
X4596757Y-5608814D01*
X4596757Y-5908814D01*
X4868186Y-5908814D02*
X4868186Y-5751671D01*
X4853900Y-5723100D01*
X4825328Y-5708814D01*
X4768186Y-5708814D01*
X4739614Y-5723100D01*
X4868186Y-5894529D02*
X4839614Y-5908814D01*
X4768186Y-5908814D01*
X4739614Y-5894529D01*
X4725328Y-5865957D01*
X4725328Y-5837386D01*
X4739614Y-5808814D01*
X4768186Y-5794529D01*
X4839614Y-5794529D01*
X4868186Y-5780243D01*
X5011043Y-5708814D02*
X5011043Y-6008814D01*
X5011043Y-5723100D02*
X5039614Y-5708814D01*
X5096757Y-5708814D01*
X5125328Y-5723100D01*
X5139614Y-5737386D01*
X5153900Y-5765957D01*
X5153900Y-5851671D01*
X5139614Y-5880243D01*
X5125328Y-5894529D01*
X5096757Y-5908814D01*
X5039614Y-5908814D01*
X5011043Y-5894529D01*
X5282471Y-5880243D02*
X5296757Y-5894529D01*
X5282471Y-5908814D01*
X5268186Y-5894529D01*
X5282471Y-5880243D01*
X5282471Y-5908814D01*
X5282471Y-5723100D02*
X5296757Y-5737386D01*
X5282471Y-5751671D01*
X5268186Y-5737386D01*
X5282471Y-5723100D01*
X5282471Y-5751671D01*
X2898900Y-6383100D02*
X2938900Y-6423100D01*
X2938900Y-6383100D02*
X2898900Y-6423100D01*
X3282471Y-6238814D02*
X3311043Y-6238814D01*
X3339614Y-6253100D01*
X3353900Y-6267386D01*
X3368186Y-6295957D01*
X3382471Y-6353100D01*
X3382471Y-6424529D01*
X3368186Y-6481671D01*
X3353900Y-6510243D01*
X3339614Y-6524529D01*
X3311043Y-6538814D01*
X3282471Y-6538814D01*
X3253900Y-6524529D01*
X3239614Y-6510243D01*
X3225328Y-6481671D01*
X3211043Y-6424529D01*
X3211043Y-6353100D01*
X3225328Y-6295957D01*
X3239614Y-6267386D01*
X3253900Y-6253100D01*
X3282471Y-6238814D01*
X3511043Y-6510243D02*
X3525328Y-6524529D01*
X3511043Y-6538814D01*
X3496757Y-6524529D01*
X3511043Y-6510243D01*
X3511043Y-6538814D01*
X3782471Y-6338814D02*
X3782471Y-6538814D01*
X3711043Y-6224529D02*
X3639614Y-6438814D01*
X3825328Y-6438814D01*
X3996757Y-6238814D02*
X4025328Y-6238814D01*
X4053900Y-6253100D01*
X4068186Y-6267386D01*
X4082471Y-6295957D01*
X4096757Y-6353100D01*
X4096757Y-6424529D01*
X4082471Y-6481671D01*
X4068186Y-6510243D01*
X4053900Y-6524529D01*
X4025328Y-6538814D01*
X3996757Y-6538814D01*
X3968186Y-6524529D01*
X3953900Y-6510243D01*
X3939614Y-6481671D01*
X3925328Y-6424529D01*
X3925328Y-6353100D01*
X3939614Y-6295957D01*
X3953900Y-6267386D01*
X3968186Y-6253100D01*
X3996757Y-6238814D01*
X4225328Y-6538814D02*
X4225328Y-6338814D01*
X4225328Y-6367386D02*
X4239614Y-6353100D01*
X4268186Y-6338814D01*
X4311043Y-6338814D01*
X4339614Y-6353100D01*
X4353900Y-6381671D01*
X4353900Y-6538814D01*
X4353900Y-6381671D02*
X4368186Y-6353100D01*
X4396757Y-6338814D01*
X4439614Y-6338814D01*
X4468186Y-6353100D01*
X4482471Y-6381671D01*
X4482471Y-6538814D01*
X4625328Y-6538814D02*
X4625328Y-6338814D01*
X4625328Y-6367386D02*
X4639614Y-6353100D01*
X4668186Y-6338814D01*
X4711043Y-6338814D01*
X4739614Y-6353100D01*
X4753900Y-6381671D01*
X4753900Y-6538814D01*
X4753900Y-6381671D02*
X4768186Y-6353100D01*
X4796757Y-6338814D01*
X4839614Y-6338814D01*
X4868186Y-6353100D01*
X4882471Y-6381671D01*
X4882471Y-6538814D01*
X5468186Y-6224529D02*
X5211043Y-6610243D01*
X5853900Y-6238814D02*
X5882471Y-6238814D01*
X5911043Y-6253100D01*
X5925328Y-6267386D01*
X5939614Y-6295957D01*
X5953900Y-6353100D01*
X5953900Y-6424529D01*
X5939614Y-6481671D01*
X5925328Y-6510243D01*
X5911043Y-6524529D01*
X5882471Y-6538814D01*
X5853900Y-6538814D01*
X5825328Y-6524529D01*
X5811043Y-6510243D01*
X5796757Y-6481671D01*
X5782471Y-6424529D01*
X5782471Y-6353100D01*
X5796757Y-6295957D01*
X5811043Y-6267386D01*
X5825328Y-6253100D01*
X5853900Y-6238814D01*
X6082471Y-6510243D02*
X6096757Y-6524529D01*
X6082471Y-6538814D01*
X6068186Y-6524529D01*
X6082471Y-6510243D01*
X6082471Y-6538814D01*
X6282471Y-6238814D02*
X6311043Y-6238814D01*
X6339614Y-6253100D01*
X6353900Y-6267386D01*
X6368186Y-6295957D01*
X6382471Y-6353100D01*
X6382471Y-6424529D01*
X6368186Y-6481671D01*
X6353900Y-6510243D01*
X6339614Y-6524529D01*
X6311043Y-6538814D01*
X6282471Y-6538814D01*
X6253900Y-6524529D01*
X6239614Y-6510243D01*
X6225328Y-6481671D01*
X6211043Y-6424529D01*
X6211043Y-6353100D01*
X6225328Y-6295957D01*
X6239614Y-6267386D01*
X6253900Y-6253100D01*
X6282471Y-6238814D01*
X6668186Y-6538814D02*
X6496757Y-6538814D01*
X6582471Y-6538814D02*
X6582471Y-6238814D01*
X6553900Y-6281671D01*
X6525328Y-6310243D01*
X6496757Y-6324529D01*
X6925328Y-6238814D02*
X6868186Y-6238814D01*
X6839614Y-6253100D01*
X6825328Y-6267386D01*
X6796757Y-6310243D01*
X6782471Y-6367386D01*
X6782471Y-6481671D01*
X6796757Y-6510243D01*
X6811043Y-6524529D01*
X6839614Y-6538814D01*
X6896757Y-6538814D01*
X6925328Y-6524529D01*
X6939614Y-6510243D01*
X6953900Y-6481671D01*
X6953900Y-6410243D01*
X6939614Y-6381671D01*
X6925328Y-6367386D01*
X6896757Y-6353100D01*
X6839614Y-6353100D01*
X6811043Y-6367386D01*
X6796757Y-6381671D01*
X6782471Y-6410243D01*
X7068186Y-6238814D02*
X7068186Y-6295957D01*
X7182471Y-6238814D02*
X7182471Y-6295957D01*
X7625328Y-6653100D02*
X7611043Y-6638814D01*
X7582471Y-6595957D01*
X7568186Y-6567386D01*
X7553900Y-6524529D01*
X7539614Y-6453100D01*
X7539614Y-6395957D01*
X7553900Y-6324529D01*
X7568186Y-6281671D01*
X7582471Y-6253100D01*
X7611043Y-6210243D01*
X7625328Y-6195957D01*
X7711043Y-6238814D02*
X7911043Y-6238814D01*
X7782471Y-6538814D01*
X8253900Y-6538814D02*
X8253900Y-6238814D01*
X8382471Y-6538814D02*
X8382471Y-6381671D01*
X8368186Y-6353100D01*
X8339614Y-6338814D01*
X8296757Y-6338814D01*
X8268186Y-6353100D01*
X8253900Y-6367386D01*
X8568186Y-6538814D02*
X8539614Y-6524529D01*
X8525328Y-6510243D01*
X8511043Y-6481671D01*
X8511043Y-6395957D01*
X8525328Y-6367386D01*
X8539614Y-6353100D01*
X8568186Y-6338814D01*
X8611043Y-6338814D01*
X8639614Y-6353100D01*
X8653900Y-6367386D01*
X8668186Y-6395957D01*
X8668186Y-6481671D01*
X8653900Y-6510243D01*
X8639614Y-6524529D01*
X8611043Y-6538814D01*
X8568186Y-6538814D01*
X8839614Y-6538814D02*
X8811043Y-6524529D01*
X8796757Y-6495957D01*
X8796757Y-6238814D01*
X9068186Y-6524529D02*
X9039614Y-6538814D01*
X8982471Y-6538814D01*
X8953900Y-6524529D01*
X8939614Y-6495957D01*
X8939614Y-6381671D01*
X8953900Y-6353100D01*
X8982471Y-6338814D01*
X9039614Y-6338814D01*
X9068186Y-6353100D01*
X9082471Y-6381671D01*
X9082471Y-6410243D01*
X8939614Y-6438814D01*
X9196757Y-6524529D02*
X9225328Y-6538814D01*
X9282471Y-6538814D01*
X9311043Y-6524529D01*
X9325328Y-6495957D01*
X9325328Y-6481671D01*
X9311043Y-6453100D01*
X9282471Y-6438814D01*
X9239614Y-6438814D01*
X9211043Y-6424529D01*
X9196757Y-6395957D01*
X9196757Y-6381671D01*
X9211043Y-6353100D01*
X9239614Y-6338814D01*
X9282471Y-6338814D01*
X9311043Y-6353100D01*
X9425328Y-6653100D02*
X9439614Y-6638814D01*
X9468186Y-6595957D01*
X9482471Y-6567386D01*
X9496757Y-6524529D01*
X9511043Y-6453100D01*
X9511043Y-6395957D01*
X9496757Y-6324529D01*
X9482471Y-6281671D01*
X9468186Y-6253100D01*
X9439614Y-6210243D01*
X9425328Y-6195957D01*
X2938900Y-6799100D02*
G75*
G03X2938900Y-6799100I-40000J0D01*
G01*
X3282471Y-6634814D02*
X3311043Y-6634814D01*
X3339614Y-6649100D01*
X3353900Y-6663386D01*
X3368186Y-6691957D01*
X3382471Y-6749100D01*
X3382471Y-6820529D01*
X3368186Y-6877671D01*
X3353900Y-6906243D01*
X3339614Y-6920529D01*
X3311043Y-6934814D01*
X3282471Y-6934814D01*
X3253900Y-6920529D01*
X3239614Y-6906243D01*
X3225328Y-6877671D01*
X3211043Y-6820529D01*
X3211043Y-6749100D01*
X3225328Y-6691957D01*
X3239614Y-6663386D01*
X3253900Y-6649100D01*
X3282471Y-6634814D01*
X3511043Y-6906243D02*
X3525328Y-6920529D01*
X3511043Y-6934814D01*
X3496757Y-6920529D01*
X3511043Y-6906243D01*
X3511043Y-6934814D01*
X3696757Y-6763386D02*
X3668186Y-6749100D01*
X3653900Y-6734814D01*
X3639614Y-6706243D01*
X3639614Y-6691957D01*
X3653900Y-6663386D01*
X3668186Y-6649100D01*
X3696757Y-6634814D01*
X3753900Y-6634814D01*
X3782471Y-6649100D01*
X3796757Y-6663386D01*
X3811043Y-6691957D01*
X3811043Y-6706243D01*
X3796757Y-6734814D01*
X3782471Y-6749100D01*
X3753900Y-6763386D01*
X3696757Y-6763386D01*
X3668186Y-6777671D01*
X3653900Y-6791957D01*
X3639614Y-6820529D01*
X3639614Y-6877671D01*
X3653900Y-6906243D01*
X3668186Y-6920529D01*
X3696757Y-6934814D01*
X3753900Y-6934814D01*
X3782471Y-6920529D01*
X3796757Y-6906243D01*
X3811043Y-6877671D01*
X3811043Y-6820529D01*
X3796757Y-6791957D01*
X3782471Y-6777671D01*
X3753900Y-6763386D01*
X3996757Y-6634814D02*
X4025328Y-6634814D01*
X4053900Y-6649100D01*
X4068186Y-6663386D01*
X4082471Y-6691957D01*
X4096757Y-6749100D01*
X4096757Y-6820529D01*
X4082471Y-6877671D01*
X4068186Y-6906243D01*
X4053900Y-6920529D01*
X4025328Y-6934814D01*
X3996757Y-6934814D01*
X3968186Y-6920529D01*
X3953900Y-6906243D01*
X3939614Y-6877671D01*
X3925328Y-6820529D01*
X3925328Y-6749100D01*
X3939614Y-6691957D01*
X3953900Y-6663386D01*
X3968186Y-6649100D01*
X3996757Y-6634814D01*
X4225328Y-6934814D02*
X4225328Y-6734814D01*
X4225328Y-6763386D02*
X4239614Y-6749100D01*
X4268186Y-6734814D01*
X4311043Y-6734814D01*
X4339614Y-6749100D01*
X4353900Y-6777671D01*
X4353900Y-6934814D01*
X4353900Y-6777671D02*
X4368186Y-6749100D01*
X4396757Y-6734814D01*
X4439614Y-6734814D01*
X4468186Y-6749100D01*
X4482471Y-6777671D01*
X4482471Y-6934814D01*
X4625328Y-6934814D02*
X4625328Y-6734814D01*
X4625328Y-6763386D02*
X4639614Y-6749100D01*
X4668186Y-6734814D01*
X4711043Y-6734814D01*
X4739614Y-6749100D01*
X4753900Y-6777671D01*
X4753900Y-6934814D01*
X4753900Y-6777671D02*
X4768186Y-6749100D01*
X4796757Y-6734814D01*
X4839614Y-6734814D01*
X4868186Y-6749100D01*
X4882471Y-6777671D01*
X4882471Y-6934814D01*
X5468186Y-6620529D02*
X5211043Y-7006243D01*
X5853900Y-6634814D02*
X5882471Y-6634814D01*
X5911043Y-6649100D01*
X5925328Y-6663386D01*
X5939614Y-6691957D01*
X5953900Y-6749100D01*
X5953900Y-6820529D01*
X5939614Y-6877671D01*
X5925328Y-6906243D01*
X5911043Y-6920529D01*
X5882471Y-6934814D01*
X5853900Y-6934814D01*
X5825328Y-6920529D01*
X5811043Y-6906243D01*
X5796757Y-6877671D01*
X5782471Y-6820529D01*
X5782471Y-6749100D01*
X5796757Y-6691957D01*
X5811043Y-6663386D01*
X5825328Y-6649100D01*
X5853900Y-6634814D01*
X6082471Y-6906243D02*
X6096757Y-6920529D01*
X6082471Y-6934814D01*
X6068186Y-6920529D01*
X6082471Y-6906243D01*
X6082471Y-6934814D01*
X6282471Y-6634814D02*
X6311043Y-6634814D01*
X6339614Y-6649100D01*
X6353900Y-6663386D01*
X6368186Y-6691957D01*
X6382471Y-6749100D01*
X6382471Y-6820529D01*
X6368186Y-6877671D01*
X6353900Y-6906243D01*
X6339614Y-6920529D01*
X6311043Y-6934814D01*
X6282471Y-6934814D01*
X6253900Y-6920529D01*
X6239614Y-6906243D01*
X6225328Y-6877671D01*
X6211043Y-6820529D01*
X6211043Y-6749100D01*
X6225328Y-6691957D01*
X6239614Y-6663386D01*
X6253900Y-6649100D01*
X6282471Y-6634814D01*
X6482471Y-6634814D02*
X6668186Y-6634814D01*
X6568186Y-6749100D01*
X6611043Y-6749100D01*
X6639614Y-6763386D01*
X6653900Y-6777671D01*
X6668186Y-6806243D01*
X6668186Y-6877671D01*
X6653900Y-6906243D01*
X6639614Y-6920529D01*
X6611043Y-6934814D01*
X6525328Y-6934814D01*
X6496757Y-6920529D01*
X6482471Y-6906243D01*
X6953900Y-6934814D02*
X6782471Y-6934814D01*
X6868186Y-6934814D02*
X6868186Y-6634814D01*
X6839614Y-6677671D01*
X6811043Y-6706243D01*
X6782471Y-6720529D01*
X7068186Y-6634814D02*
X7068186Y-6691957D01*
X7182471Y-6634814D02*
X7182471Y-6691957D01*
X7625328Y-7049100D02*
X7611043Y-7034814D01*
X7582471Y-6991957D01*
X7568186Y-6963386D01*
X7553900Y-6920529D01*
X7539614Y-6849100D01*
X7539614Y-6791957D01*
X7553900Y-6720529D01*
X7568186Y-6677671D01*
X7582471Y-6649100D01*
X7611043Y-6606243D01*
X7625328Y-6591957D01*
X7868186Y-6734814D02*
X7868186Y-6934814D01*
X7796757Y-6620529D02*
X7725328Y-6834814D01*
X7911043Y-6834814D01*
X8253900Y-6934814D02*
X8253900Y-6634814D01*
X8382471Y-6934814D02*
X8382471Y-6777671D01*
X8368186Y-6749100D01*
X8339614Y-6734814D01*
X8296757Y-6734814D01*
X8268186Y-6749100D01*
X8253900Y-6763386D01*
X8568186Y-6934814D02*
X8539614Y-6920529D01*
X8525328Y-6906243D01*
X8511043Y-6877671D01*
X8511043Y-6791957D01*
X8525328Y-6763386D01*
X8539614Y-6749100D01*
X8568186Y-6734814D01*
X8611043Y-6734814D01*
X8639614Y-6749100D01*
X8653900Y-6763386D01*
X8668186Y-6791957D01*
X8668186Y-6877671D01*
X8653900Y-6906243D01*
X8639614Y-6920529D01*
X8611043Y-6934814D01*
X8568186Y-6934814D01*
X8839614Y-6934814D02*
X8811043Y-6920529D01*
X8796757Y-6891957D01*
X8796757Y-6634814D01*
X9068186Y-6920529D02*
X9039614Y-6934814D01*
X8982471Y-6934814D01*
X8953900Y-6920529D01*
X8939614Y-6891957D01*
X8939614Y-6777671D01*
X8953900Y-6749100D01*
X8982471Y-6734814D01*
X9039614Y-6734814D01*
X9068186Y-6749100D01*
X9082471Y-6777671D01*
X9082471Y-6806243D01*
X8939614Y-6834814D01*
X9196757Y-6920529D02*
X9225328Y-6934814D01*
X9282471Y-6934814D01*
X9311043Y-6920529D01*
X9325328Y-6891957D01*
X9325328Y-6877671D01*
X9311043Y-6849100D01*
X9282471Y-6834814D01*
X9239614Y-6834814D01*
X9211043Y-6820529D01*
X9196757Y-6791957D01*
X9196757Y-6777671D01*
X9211043Y-6749100D01*
X9239614Y-6734814D01*
X9282471Y-6734814D01*
X9311043Y-6749100D01*
X9425328Y-7049100D02*
X9439614Y-7034814D01*
X9468186Y-6991957D01*
X9482471Y-6963386D01*
X9496757Y-6920529D01*
X9511043Y-6849100D01*
X9511043Y-6791957D01*
X9496757Y-6720529D01*
X9482471Y-6677671D01*
X9468186Y-6649100D01*
X9439614Y-6606243D01*
X9425328Y-6591957D01*
X2888900Y-7145100D02*
X2888900Y-7245100D01*
X2838900Y-7195100D02*
X2938900Y-7195100D01*
X3382471Y-7330814D02*
X3211043Y-7330814D01*
X3296757Y-7330814D02*
X3296757Y-7030814D01*
X3268186Y-7073671D01*
X3239614Y-7102243D01*
X3211043Y-7116529D01*
X3511043Y-7302243D02*
X3525328Y-7316529D01*
X3511043Y-7330814D01*
X3496757Y-7316529D01*
X3511043Y-7302243D01*
X3511043Y-7330814D01*
X3711043Y-7030814D02*
X3739614Y-7030814D01*
X3768186Y-7045100D01*
X3782471Y-7059386D01*
X3796757Y-7087957D01*
X3811043Y-7145100D01*
X3811043Y-7216529D01*
X3796757Y-7273671D01*
X3782471Y-7302243D01*
X3768186Y-7316529D01*
X3739614Y-7330814D01*
X3711043Y-7330814D01*
X3682471Y-7316529D01*
X3668186Y-7302243D01*
X3653900Y-7273671D01*
X3639614Y-7216529D01*
X3639614Y-7145100D01*
X3653900Y-7087957D01*
X3668186Y-7059386D01*
X3682471Y-7045100D01*
X3711043Y-7030814D01*
X3996757Y-7030814D02*
X4025328Y-7030814D01*
X4053900Y-7045100D01*
X4068186Y-7059386D01*
X4082471Y-7087957D01*
X4096757Y-7145100D01*
X4096757Y-7216529D01*
X4082471Y-7273671D01*
X4068186Y-7302243D01*
X4053900Y-7316529D01*
X4025328Y-7330814D01*
X3996757Y-7330814D01*
X3968186Y-7316529D01*
X3953900Y-7302243D01*
X3939614Y-7273671D01*
X3925328Y-7216529D01*
X3925328Y-7145100D01*
X3939614Y-7087957D01*
X3953900Y-7059386D01*
X3968186Y-7045100D01*
X3996757Y-7030814D01*
X4225328Y-7330814D02*
X4225328Y-7130814D01*
X4225328Y-7159386D02*
X4239614Y-7145100D01*
X4268186Y-7130814D01*
X4311043Y-7130814D01*
X4339614Y-7145100D01*
X4353900Y-7173671D01*
X4353900Y-7330814D01*
X4353900Y-7173671D02*
X4368186Y-7145100D01*
X4396757Y-7130814D01*
X4439614Y-7130814D01*
X4468186Y-7145100D01*
X4482471Y-7173671D01*
X4482471Y-7330814D01*
X4625328Y-7330814D02*
X4625328Y-7130814D01*
X4625328Y-7159386D02*
X4639614Y-7145100D01*
X4668186Y-7130814D01*
X4711043Y-7130814D01*
X4739614Y-7145100D01*
X4753900Y-7173671D01*
X4753900Y-7330814D01*
X4753900Y-7173671D02*
X4768186Y-7145100D01*
X4796757Y-7130814D01*
X4839614Y-7130814D01*
X4868186Y-7145100D01*
X4882471Y-7173671D01*
X4882471Y-7330814D01*
X5468186Y-7016529D02*
X5211043Y-7402243D01*
X5853900Y-7030814D02*
X5882471Y-7030814D01*
X5911043Y-7045100D01*
X5925328Y-7059386D01*
X5939614Y-7087957D01*
X5953900Y-7145100D01*
X5953900Y-7216529D01*
X5939614Y-7273671D01*
X5925328Y-7302243D01*
X5911043Y-7316529D01*
X5882471Y-7330814D01*
X5853900Y-7330814D01*
X5825328Y-7316529D01*
X5811043Y-7302243D01*
X5796757Y-7273671D01*
X5782471Y-7216529D01*
X5782471Y-7145100D01*
X5796757Y-7087957D01*
X5811043Y-7059386D01*
X5825328Y-7045100D01*
X5853900Y-7030814D01*
X6082471Y-7302243D02*
X6096757Y-7316529D01*
X6082471Y-7330814D01*
X6068186Y-7316529D01*
X6082471Y-7302243D01*
X6082471Y-7330814D01*
X6282471Y-7030814D02*
X6311043Y-7030814D01*
X6339614Y-7045100D01*
X6353900Y-7059386D01*
X6368186Y-7087957D01*
X6382471Y-7145100D01*
X6382471Y-7216529D01*
X6368186Y-7273671D01*
X6353900Y-7302243D01*
X6339614Y-7316529D01*
X6311043Y-7330814D01*
X6282471Y-7330814D01*
X6253900Y-7316529D01*
X6239614Y-7302243D01*
X6225328Y-7273671D01*
X6211043Y-7216529D01*
X6211043Y-7145100D01*
X6225328Y-7087957D01*
X6239614Y-7059386D01*
X6253900Y-7045100D01*
X6282471Y-7030814D01*
X6482471Y-7030814D02*
X6668186Y-7030814D01*
X6568186Y-7145100D01*
X6611043Y-7145100D01*
X6639614Y-7159386D01*
X6653900Y-7173671D01*
X6668186Y-7202243D01*
X6668186Y-7273671D01*
X6653900Y-7302243D01*
X6639614Y-7316529D01*
X6611043Y-7330814D01*
X6525328Y-7330814D01*
X6496757Y-7316529D01*
X6482471Y-7302243D01*
X6811043Y-7330814D02*
X6868186Y-7330814D01*
X6896757Y-7316529D01*
X6911043Y-7302243D01*
X6939614Y-7259386D01*
X6953900Y-7202243D01*
X6953900Y-7087957D01*
X6939614Y-7059386D01*
X6925328Y-7045100D01*
X6896757Y-7030814D01*
X6839614Y-7030814D01*
X6811043Y-7045100D01*
X6796757Y-7059386D01*
X6782471Y-7087957D01*
X6782471Y-7159386D01*
X6796757Y-7187957D01*
X6811043Y-7202243D01*
X6839614Y-7216529D01*
X6896757Y-7216529D01*
X6925328Y-7202243D01*
X6939614Y-7187957D01*
X6953900Y-7159386D01*
X7068186Y-7030814D02*
X7068186Y-7087957D01*
X7182471Y-7030814D02*
X7182471Y-7087957D01*
X7625328Y-7445100D02*
X7611043Y-7430814D01*
X7582471Y-7387957D01*
X7568186Y-7359386D01*
X7553900Y-7316529D01*
X7539614Y-7245100D01*
X7539614Y-7187957D01*
X7553900Y-7116529D01*
X7568186Y-7073671D01*
X7582471Y-7045100D01*
X7611043Y-7002243D01*
X7625328Y-6987957D01*
X7782471Y-7159386D02*
X7753900Y-7145100D01*
X7739614Y-7130814D01*
X7725328Y-7102243D01*
X7725328Y-7087957D01*
X7739614Y-7059386D01*
X7753900Y-7045100D01*
X7782471Y-7030814D01*
X7839614Y-7030814D01*
X7868186Y-7045100D01*
X7882471Y-7059386D01*
X7896757Y-7087957D01*
X7896757Y-7102243D01*
X7882471Y-7130814D01*
X7868186Y-7145100D01*
X7839614Y-7159386D01*
X7782471Y-7159386D01*
X7753900Y-7173671D01*
X7739614Y-7187957D01*
X7725328Y-7216529D01*
X7725328Y-7273671D01*
X7739614Y-7302243D01*
X7753900Y-7316529D01*
X7782471Y-7330814D01*
X7839614Y-7330814D01*
X7868186Y-7316529D01*
X7882471Y-7302243D01*
X7896757Y-7273671D01*
X7896757Y-7216529D01*
X7882471Y-7187957D01*
X7868186Y-7173671D01*
X7839614Y-7159386D01*
X8253900Y-7330814D02*
X8253900Y-7030814D01*
X8382471Y-7330814D02*
X8382471Y-7173671D01*
X8368186Y-7145100D01*
X8339614Y-7130814D01*
X8296757Y-7130814D01*
X8268186Y-7145100D01*
X8253900Y-7159386D01*
X8568186Y-7330814D02*
X8539614Y-7316529D01*
X8525328Y-7302243D01*
X8511043Y-7273671D01*
X8511043Y-7187957D01*
X8525328Y-7159386D01*
X8539614Y-7145100D01*
X8568186Y-7130814D01*
X8611043Y-7130814D01*
X8639614Y-7145100D01*
X8653900Y-7159386D01*
X8668186Y-7187957D01*
X8668186Y-7273671D01*
X8653900Y-7302243D01*
X8639614Y-7316529D01*
X8611043Y-7330814D01*
X8568186Y-7330814D01*
X8839614Y-7330814D02*
X8811043Y-7316529D01*
X8796757Y-7287957D01*
X8796757Y-7030814D01*
X9068186Y-7316529D02*
X9039614Y-7330814D01*
X8982471Y-7330814D01*
X8953900Y-7316529D01*
X8939614Y-7287957D01*
X8939614Y-7173671D01*
X8953900Y-7145100D01*
X8982471Y-7130814D01*
X9039614Y-7130814D01*
X9068186Y-7145100D01*
X9082471Y-7173671D01*
X9082471Y-7202243D01*
X8939614Y-7230814D01*
X9196757Y-7316529D02*
X9225328Y-7330814D01*
X9282471Y-7330814D01*
X9311043Y-7316529D01*
X9325328Y-7287957D01*
X9325328Y-7273671D01*
X9311043Y-7245100D01*
X9282471Y-7230814D01*
X9239614Y-7230814D01*
X9211043Y-7216529D01*
X9196757Y-7187957D01*
X9196757Y-7173671D01*
X9211043Y-7145100D01*
X9239614Y-7130814D01*
X9282471Y-7130814D01*
X9311043Y-7145100D01*
X9425328Y-7445100D02*
X9439614Y-7430814D01*
X9468186Y-7387957D01*
X9482471Y-7359386D01*
X9496757Y-7316529D01*
X9511043Y-7245100D01*
X9511043Y-7187957D01*
X9496757Y-7116529D01*
X9482471Y-7073671D01*
X9468186Y-7045100D01*
X9439614Y-7002243D01*
X9425328Y-6987957D01*
X2922831Y-7629895D02*
X2922831Y-7552305D01*
X2845241Y-7552305D01*
X2845241Y-7629895D01*
X2922831Y-7629895D01*
X3382471Y-7726814D02*
X3211043Y-7726814D01*
X3296757Y-7726814D02*
X3296757Y-7426814D01*
X3268186Y-7469671D01*
X3239614Y-7498243D01*
X3211043Y-7512529D01*
X3511043Y-7698243D02*
X3525328Y-7712529D01*
X3511043Y-7726814D01*
X3496757Y-7712529D01*
X3511043Y-7698243D01*
X3511043Y-7726814D01*
X3811043Y-7726814D02*
X3639614Y-7726814D01*
X3725328Y-7726814D02*
X3725328Y-7426814D01*
X3696757Y-7469671D01*
X3668186Y-7498243D01*
X3639614Y-7512529D01*
X3996757Y-7426814D02*
X4025328Y-7426814D01*
X4053900Y-7441100D01*
X4068186Y-7455386D01*
X4082471Y-7483957D01*
X4096757Y-7541100D01*
X4096757Y-7612529D01*
X4082471Y-7669671D01*
X4068186Y-7698243D01*
X4053900Y-7712529D01*
X4025328Y-7726814D01*
X3996757Y-7726814D01*
X3968186Y-7712529D01*
X3953900Y-7698243D01*
X3939614Y-7669671D01*
X3925328Y-7612529D01*
X3925328Y-7541100D01*
X3939614Y-7483957D01*
X3953900Y-7455386D01*
X3968186Y-7441100D01*
X3996757Y-7426814D01*
X4225328Y-7726814D02*
X4225328Y-7526814D01*
X4225328Y-7555386D02*
X4239614Y-7541100D01*
X4268186Y-7526814D01*
X4311043Y-7526814D01*
X4339614Y-7541100D01*
X4353900Y-7569671D01*
X4353900Y-7726814D01*
X4353900Y-7569671D02*
X4368186Y-7541100D01*
X4396757Y-7526814D01*
X4439614Y-7526814D01*
X4468186Y-7541100D01*
X4482471Y-7569671D01*
X4482471Y-7726814D01*
X4625328Y-7726814D02*
X4625328Y-7526814D01*
X4625328Y-7555386D02*
X4639614Y-7541100D01*
X4668186Y-7526814D01*
X4711043Y-7526814D01*
X4739614Y-7541100D01*
X4753900Y-7569671D01*
X4753900Y-7726814D01*
X4753900Y-7569671D02*
X4768186Y-7541100D01*
X4796757Y-7526814D01*
X4839614Y-7526814D01*
X4868186Y-7541100D01*
X4882471Y-7569671D01*
X4882471Y-7726814D01*
X5468186Y-7412529D02*
X5211043Y-7798243D01*
X5853900Y-7426814D02*
X5882471Y-7426814D01*
X5911043Y-7441100D01*
X5925328Y-7455386D01*
X5939614Y-7483957D01*
X5953900Y-7541100D01*
X5953900Y-7612529D01*
X5939614Y-7669671D01*
X5925328Y-7698243D01*
X5911043Y-7712529D01*
X5882471Y-7726814D01*
X5853900Y-7726814D01*
X5825328Y-7712529D01*
X5811043Y-7698243D01*
X5796757Y-7669671D01*
X5782471Y-7612529D01*
X5782471Y-7541100D01*
X5796757Y-7483957D01*
X5811043Y-7455386D01*
X5825328Y-7441100D01*
X5853900Y-7426814D01*
X6082471Y-7698243D02*
X6096757Y-7712529D01*
X6082471Y-7726814D01*
X6068186Y-7712529D01*
X6082471Y-7698243D01*
X6082471Y-7726814D01*
X6282471Y-7426814D02*
X6311043Y-7426814D01*
X6339614Y-7441100D01*
X6353900Y-7455386D01*
X6368186Y-7483957D01*
X6382471Y-7541100D01*
X6382471Y-7612529D01*
X6368186Y-7669671D01*
X6353900Y-7698243D01*
X6339614Y-7712529D01*
X6311043Y-7726814D01*
X6282471Y-7726814D01*
X6253900Y-7712529D01*
X6239614Y-7698243D01*
X6225328Y-7669671D01*
X6211043Y-7612529D01*
X6211043Y-7541100D01*
X6225328Y-7483957D01*
X6239614Y-7455386D01*
X6253900Y-7441100D01*
X6282471Y-7426814D01*
X6639614Y-7526814D02*
X6639614Y-7726814D01*
X6568186Y-7412529D02*
X6496757Y-7626814D01*
X6682471Y-7626814D01*
X6768186Y-7426814D02*
X6953900Y-7426814D01*
X6853900Y-7541100D01*
X6896757Y-7541100D01*
X6925328Y-7555386D01*
X6939614Y-7569671D01*
X6953900Y-7598243D01*
X6953900Y-7669671D01*
X6939614Y-7698243D01*
X6925328Y-7712529D01*
X6896757Y-7726814D01*
X6811043Y-7726814D01*
X6782471Y-7712529D01*
X6768186Y-7698243D01*
X7068186Y-7426814D02*
X7068186Y-7483957D01*
X7182471Y-7426814D02*
X7182471Y-7483957D01*
X7625328Y-7841100D02*
X7611043Y-7826814D01*
X7582471Y-7783957D01*
X7568186Y-7755386D01*
X7553900Y-7712529D01*
X7539614Y-7641100D01*
X7539614Y-7583957D01*
X7553900Y-7512529D01*
X7568186Y-7469671D01*
X7582471Y-7441100D01*
X7611043Y-7398243D01*
X7625328Y-7383957D01*
X7868186Y-7526814D02*
X7868186Y-7726814D01*
X7796757Y-7412529D02*
X7725328Y-7626814D01*
X7911043Y-7626814D01*
X8253900Y-7726814D02*
X8253900Y-7426814D01*
X8382471Y-7726814D02*
X8382471Y-7569671D01*
X8368186Y-7541100D01*
X8339614Y-7526814D01*
X8296757Y-7526814D01*
X8268186Y-7541100D01*
X8253900Y-7555386D01*
X8568186Y-7726814D02*
X8539614Y-7712529D01*
X8525328Y-7698243D01*
X8511043Y-7669671D01*
X8511043Y-7583957D01*
X8525328Y-7555386D01*
X8539614Y-7541100D01*
X8568186Y-7526814D01*
X8611043Y-7526814D01*
X8639614Y-7541100D01*
X8653900Y-7555386D01*
X8668186Y-7583957D01*
X8668186Y-7669671D01*
X8653900Y-7698243D01*
X8639614Y-7712529D01*
X8611043Y-7726814D01*
X8568186Y-7726814D01*
X8839614Y-7726814D02*
X8811043Y-7712529D01*
X8796757Y-7683957D01*
X8796757Y-7426814D01*
X9068186Y-7712529D02*
X9039614Y-7726814D01*
X8982471Y-7726814D01*
X8953900Y-7712529D01*
X8939614Y-7683957D01*
X8939614Y-7569671D01*
X8953900Y-7541100D01*
X8982471Y-7526814D01*
X9039614Y-7526814D01*
X9068186Y-7541100D01*
X9082471Y-7569671D01*
X9082471Y-7598243D01*
X8939614Y-7626814D01*
X9196757Y-7712529D02*
X9225328Y-7726814D01*
X9282471Y-7726814D01*
X9311043Y-7712529D01*
X9325328Y-7683957D01*
X9325328Y-7669671D01*
X9311043Y-7641100D01*
X9282471Y-7626814D01*
X9239614Y-7626814D01*
X9211043Y-7612529D01*
X9196757Y-7583957D01*
X9196757Y-7569671D01*
X9211043Y-7541100D01*
X9239614Y-7526814D01*
X9282471Y-7526814D01*
X9311043Y-7541100D01*
X9425328Y-7841100D02*
X9439614Y-7826814D01*
X9468186Y-7783957D01*
X9482471Y-7755386D01*
X9496757Y-7712529D01*
X9511043Y-7641100D01*
X9511043Y-7583957D01*
X9496757Y-7512529D01*
X9482471Y-7469671D01*
X9468186Y-7441100D01*
X9439614Y-7398243D01*
X9425328Y-7383957D01*
X2883900Y-8042100D02*
X2938900Y-7987100D01*
X2883900Y-7932100D01*
X2828900Y-7987100D01*
X2883900Y-8042100D01*
X3382471Y-8122814D02*
X3211043Y-8122814D01*
X3296757Y-8122814D02*
X3296757Y-7822814D01*
X3268186Y-7865671D01*
X3239614Y-7894243D01*
X3211043Y-7908529D01*
X3511043Y-8094243D02*
X3525328Y-8108529D01*
X3511043Y-8122814D01*
X3496757Y-8108529D01*
X3511043Y-8094243D01*
X3511043Y-8122814D01*
X3811043Y-8122814D02*
X3639614Y-8122814D01*
X3725328Y-8122814D02*
X3725328Y-7822814D01*
X3696757Y-7865671D01*
X3668186Y-7894243D01*
X3639614Y-7908529D01*
X3996757Y-7822814D02*
X4025328Y-7822814D01*
X4053900Y-7837100D01*
X4068186Y-7851386D01*
X4082471Y-7879957D01*
X4096757Y-7937100D01*
X4096757Y-8008529D01*
X4082471Y-8065671D01*
X4068186Y-8094243D01*
X4053900Y-8108529D01*
X4025328Y-8122814D01*
X3996757Y-8122814D01*
X3968186Y-8108529D01*
X3953900Y-8094243D01*
X3939614Y-8065671D01*
X3925328Y-8008529D01*
X3925328Y-7937100D01*
X3939614Y-7879957D01*
X3953900Y-7851386D01*
X3968186Y-7837100D01*
X3996757Y-7822814D01*
X4225328Y-8122814D02*
X4225328Y-7922814D01*
X4225328Y-7951386D02*
X4239614Y-7937100D01*
X4268186Y-7922814D01*
X4311043Y-7922814D01*
X4339614Y-7937100D01*
X4353900Y-7965671D01*
X4353900Y-8122814D01*
X4353900Y-7965671D02*
X4368186Y-7937100D01*
X4396757Y-7922814D01*
X4439614Y-7922814D01*
X4468186Y-7937100D01*
X4482471Y-7965671D01*
X4482471Y-8122814D01*
X4625328Y-8122814D02*
X4625328Y-7922814D01*
X4625328Y-7951386D02*
X4639614Y-7937100D01*
X4668186Y-7922814D01*
X4711043Y-7922814D01*
X4739614Y-7937100D01*
X4753900Y-7965671D01*
X4753900Y-8122814D01*
X4753900Y-7965671D02*
X4768186Y-7937100D01*
X4796757Y-7922814D01*
X4839614Y-7922814D01*
X4868186Y-7937100D01*
X4882471Y-7965671D01*
X4882471Y-8122814D01*
X5468186Y-7808529D02*
X5211043Y-8194243D01*
X5853900Y-7822814D02*
X5882471Y-7822814D01*
X5911043Y-7837100D01*
X5925328Y-7851386D01*
X5939614Y-7879957D01*
X5953900Y-7937100D01*
X5953900Y-8008529D01*
X5939614Y-8065671D01*
X5925328Y-8094243D01*
X5911043Y-8108529D01*
X5882471Y-8122814D01*
X5853900Y-8122814D01*
X5825328Y-8108529D01*
X5811043Y-8094243D01*
X5796757Y-8065671D01*
X5782471Y-8008529D01*
X5782471Y-7937100D01*
X5796757Y-7879957D01*
X5811043Y-7851386D01*
X5825328Y-7837100D01*
X5853900Y-7822814D01*
X6082471Y-8094243D02*
X6096757Y-8108529D01*
X6082471Y-8122814D01*
X6068186Y-8108529D01*
X6082471Y-8094243D01*
X6082471Y-8122814D01*
X6282471Y-7822814D02*
X6311043Y-7822814D01*
X6339614Y-7837100D01*
X6353900Y-7851386D01*
X6368186Y-7879957D01*
X6382471Y-7937100D01*
X6382471Y-8008529D01*
X6368186Y-8065671D01*
X6353900Y-8094243D01*
X6339614Y-8108529D01*
X6311043Y-8122814D01*
X6282471Y-8122814D01*
X6253900Y-8108529D01*
X6239614Y-8094243D01*
X6225328Y-8065671D01*
X6211043Y-8008529D01*
X6211043Y-7937100D01*
X6225328Y-7879957D01*
X6239614Y-7851386D01*
X6253900Y-7837100D01*
X6282471Y-7822814D01*
X6639614Y-7922814D02*
X6639614Y-8122814D01*
X6568186Y-7808529D02*
X6496757Y-8022814D01*
X6682471Y-8022814D01*
X6768186Y-7822814D02*
X6953900Y-7822814D01*
X6853900Y-7937100D01*
X6896757Y-7937100D01*
X6925328Y-7951386D01*
X6939614Y-7965671D01*
X6953900Y-7994243D01*
X6953900Y-8065671D01*
X6939614Y-8094243D01*
X6925328Y-8108529D01*
X6896757Y-8122814D01*
X6811043Y-8122814D01*
X6782471Y-8108529D01*
X6768186Y-8094243D01*
X7068186Y-7822814D02*
X7068186Y-7879957D01*
X7182471Y-7822814D02*
X7182471Y-7879957D01*
X7625328Y-8237100D02*
X7611043Y-8222814D01*
X7582471Y-8179957D01*
X7568186Y-8151386D01*
X7553900Y-8108529D01*
X7539614Y-8037100D01*
X7539614Y-7979957D01*
X7553900Y-7908529D01*
X7568186Y-7865671D01*
X7582471Y-7837100D01*
X7611043Y-7794243D01*
X7625328Y-7779957D01*
X7868186Y-7922814D02*
X7868186Y-8122814D01*
X7796757Y-7808529D02*
X7725328Y-8022814D01*
X7911043Y-8022814D01*
X8253900Y-8122814D02*
X8253900Y-7822814D01*
X8382471Y-8122814D02*
X8382471Y-7965671D01*
X8368186Y-7937100D01*
X8339614Y-7922814D01*
X8296757Y-7922814D01*
X8268186Y-7937100D01*
X8253900Y-7951386D01*
X8568186Y-8122814D02*
X8539614Y-8108529D01*
X8525328Y-8094243D01*
X8511043Y-8065671D01*
X8511043Y-7979957D01*
X8525328Y-7951386D01*
X8539614Y-7937100D01*
X8568186Y-7922814D01*
X8611043Y-7922814D01*
X8639614Y-7937100D01*
X8653900Y-7951386D01*
X8668186Y-7979957D01*
X8668186Y-8065671D01*
X8653900Y-8094243D01*
X8639614Y-8108529D01*
X8611043Y-8122814D01*
X8568186Y-8122814D01*
X8839614Y-8122814D02*
X8811043Y-8108529D01*
X8796757Y-8079957D01*
X8796757Y-7822814D01*
X9068186Y-8108529D02*
X9039614Y-8122814D01*
X8982471Y-8122814D01*
X8953900Y-8108529D01*
X8939614Y-8079957D01*
X8939614Y-7965671D01*
X8953900Y-7937100D01*
X8982471Y-7922814D01*
X9039614Y-7922814D01*
X9068186Y-7937100D01*
X9082471Y-7965671D01*
X9082471Y-7994243D01*
X8939614Y-8022814D01*
X9196757Y-8108529D02*
X9225328Y-8122814D01*
X9282471Y-8122814D01*
X9311043Y-8108529D01*
X9325328Y-8079957D01*
X9325328Y-8065671D01*
X9311043Y-8037100D01*
X9282471Y-8022814D01*
X9239614Y-8022814D01*
X9211043Y-8008529D01*
X9196757Y-7979957D01*
X9196757Y-7965671D01*
X9211043Y-7937100D01*
X9239614Y-7922814D01*
X9282471Y-7922814D01*
X9311043Y-7937100D01*
X9425328Y-8237100D02*
X9439614Y-8222814D01*
X9468186Y-8179957D01*
X9482471Y-8151386D01*
X9496757Y-8108529D01*
X9511043Y-8037100D01*
X9511043Y-7979957D01*
X9496757Y-7908529D01*
X9482471Y-7865671D01*
X9468186Y-7837100D01*
X9439614Y-7794243D01*
X9425328Y-7779957D01*
M02*
