G04 #@! TF.GenerationSoftware,KiCad,Pcbnew,5.0.0-fee4fd1~66~ubuntu18.04.1*
G04 #@! TF.CreationDate,2018-10-10T23:42:05+08:00*
G04 #@! TF.ProjectId,Solid State Relay Kit,536F6C69642053746174652052656C61,rev?*
G04 #@! TF.SameCoordinates,Original*
G04 #@! TF.FileFunction,Copper,L2,Bot,Signal*
G04 #@! TF.FilePolarity,Positive*
%FSLAX46Y46*%
G04 Gerber Fmt 4.6, Leading zero omitted, Abs format (unit mm)*
G04 Created by KiCad (PCBNEW 5.0.0-fee4fd1~66~ubuntu18.04.1) date Wed Oct 10 23:42:05 2018*
%MOMM*%
%LPD*%
G01*
G04 APERTURE LIST*
G04 #@! TA.AperFunction,ComponentPad*
%ADD10C,2.000000*%
G04 #@! TD*
G04 #@! TA.AperFunction,ComponentPad*
%ADD11O,3.000000X1.800000*%
G04 #@! TD*
G04 #@! TA.AperFunction,ComponentPad*
%ADD12R,3.000000X1.800000*%
G04 #@! TD*
G04 #@! TA.AperFunction,ComponentPad*
%ADD13R,1.700000X1.700000*%
G04 #@! TD*
G04 #@! TA.AperFunction,ComponentPad*
%ADD14O,1.700000X1.700000*%
G04 #@! TD*
G04 #@! TA.AperFunction,ComponentPad*
%ADD15C,2.500000*%
G04 #@! TD*
G04 #@! TA.AperFunction,ViaPad*
%ADD16C,1.000000*%
G04 #@! TD*
G04 #@! TA.AperFunction,ViaPad*
%ADD17C,0.800000*%
G04 #@! TD*
G04 #@! TA.AperFunction,Conductor*
%ADD18C,0.750000*%
G04 #@! TD*
G04 #@! TA.AperFunction,Conductor*
%ADD19C,0.300000*%
G04 #@! TD*
G04 #@! TA.AperFunction,Conductor*
%ADD20C,0.500000*%
G04 #@! TD*
G04 #@! TA.AperFunction,Conductor*
%ADD21C,1.000000*%
G04 #@! TD*
G04 APERTURE END LIST*
D10*
G04 #@! TO.P,SSR1,1*
G04 #@! TO.N,/SSR_CONTROL1*
X39370000Y-50897801D03*
G04 #@! TD*
G04 #@! TO.P,SSR2,1*
G04 #@! TO.N,/SSR_CONTROL2*
X44450000Y-50800000D03*
G04 #@! TD*
G04 #@! TO.P,5V1,1*
G04 #@! TO.N,+5V*
X49530000Y-50800000D03*
G04 #@! TD*
G04 #@! TO.P,GND1,1*
G04 #@! TO.N,GND*
X54610000Y-50800000D03*
G04 #@! TD*
D11*
G04 #@! TO.P,J2,4*
G04 #@! TO.N,/SSR2_OUT1*
X67310000Y-43180000D03*
D12*
G04 #@! TO.P,J2,1*
G04 #@! TO.N,/SSR1_OUT2*
X67310000Y-35560000D03*
D11*
G04 #@! TO.P,J2,2*
G04 #@! TO.N,/SSR1_OUT1*
X67310000Y-38100000D03*
G04 #@! TO.P,J2,3*
G04 #@! TO.N,/SSR2_OUT2*
X67310000Y-40640000D03*
G04 #@! TD*
D13*
G04 #@! TO.P,J1,1*
G04 #@! TO.N,GND*
X32004000Y-42962400D03*
D14*
G04 #@! TO.P,J1,2*
G04 #@! TO.N,+5V*
X32004000Y-40422400D03*
G04 #@! TO.P,J1,3*
G04 #@! TO.N,/SSR_CONTROL1*
X32004000Y-37882400D03*
G04 #@! TO.P,J1,4*
G04 #@! TO.N,/SSR_CONTROL2*
X32004000Y-35342400D03*
G04 #@! TD*
D10*
G04 #@! TO.P,U2,3*
G04 #@! TO.N,/SSR2_IN2*
X43428000Y-29928000D03*
D15*
G04 #@! TO.P,U2,1*
G04 #@! TO.N,/SSR2_OUT2*
X60198000Y-29928000D03*
D10*
G04 #@! TO.P,U2,4*
G04 #@! TO.N,/SSR2_IN1*
X39878000Y-29928000D03*
D15*
G04 #@! TO.P,U2,2*
G04 #@! TO.N,/SSR2_OUT1*
X52578000Y-29928000D03*
G04 #@! TD*
G04 #@! TO.P,U1,2*
G04 #@! TO.N,/SSR1_OUT1*
X52578000Y-22816000D03*
D10*
G04 #@! TO.P,U1,4*
G04 #@! TO.N,/SSR1_IN1*
X39878000Y-22816000D03*
D15*
G04 #@! TO.P,U1,1*
G04 #@! TO.N,/SSR1_OUT2*
X60198000Y-22816000D03*
D10*
G04 #@! TO.P,U1,3*
G04 #@! TO.N,/SSR1_IN2*
X43428000Y-22816000D03*
G04 #@! TD*
D16*
G04 #@! TO.N,GND*
X40894000Y-48260000D03*
X34861500Y-33083500D03*
X45974000Y-40792400D03*
X40741600Y-43637200D03*
D17*
G04 #@! TO.N,/SSR_CONTROL2*
X46101000Y-38608000D03*
D16*
G04 #@! TO.N,/SSR2_IN2*
X52705000Y-39560500D03*
G04 #@! TO.N,/SSR2_IN1*
X56388000Y-38735000D03*
G04 #@! TO.N,/SSR1_IN1*
X42608500Y-38252400D03*
G04 #@! TO.N,/SSR1_IN2*
X41529000Y-34671000D03*
G04 #@! TD*
D18*
G04 #@! TO.N,GND*
X32004000Y-42962400D02*
X31278400Y-42962400D01*
X31278400Y-42962400D02*
X30226000Y-41910000D01*
X31242000Y-33020000D02*
X30226000Y-34036000D01*
X30226000Y-41910000D02*
X30226000Y-34036000D01*
X35052000Y-33020000D02*
X31242000Y-33020000D01*
D19*
G04 #@! TO.N,/SSR_CONTROL2*
X44450000Y-47244000D02*
X44450000Y-50800000D01*
X44450000Y-40259000D02*
X46101000Y-38608000D01*
X44450000Y-41186100D02*
X44450000Y-40259000D01*
X44450000Y-41186100D02*
X44450000Y-47244000D01*
X33691400Y-35342400D02*
X32004000Y-35342400D01*
X34798000Y-36449000D02*
X33691400Y-35342400D01*
X44450000Y-41186100D02*
X44450000Y-40195500D01*
X34798000Y-38227000D02*
X34798000Y-36449000D01*
X44450000Y-40195500D02*
X43662600Y-39408100D01*
X39814500Y-39408100D02*
X39014400Y-38608000D01*
X43662600Y-39408100D02*
X39814500Y-39408100D01*
X35179000Y-38608000D02*
X34798000Y-38227000D01*
X39014400Y-38608000D02*
X35179000Y-38608000D01*
G04 #@! TO.N,/SSR_CONTROL1*
X34036000Y-38658800D02*
X34036000Y-38227000D01*
X34493200Y-39116000D02*
X34036000Y-38658800D01*
X34036000Y-38227000D02*
X33691400Y-37882400D01*
X37973000Y-39116000D02*
X37490400Y-39116000D01*
X39370000Y-50897801D02*
X39370000Y-40513000D01*
X33691400Y-37882400D02*
X32004000Y-37882400D01*
X39370000Y-40513000D02*
X37973000Y-39116000D01*
X37490400Y-39116000D02*
X34493200Y-39116000D01*
D20*
G04 #@! TO.N,/SSR2_IN2*
X46449390Y-35814000D02*
X51752500Y-35814000D01*
X51752500Y-35814000D02*
X52705000Y-36766500D01*
X43428000Y-29928000D02*
X43428000Y-32792610D01*
X52705000Y-36766500D02*
X52705000Y-39560500D01*
X43428000Y-32792610D02*
X46449390Y-35814000D01*
D21*
G04 #@! TO.N,/SSR2_OUT1*
X60452000Y-39878000D02*
X63754000Y-43180000D01*
X63754000Y-43180000D02*
X67310000Y-43180000D01*
X60452000Y-34290000D02*
X60452000Y-39878000D01*
X56090000Y-29928000D02*
X60452000Y-34290000D01*
X52578000Y-29928000D02*
X56090000Y-29928000D01*
D20*
G04 #@! TO.N,/SSR2_IN1*
X54864000Y-34036000D02*
X56388000Y-35560000D01*
X48958500Y-34036000D02*
X54864000Y-34036000D01*
X39878000Y-28130500D02*
X40684000Y-27324500D01*
X39878000Y-29928000D02*
X39878000Y-28130500D01*
X40684000Y-27324500D02*
X45212000Y-27324500D01*
X56388000Y-35560000D02*
X56388000Y-38735000D01*
X45212000Y-27324500D02*
X46609000Y-28721500D01*
X46609000Y-28721500D02*
X46609000Y-31686500D01*
X46609000Y-31686500D02*
X48958500Y-34036000D01*
D21*
G04 #@! TO.N,/SSR2_OUT2*
X62357000Y-38354000D02*
X64643000Y-40640000D01*
X64643000Y-40640000D02*
X67310000Y-40640000D01*
X62357000Y-32087000D02*
X62357000Y-38354000D01*
X60198000Y-29928000D02*
X62357000Y-32087000D01*
G04 #@! TO.N,/SSR1_OUT1*
X64516000Y-37338000D02*
X65278000Y-38100000D01*
X65278000Y-38100000D02*
X67310000Y-38100000D01*
X64516000Y-28194000D02*
X64516000Y-37338000D01*
X61468000Y-25146000D02*
X64516000Y-28194000D01*
X53140234Y-25146000D02*
X61468000Y-25146000D01*
X52578000Y-22816000D02*
X52578000Y-24583766D01*
X52578000Y-24583766D02*
X53140234Y-25146000D01*
D20*
G04 #@! TO.N,/SSR1_IN1*
X40071246Y-38252400D02*
X42608500Y-38252400D01*
X36322000Y-26372000D02*
X36322000Y-36711925D01*
X36322000Y-36711925D02*
X37287200Y-37677125D01*
X39878000Y-22816000D02*
X36322000Y-26372000D01*
X39495971Y-37677125D02*
X40071246Y-38252400D01*
X37287200Y-37677125D02*
X39495971Y-37677125D01*
D21*
G04 #@! TO.N,/SSR1_OUT2*
X67310000Y-27940000D02*
X67310000Y-35560000D01*
X62186000Y-22816000D02*
X67310000Y-27940000D01*
X60198000Y-22816000D02*
X62186000Y-22816000D01*
D20*
G04 #@! TO.N,/SSR1_IN2*
X41555200Y-24688800D02*
X43428000Y-22816000D01*
X39954200Y-24688800D02*
X41555200Y-24688800D01*
X37846000Y-26797000D02*
X39954200Y-24688800D01*
X37846000Y-33782000D02*
X37846000Y-26797000D01*
X41529000Y-34671000D02*
X38735000Y-34671000D01*
X38735000Y-34671000D02*
X37846000Y-33782000D01*
G04 #@! TD*
G04 #@! TO.N,GND*
G36*
X68182288Y-18681174D02*
X68773559Y-18873289D01*
X69311962Y-19184137D01*
X69773970Y-19600130D01*
X70139395Y-20103095D01*
X70392263Y-20671046D01*
X70524698Y-21294100D01*
X70541000Y-21605171D01*
X70541001Y-50769649D01*
X70472826Y-51418288D01*
X70280711Y-52009560D01*
X69969864Y-52547960D01*
X69553869Y-53009970D01*
X69050905Y-53375395D01*
X68482954Y-53628263D01*
X67859900Y-53760698D01*
X67548829Y-53777000D01*
X33050341Y-53777000D01*
X32401712Y-53708826D01*
X31810440Y-53516711D01*
X31272040Y-53205864D01*
X30810030Y-52789869D01*
X30444605Y-52286905D01*
X30191737Y-51718954D01*
X30059302Y-51095900D01*
X30043000Y-50784829D01*
X30043000Y-50381488D01*
X30916000Y-50381488D01*
X30916000Y-51218512D01*
X31236315Y-51991820D01*
X31828180Y-52583685D01*
X32601488Y-52904000D01*
X33438512Y-52904000D01*
X34211820Y-52583685D01*
X34803685Y-51991820D01*
X35124000Y-51218512D01*
X35124000Y-50381488D01*
X34803685Y-49608180D01*
X34211820Y-49016315D01*
X33438512Y-48696000D01*
X32601488Y-48696000D01*
X31828180Y-49016315D01*
X31236315Y-49608180D01*
X30916000Y-50381488D01*
X30043000Y-50381488D01*
X30043000Y-43155900D01*
X30396000Y-43155900D01*
X30396000Y-43963175D01*
X30511398Y-44241772D01*
X30724627Y-44455001D01*
X31003224Y-44570400D01*
X31810500Y-44570400D01*
X32000000Y-44380900D01*
X32000000Y-42966400D01*
X32008000Y-42966400D01*
X32008000Y-44380900D01*
X32197500Y-44570400D01*
X33004776Y-44570400D01*
X33283373Y-44455001D01*
X33496602Y-44241772D01*
X33612000Y-43963175D01*
X33612000Y-43155900D01*
X33422500Y-42966400D01*
X32008000Y-42966400D01*
X32000000Y-42966400D01*
X30585500Y-42966400D01*
X30396000Y-43155900D01*
X30043000Y-43155900D01*
X30043000Y-41961625D01*
X30396000Y-41961625D01*
X30396000Y-42768900D01*
X30585500Y-42958400D01*
X32000000Y-42958400D01*
X32000000Y-42938400D01*
X32008000Y-42938400D01*
X32008000Y-42958400D01*
X33422500Y-42958400D01*
X33612000Y-42768900D01*
X33612000Y-41961625D01*
X33496602Y-41683028D01*
X33283373Y-41469799D01*
X33008631Y-41355997D01*
X33279440Y-40950704D01*
X33384526Y-40422400D01*
X33279440Y-39894096D01*
X32980179Y-39446221D01*
X32540446Y-39152400D01*
X32980179Y-38858579D01*
X33195452Y-38536400D01*
X33382000Y-38536400D01*
X33382000Y-38594394D01*
X33369189Y-38658800D01*
X33382000Y-38723206D01*
X33382000Y-38723209D01*
X33419946Y-38913977D01*
X33564493Y-39130307D01*
X33619098Y-39166793D01*
X33985209Y-39532904D01*
X34021693Y-39587507D01*
X34076295Y-39623991D01*
X34076296Y-39623992D01*
X34135090Y-39663277D01*
X34238022Y-39732054D01*
X34428790Y-39770000D01*
X34428794Y-39770000D01*
X34493199Y-39782811D01*
X34557604Y-39770000D01*
X37702105Y-39770000D01*
X38716001Y-40783897D01*
X38716000Y-49540778D01*
X38518052Y-49622771D01*
X38094970Y-50045853D01*
X37866000Y-50598637D01*
X37866000Y-51196965D01*
X38094970Y-51749749D01*
X38518052Y-52172831D01*
X39070836Y-52401801D01*
X39669164Y-52401801D01*
X40221948Y-52172831D01*
X40645030Y-51749749D01*
X40874000Y-51196965D01*
X40874000Y-50598637D01*
X40645030Y-50045853D01*
X40221948Y-49622771D01*
X40024000Y-49540778D01*
X40024000Y-40577404D01*
X40036811Y-40512999D01*
X40024000Y-40448594D01*
X40024000Y-40448590D01*
X39986054Y-40257822D01*
X39928810Y-40172150D01*
X39877992Y-40096096D01*
X39877991Y-40096095D01*
X39858048Y-40066249D01*
X39878904Y-40062100D01*
X43391705Y-40062100D01*
X43796001Y-40466396D01*
X43796000Y-41121690D01*
X43796000Y-41121691D01*
X43796001Y-47179586D01*
X43796000Y-47179591D01*
X43796001Y-49442977D01*
X43598052Y-49524970D01*
X43174970Y-49948052D01*
X42946000Y-50500836D01*
X42946000Y-51099164D01*
X43174970Y-51651948D01*
X43598052Y-52075030D01*
X44150836Y-52304000D01*
X44749164Y-52304000D01*
X45301948Y-52075030D01*
X45725030Y-51651948D01*
X45954000Y-51099164D01*
X45954000Y-50500836D01*
X48026000Y-50500836D01*
X48026000Y-51099164D01*
X48254970Y-51651948D01*
X48678052Y-52075030D01*
X49230836Y-52304000D01*
X49829164Y-52304000D01*
X50381948Y-52075030D01*
X50520703Y-51936275D01*
X53479382Y-51936275D01*
X53559669Y-52252463D01*
X54195454Y-52543845D01*
X54894350Y-52569743D01*
X55549956Y-52326213D01*
X55660331Y-52252463D01*
X55740618Y-51936275D01*
X54610000Y-50805657D01*
X53479382Y-51936275D01*
X50520703Y-51936275D01*
X50805030Y-51651948D01*
X51034000Y-51099164D01*
X51034000Y-51084350D01*
X52840257Y-51084350D01*
X53083787Y-51739956D01*
X53157537Y-51850331D01*
X53473725Y-51930618D01*
X54604343Y-50800000D01*
X54615657Y-50800000D01*
X55746275Y-51930618D01*
X56062463Y-51850331D01*
X56353845Y-51214546D01*
X56379743Y-50515650D01*
X56329908Y-50381488D01*
X65460000Y-50381488D01*
X65460000Y-51218512D01*
X65780315Y-51991820D01*
X66372180Y-52583685D01*
X67145488Y-52904000D01*
X67982512Y-52904000D01*
X68755820Y-52583685D01*
X69347685Y-51991820D01*
X69668000Y-51218512D01*
X69668000Y-50381488D01*
X69347685Y-49608180D01*
X68755820Y-49016315D01*
X67982512Y-48696000D01*
X67145488Y-48696000D01*
X66372180Y-49016315D01*
X65780315Y-49608180D01*
X65460000Y-50381488D01*
X56329908Y-50381488D01*
X56136213Y-49860044D01*
X56062463Y-49749669D01*
X55746275Y-49669382D01*
X54615657Y-50800000D01*
X54604343Y-50800000D01*
X53473725Y-49669382D01*
X53157537Y-49749669D01*
X52866155Y-50385454D01*
X52840257Y-51084350D01*
X51034000Y-51084350D01*
X51034000Y-50500836D01*
X50805030Y-49948052D01*
X50520703Y-49663725D01*
X53479382Y-49663725D01*
X54610000Y-50794343D01*
X55740618Y-49663725D01*
X55660331Y-49347537D01*
X55024546Y-49056155D01*
X54325650Y-49030257D01*
X53670044Y-49273787D01*
X53559669Y-49347537D01*
X53479382Y-49663725D01*
X50520703Y-49663725D01*
X50381948Y-49524970D01*
X49829164Y-49296000D01*
X49230836Y-49296000D01*
X48678052Y-49524970D01*
X48254970Y-49948052D01*
X48026000Y-50500836D01*
X45954000Y-50500836D01*
X45725030Y-49948052D01*
X45301948Y-49524970D01*
X45104000Y-49442977D01*
X45104000Y-40529895D01*
X46121895Y-39512000D01*
X46280817Y-39512000D01*
X46613075Y-39374374D01*
X46867374Y-39120075D01*
X47005000Y-38787817D01*
X47005000Y-38428183D01*
X46867374Y-38095925D01*
X46613075Y-37841626D01*
X46280817Y-37704000D01*
X45921183Y-37704000D01*
X45588925Y-37841626D01*
X45334626Y-38095925D01*
X45197000Y-38428183D01*
X45197000Y-38587105D01*
X44481750Y-39302355D01*
X44170593Y-38991198D01*
X44134107Y-38936593D01*
X43917778Y-38792046D01*
X43727010Y-38754100D01*
X43727006Y-38754100D01*
X43662600Y-38741289D01*
X43598194Y-38754100D01*
X43487411Y-38754100D01*
X43612500Y-38452108D01*
X43612500Y-38052692D01*
X43459650Y-37683679D01*
X43177221Y-37401250D01*
X42808208Y-37248400D01*
X42408792Y-37248400D01*
X42039779Y-37401250D01*
X41942629Y-37498400D01*
X40383563Y-37498400D01*
X40081640Y-37196478D01*
X40039574Y-37133522D01*
X39790167Y-36966873D01*
X39570230Y-36923125D01*
X39570225Y-36923125D01*
X39495971Y-36908355D01*
X39421717Y-36923125D01*
X37599517Y-36923125D01*
X37076000Y-36399609D01*
X37076000Y-26684316D01*
X37105515Y-26654801D01*
X37077230Y-26797000D01*
X37092001Y-26871259D01*
X37092000Y-33707746D01*
X37077230Y-33782000D01*
X37092000Y-33856254D01*
X37092000Y-33856258D01*
X37135748Y-34076195D01*
X37302397Y-34325603D01*
X37365353Y-34367669D01*
X38149333Y-35151650D01*
X38191397Y-35214603D01*
X38440804Y-35381252D01*
X38660741Y-35425000D01*
X38660745Y-35425000D01*
X38735000Y-35439770D01*
X38809255Y-35425000D01*
X40863129Y-35425000D01*
X40960279Y-35522150D01*
X41329292Y-35675000D01*
X41728708Y-35675000D01*
X42097721Y-35522150D01*
X42380150Y-35239721D01*
X42533000Y-34870708D01*
X42533000Y-34471292D01*
X42380150Y-34102279D01*
X42097721Y-33819850D01*
X41728708Y-33667000D01*
X41329292Y-33667000D01*
X40960279Y-33819850D01*
X40863129Y-33917000D01*
X39047317Y-33917000D01*
X38600000Y-33469684D01*
X38600000Y-30772778D01*
X38602970Y-30779948D01*
X39026052Y-31203030D01*
X39578836Y-31432000D01*
X40177164Y-31432000D01*
X40729948Y-31203030D01*
X41153030Y-30779948D01*
X41382000Y-30227164D01*
X41382000Y-29628836D01*
X41924000Y-29628836D01*
X41924000Y-30227164D01*
X42152970Y-30779948D01*
X42576052Y-31203030D01*
X42674000Y-31243601D01*
X42674001Y-32718351D01*
X42659230Y-32792610D01*
X42674001Y-32866869D01*
X42717749Y-33086806D01*
X42884398Y-33336213D01*
X42947351Y-33378277D01*
X45863722Y-36294649D01*
X45905787Y-36357603D01*
X46155194Y-36524252D01*
X46375131Y-36568000D01*
X46375135Y-36568000D01*
X46449390Y-36582770D01*
X46523645Y-36568000D01*
X51440184Y-36568000D01*
X51951000Y-37078817D01*
X51951001Y-38894628D01*
X51853850Y-38991779D01*
X51701000Y-39360792D01*
X51701000Y-39760208D01*
X51853850Y-40129221D01*
X52136279Y-40411650D01*
X52505292Y-40564500D01*
X52904708Y-40564500D01*
X53273721Y-40411650D01*
X53556150Y-40129221D01*
X53709000Y-39760208D01*
X53709000Y-39360792D01*
X53556150Y-38991779D01*
X53459000Y-38894629D01*
X53459000Y-36840753D01*
X53473770Y-36766499D01*
X53459000Y-36692245D01*
X53459000Y-36692241D01*
X53415252Y-36472304D01*
X53248603Y-36222897D01*
X53185650Y-36180833D01*
X52338169Y-35333353D01*
X52296103Y-35270397D01*
X52046696Y-35103748D01*
X51826759Y-35060000D01*
X51826754Y-35060000D01*
X51752500Y-35045230D01*
X51678246Y-35060000D01*
X46761707Y-35060000D01*
X44182000Y-32480294D01*
X44182000Y-31243601D01*
X44279948Y-31203030D01*
X44703030Y-30779948D01*
X44932000Y-30227164D01*
X44932000Y-29628836D01*
X44703030Y-29076052D01*
X44279948Y-28652970D01*
X43727164Y-28424000D01*
X43128836Y-28424000D01*
X42576052Y-28652970D01*
X42152970Y-29076052D01*
X41924000Y-29628836D01*
X41382000Y-29628836D01*
X41153030Y-29076052D01*
X40729948Y-28652970D01*
X40632000Y-28612399D01*
X40632000Y-28442816D01*
X40996317Y-28078500D01*
X44899684Y-28078500D01*
X45855000Y-29033817D01*
X45855001Y-31612241D01*
X45840230Y-31686500D01*
X45898749Y-31980696D01*
X45969779Y-32086999D01*
X46065398Y-32230103D01*
X46128351Y-32272167D01*
X48372832Y-34516649D01*
X48414897Y-34579603D01*
X48664304Y-34746252D01*
X48884241Y-34790000D01*
X48884245Y-34790000D01*
X48958500Y-34804770D01*
X49032755Y-34790000D01*
X54551684Y-34790000D01*
X55634000Y-35872317D01*
X55634001Y-38069128D01*
X55536850Y-38166279D01*
X55384000Y-38535292D01*
X55384000Y-38934708D01*
X55536850Y-39303721D01*
X55819279Y-39586150D01*
X56188292Y-39739000D01*
X56587708Y-39739000D01*
X56956721Y-39586150D01*
X57239150Y-39303721D01*
X57392000Y-38934708D01*
X57392000Y-38535292D01*
X57239150Y-38166279D01*
X57142000Y-38069129D01*
X57142000Y-35634253D01*
X57156770Y-35559999D01*
X57142000Y-35485745D01*
X57142000Y-35485741D01*
X57098252Y-35265804D01*
X56931603Y-35016397D01*
X56868650Y-34974333D01*
X55449669Y-33555353D01*
X55407603Y-33492397D01*
X55158196Y-33325748D01*
X54938259Y-33282000D01*
X54938254Y-33282000D01*
X54864000Y-33267230D01*
X54789746Y-33282000D01*
X49270817Y-33282000D01*
X47363000Y-31374184D01*
X47363000Y-28795753D01*
X47377770Y-28721499D01*
X47363000Y-28647245D01*
X47363000Y-28647241D01*
X47319252Y-28427304D01*
X47152603Y-28177897D01*
X47089650Y-28135833D01*
X45797669Y-26843853D01*
X45755603Y-26780897D01*
X45506196Y-26614248D01*
X45286259Y-26570500D01*
X45286254Y-26570500D01*
X45212000Y-26555730D01*
X45137746Y-26570500D01*
X40758253Y-26570500D01*
X40683999Y-26555730D01*
X40609745Y-26570500D01*
X40609741Y-26570500D01*
X40389804Y-26614248D01*
X40140397Y-26780897D01*
X40098333Y-26843850D01*
X39397351Y-27544833D01*
X39334398Y-27586897D01*
X39292334Y-27649850D01*
X39292333Y-27649851D01*
X39167749Y-27836304D01*
X39109230Y-28130500D01*
X39124001Y-28204759D01*
X39124001Y-28612398D01*
X39026052Y-28652970D01*
X38602970Y-29076052D01*
X38600000Y-29083222D01*
X38600000Y-27109316D01*
X40266517Y-25442800D01*
X41480946Y-25442800D01*
X41555200Y-25457570D01*
X41629454Y-25442800D01*
X41629459Y-25442800D01*
X41849396Y-25399052D01*
X42098803Y-25232403D01*
X42140869Y-25169447D01*
X43030888Y-24279429D01*
X43128836Y-24320000D01*
X43727164Y-24320000D01*
X44279948Y-24091030D01*
X44703030Y-23667948D01*
X44932000Y-23115164D01*
X44932000Y-22516836D01*
X44891134Y-22418175D01*
X50578000Y-22418175D01*
X50578000Y-23213825D01*
X50882482Y-23948909D01*
X51328000Y-24394427D01*
X51328000Y-24460662D01*
X51303513Y-24583766D01*
X51328000Y-24706870D01*
X51328000Y-24706875D01*
X51400528Y-25071491D01*
X51676802Y-25484965D01*
X51781168Y-25554700D01*
X52169298Y-25942830D01*
X52239035Y-26047199D01*
X52652509Y-26323473D01*
X53017125Y-26396000D01*
X53017130Y-26396000D01*
X53140234Y-26420487D01*
X53263338Y-26396000D01*
X60950234Y-26396000D01*
X63266000Y-28711767D01*
X63266000Y-31197477D01*
X63258199Y-31185801D01*
X63153833Y-31116066D01*
X62198000Y-30160233D01*
X62198000Y-29530175D01*
X61893518Y-28795091D01*
X61330909Y-28232482D01*
X60595825Y-27928000D01*
X59800175Y-27928000D01*
X59065091Y-28232482D01*
X58502482Y-28795091D01*
X58198000Y-29530175D01*
X58198000Y-30268234D01*
X57060936Y-29131170D01*
X56991199Y-29026801D01*
X56577725Y-28750527D01*
X56213109Y-28678000D01*
X56213104Y-28678000D01*
X56090000Y-28653513D01*
X55966896Y-28678000D01*
X54156427Y-28678000D01*
X53710909Y-28232482D01*
X52975825Y-27928000D01*
X52180175Y-27928000D01*
X51445091Y-28232482D01*
X50882482Y-28795091D01*
X50578000Y-29530175D01*
X50578000Y-30325825D01*
X50882482Y-31060909D01*
X51445091Y-31623518D01*
X52180175Y-31928000D01*
X52975825Y-31928000D01*
X53710909Y-31623518D01*
X54156427Y-31178000D01*
X55572234Y-31178000D01*
X59202000Y-34807766D01*
X59202001Y-39754891D01*
X59177513Y-39878000D01*
X59274528Y-40365725D01*
X59457792Y-40639999D01*
X59550802Y-40779199D01*
X59655168Y-40848934D01*
X62783066Y-43976833D01*
X62852801Y-44081199D01*
X63266275Y-44357473D01*
X63630891Y-44430000D01*
X63630895Y-44430000D01*
X63753999Y-44454487D01*
X63877103Y-44430000D01*
X65610837Y-44430000D01*
X66066202Y-44734266D01*
X66547491Y-44830000D01*
X68072509Y-44830000D01*
X68553798Y-44734266D01*
X69099583Y-44369583D01*
X69464266Y-43823798D01*
X69592325Y-43180000D01*
X69464266Y-42536202D01*
X69099583Y-41990417D01*
X68979231Y-41910000D01*
X69099583Y-41829583D01*
X69464266Y-41283798D01*
X69592325Y-40640000D01*
X69464266Y-39996202D01*
X69099583Y-39450417D01*
X68979231Y-39370000D01*
X69099583Y-39289583D01*
X69464266Y-38743798D01*
X69592325Y-38100000D01*
X69464266Y-37456202D01*
X69218813Y-37088857D01*
X69350720Y-37000720D01*
X69516484Y-36752635D01*
X69574693Y-36460000D01*
X69574693Y-34660000D01*
X69516484Y-34367365D01*
X69350720Y-34119280D01*
X69102635Y-33953516D01*
X68810000Y-33895307D01*
X68560000Y-33895307D01*
X68560000Y-28063103D01*
X68584487Y-27939999D01*
X68560000Y-27816895D01*
X68560000Y-27816891D01*
X68487473Y-27452275D01*
X68211199Y-27038801D01*
X68106833Y-26969066D01*
X63156936Y-22019170D01*
X63087199Y-21914801D01*
X62673725Y-21638527D01*
X62309109Y-21566000D01*
X62309104Y-21566000D01*
X62186000Y-21541513D01*
X62062896Y-21566000D01*
X61776427Y-21566000D01*
X61381915Y-21171488D01*
X65460000Y-21171488D01*
X65460000Y-22008512D01*
X65780315Y-22781820D01*
X66372180Y-23373685D01*
X67145488Y-23694000D01*
X67982512Y-23694000D01*
X68755820Y-23373685D01*
X69347685Y-22781820D01*
X69668000Y-22008512D01*
X69668000Y-21171488D01*
X69347685Y-20398180D01*
X68755820Y-19806315D01*
X67982512Y-19486000D01*
X67145488Y-19486000D01*
X66372180Y-19806315D01*
X65780315Y-20398180D01*
X65460000Y-21171488D01*
X61381915Y-21171488D01*
X61330909Y-21120482D01*
X60595825Y-20816000D01*
X59800175Y-20816000D01*
X59065091Y-21120482D01*
X58502482Y-21683091D01*
X58198000Y-22418175D01*
X58198000Y-23213825D01*
X58480566Y-23896000D01*
X54295434Y-23896000D01*
X54578000Y-23213825D01*
X54578000Y-22418175D01*
X54273518Y-21683091D01*
X53710909Y-21120482D01*
X52975825Y-20816000D01*
X52180175Y-20816000D01*
X51445091Y-21120482D01*
X50882482Y-21683091D01*
X50578000Y-22418175D01*
X44891134Y-22418175D01*
X44703030Y-21964052D01*
X44279948Y-21540970D01*
X43727164Y-21312000D01*
X43128836Y-21312000D01*
X42576052Y-21540970D01*
X42152970Y-21964052D01*
X41924000Y-22516836D01*
X41924000Y-23115164D01*
X41964571Y-23213112D01*
X41242884Y-23934800D01*
X40886178Y-23934800D01*
X41153030Y-23667948D01*
X41382000Y-23115164D01*
X41382000Y-22516836D01*
X41153030Y-21964052D01*
X40729948Y-21540970D01*
X40177164Y-21312000D01*
X39578836Y-21312000D01*
X39026052Y-21540970D01*
X38602970Y-21964052D01*
X38374000Y-22516836D01*
X38374000Y-23115164D01*
X38414571Y-23213112D01*
X35841353Y-25786331D01*
X35778397Y-25828397D01*
X35611748Y-26077805D01*
X35568000Y-26297742D01*
X35568000Y-26297746D01*
X35553230Y-26372000D01*
X35568000Y-26446254D01*
X35568001Y-36637666D01*
X35553230Y-36711925D01*
X35611749Y-37006121D01*
X35725612Y-37176528D01*
X35778398Y-37255528D01*
X35841351Y-37297592D01*
X36497758Y-37954000D01*
X35452000Y-37954000D01*
X35452000Y-36513407D01*
X35464811Y-36449000D01*
X35452000Y-36384593D01*
X35452000Y-36384590D01*
X35414054Y-36193822D01*
X35269507Y-35977493D01*
X35214902Y-35941007D01*
X34199393Y-34925498D01*
X34162907Y-34870893D01*
X33946578Y-34726346D01*
X33755810Y-34688400D01*
X33755806Y-34688400D01*
X33691400Y-34675589D01*
X33626994Y-34688400D01*
X33195452Y-34688400D01*
X32980179Y-34366221D01*
X32532304Y-34066960D01*
X32137355Y-33988400D01*
X31870645Y-33988400D01*
X31475696Y-34066960D01*
X31027821Y-34366221D01*
X30728560Y-34814096D01*
X30623474Y-35342400D01*
X30728560Y-35870704D01*
X31027821Y-36318579D01*
X31467554Y-36612400D01*
X31027821Y-36906221D01*
X30728560Y-37354096D01*
X30623474Y-37882400D01*
X30728560Y-38410704D01*
X31027821Y-38858579D01*
X31467554Y-39152400D01*
X31027821Y-39446221D01*
X30728560Y-39894096D01*
X30623474Y-40422400D01*
X30728560Y-40950704D01*
X30999369Y-41355997D01*
X30724627Y-41469799D01*
X30511398Y-41683028D01*
X30396000Y-41961625D01*
X30043000Y-41961625D01*
X30043000Y-21620342D01*
X30090176Y-21171488D01*
X30916000Y-21171488D01*
X30916000Y-22008512D01*
X31236315Y-22781820D01*
X31828180Y-23373685D01*
X32601488Y-23694000D01*
X33438512Y-23694000D01*
X34211820Y-23373685D01*
X34803685Y-22781820D01*
X35124000Y-22008512D01*
X35124000Y-21171488D01*
X34803685Y-20398180D01*
X34211820Y-19806315D01*
X33438512Y-19486000D01*
X32601488Y-19486000D01*
X31828180Y-19806315D01*
X31236315Y-20398180D01*
X30916000Y-21171488D01*
X30090176Y-21171488D01*
X30111174Y-20971712D01*
X30303289Y-20380441D01*
X30614137Y-19842038D01*
X31030130Y-19380030D01*
X31533095Y-19014605D01*
X32101046Y-18761737D01*
X32724100Y-18629302D01*
X33035171Y-18613000D01*
X67533658Y-18613000D01*
X68182288Y-18681174D01*
X68182288Y-18681174D01*
G37*
X68182288Y-18681174D02*
X68773559Y-18873289D01*
X69311962Y-19184137D01*
X69773970Y-19600130D01*
X70139395Y-20103095D01*
X70392263Y-20671046D01*
X70524698Y-21294100D01*
X70541000Y-21605171D01*
X70541001Y-50769649D01*
X70472826Y-51418288D01*
X70280711Y-52009560D01*
X69969864Y-52547960D01*
X69553869Y-53009970D01*
X69050905Y-53375395D01*
X68482954Y-53628263D01*
X67859900Y-53760698D01*
X67548829Y-53777000D01*
X33050341Y-53777000D01*
X32401712Y-53708826D01*
X31810440Y-53516711D01*
X31272040Y-53205864D01*
X30810030Y-52789869D01*
X30444605Y-52286905D01*
X30191737Y-51718954D01*
X30059302Y-51095900D01*
X30043000Y-50784829D01*
X30043000Y-50381488D01*
X30916000Y-50381488D01*
X30916000Y-51218512D01*
X31236315Y-51991820D01*
X31828180Y-52583685D01*
X32601488Y-52904000D01*
X33438512Y-52904000D01*
X34211820Y-52583685D01*
X34803685Y-51991820D01*
X35124000Y-51218512D01*
X35124000Y-50381488D01*
X34803685Y-49608180D01*
X34211820Y-49016315D01*
X33438512Y-48696000D01*
X32601488Y-48696000D01*
X31828180Y-49016315D01*
X31236315Y-49608180D01*
X30916000Y-50381488D01*
X30043000Y-50381488D01*
X30043000Y-43155900D01*
X30396000Y-43155900D01*
X30396000Y-43963175D01*
X30511398Y-44241772D01*
X30724627Y-44455001D01*
X31003224Y-44570400D01*
X31810500Y-44570400D01*
X32000000Y-44380900D01*
X32000000Y-42966400D01*
X32008000Y-42966400D01*
X32008000Y-44380900D01*
X32197500Y-44570400D01*
X33004776Y-44570400D01*
X33283373Y-44455001D01*
X33496602Y-44241772D01*
X33612000Y-43963175D01*
X33612000Y-43155900D01*
X33422500Y-42966400D01*
X32008000Y-42966400D01*
X32000000Y-42966400D01*
X30585500Y-42966400D01*
X30396000Y-43155900D01*
X30043000Y-43155900D01*
X30043000Y-41961625D01*
X30396000Y-41961625D01*
X30396000Y-42768900D01*
X30585500Y-42958400D01*
X32000000Y-42958400D01*
X32000000Y-42938400D01*
X32008000Y-42938400D01*
X32008000Y-42958400D01*
X33422500Y-42958400D01*
X33612000Y-42768900D01*
X33612000Y-41961625D01*
X33496602Y-41683028D01*
X33283373Y-41469799D01*
X33008631Y-41355997D01*
X33279440Y-40950704D01*
X33384526Y-40422400D01*
X33279440Y-39894096D01*
X32980179Y-39446221D01*
X32540446Y-39152400D01*
X32980179Y-38858579D01*
X33195452Y-38536400D01*
X33382000Y-38536400D01*
X33382000Y-38594394D01*
X33369189Y-38658800D01*
X33382000Y-38723206D01*
X33382000Y-38723209D01*
X33419946Y-38913977D01*
X33564493Y-39130307D01*
X33619098Y-39166793D01*
X33985209Y-39532904D01*
X34021693Y-39587507D01*
X34076295Y-39623991D01*
X34076296Y-39623992D01*
X34135090Y-39663277D01*
X34238022Y-39732054D01*
X34428790Y-39770000D01*
X34428794Y-39770000D01*
X34493199Y-39782811D01*
X34557604Y-39770000D01*
X37702105Y-39770000D01*
X38716001Y-40783897D01*
X38716000Y-49540778D01*
X38518052Y-49622771D01*
X38094970Y-50045853D01*
X37866000Y-50598637D01*
X37866000Y-51196965D01*
X38094970Y-51749749D01*
X38518052Y-52172831D01*
X39070836Y-52401801D01*
X39669164Y-52401801D01*
X40221948Y-52172831D01*
X40645030Y-51749749D01*
X40874000Y-51196965D01*
X40874000Y-50598637D01*
X40645030Y-50045853D01*
X40221948Y-49622771D01*
X40024000Y-49540778D01*
X40024000Y-40577404D01*
X40036811Y-40512999D01*
X40024000Y-40448594D01*
X40024000Y-40448590D01*
X39986054Y-40257822D01*
X39928810Y-40172150D01*
X39877992Y-40096096D01*
X39877991Y-40096095D01*
X39858048Y-40066249D01*
X39878904Y-40062100D01*
X43391705Y-40062100D01*
X43796001Y-40466396D01*
X43796000Y-41121690D01*
X43796000Y-41121691D01*
X43796001Y-47179586D01*
X43796000Y-47179591D01*
X43796001Y-49442977D01*
X43598052Y-49524970D01*
X43174970Y-49948052D01*
X42946000Y-50500836D01*
X42946000Y-51099164D01*
X43174970Y-51651948D01*
X43598052Y-52075030D01*
X44150836Y-52304000D01*
X44749164Y-52304000D01*
X45301948Y-52075030D01*
X45725030Y-51651948D01*
X45954000Y-51099164D01*
X45954000Y-50500836D01*
X48026000Y-50500836D01*
X48026000Y-51099164D01*
X48254970Y-51651948D01*
X48678052Y-52075030D01*
X49230836Y-52304000D01*
X49829164Y-52304000D01*
X50381948Y-52075030D01*
X50520703Y-51936275D01*
X53479382Y-51936275D01*
X53559669Y-52252463D01*
X54195454Y-52543845D01*
X54894350Y-52569743D01*
X55549956Y-52326213D01*
X55660331Y-52252463D01*
X55740618Y-51936275D01*
X54610000Y-50805657D01*
X53479382Y-51936275D01*
X50520703Y-51936275D01*
X50805030Y-51651948D01*
X51034000Y-51099164D01*
X51034000Y-51084350D01*
X52840257Y-51084350D01*
X53083787Y-51739956D01*
X53157537Y-51850331D01*
X53473725Y-51930618D01*
X54604343Y-50800000D01*
X54615657Y-50800000D01*
X55746275Y-51930618D01*
X56062463Y-51850331D01*
X56353845Y-51214546D01*
X56379743Y-50515650D01*
X56329908Y-50381488D01*
X65460000Y-50381488D01*
X65460000Y-51218512D01*
X65780315Y-51991820D01*
X66372180Y-52583685D01*
X67145488Y-52904000D01*
X67982512Y-52904000D01*
X68755820Y-52583685D01*
X69347685Y-51991820D01*
X69668000Y-51218512D01*
X69668000Y-50381488D01*
X69347685Y-49608180D01*
X68755820Y-49016315D01*
X67982512Y-48696000D01*
X67145488Y-48696000D01*
X66372180Y-49016315D01*
X65780315Y-49608180D01*
X65460000Y-50381488D01*
X56329908Y-50381488D01*
X56136213Y-49860044D01*
X56062463Y-49749669D01*
X55746275Y-49669382D01*
X54615657Y-50800000D01*
X54604343Y-50800000D01*
X53473725Y-49669382D01*
X53157537Y-49749669D01*
X52866155Y-50385454D01*
X52840257Y-51084350D01*
X51034000Y-51084350D01*
X51034000Y-50500836D01*
X50805030Y-49948052D01*
X50520703Y-49663725D01*
X53479382Y-49663725D01*
X54610000Y-50794343D01*
X55740618Y-49663725D01*
X55660331Y-49347537D01*
X55024546Y-49056155D01*
X54325650Y-49030257D01*
X53670044Y-49273787D01*
X53559669Y-49347537D01*
X53479382Y-49663725D01*
X50520703Y-49663725D01*
X50381948Y-49524970D01*
X49829164Y-49296000D01*
X49230836Y-49296000D01*
X48678052Y-49524970D01*
X48254970Y-49948052D01*
X48026000Y-50500836D01*
X45954000Y-50500836D01*
X45725030Y-49948052D01*
X45301948Y-49524970D01*
X45104000Y-49442977D01*
X45104000Y-40529895D01*
X46121895Y-39512000D01*
X46280817Y-39512000D01*
X46613075Y-39374374D01*
X46867374Y-39120075D01*
X47005000Y-38787817D01*
X47005000Y-38428183D01*
X46867374Y-38095925D01*
X46613075Y-37841626D01*
X46280817Y-37704000D01*
X45921183Y-37704000D01*
X45588925Y-37841626D01*
X45334626Y-38095925D01*
X45197000Y-38428183D01*
X45197000Y-38587105D01*
X44481750Y-39302355D01*
X44170593Y-38991198D01*
X44134107Y-38936593D01*
X43917778Y-38792046D01*
X43727010Y-38754100D01*
X43727006Y-38754100D01*
X43662600Y-38741289D01*
X43598194Y-38754100D01*
X43487411Y-38754100D01*
X43612500Y-38452108D01*
X43612500Y-38052692D01*
X43459650Y-37683679D01*
X43177221Y-37401250D01*
X42808208Y-37248400D01*
X42408792Y-37248400D01*
X42039779Y-37401250D01*
X41942629Y-37498400D01*
X40383563Y-37498400D01*
X40081640Y-37196478D01*
X40039574Y-37133522D01*
X39790167Y-36966873D01*
X39570230Y-36923125D01*
X39570225Y-36923125D01*
X39495971Y-36908355D01*
X39421717Y-36923125D01*
X37599517Y-36923125D01*
X37076000Y-36399609D01*
X37076000Y-26684316D01*
X37105515Y-26654801D01*
X37077230Y-26797000D01*
X37092001Y-26871259D01*
X37092000Y-33707746D01*
X37077230Y-33782000D01*
X37092000Y-33856254D01*
X37092000Y-33856258D01*
X37135748Y-34076195D01*
X37302397Y-34325603D01*
X37365353Y-34367669D01*
X38149333Y-35151650D01*
X38191397Y-35214603D01*
X38440804Y-35381252D01*
X38660741Y-35425000D01*
X38660745Y-35425000D01*
X38735000Y-35439770D01*
X38809255Y-35425000D01*
X40863129Y-35425000D01*
X40960279Y-35522150D01*
X41329292Y-35675000D01*
X41728708Y-35675000D01*
X42097721Y-35522150D01*
X42380150Y-35239721D01*
X42533000Y-34870708D01*
X42533000Y-34471292D01*
X42380150Y-34102279D01*
X42097721Y-33819850D01*
X41728708Y-33667000D01*
X41329292Y-33667000D01*
X40960279Y-33819850D01*
X40863129Y-33917000D01*
X39047317Y-33917000D01*
X38600000Y-33469684D01*
X38600000Y-30772778D01*
X38602970Y-30779948D01*
X39026052Y-31203030D01*
X39578836Y-31432000D01*
X40177164Y-31432000D01*
X40729948Y-31203030D01*
X41153030Y-30779948D01*
X41382000Y-30227164D01*
X41382000Y-29628836D01*
X41924000Y-29628836D01*
X41924000Y-30227164D01*
X42152970Y-30779948D01*
X42576052Y-31203030D01*
X42674000Y-31243601D01*
X42674001Y-32718351D01*
X42659230Y-32792610D01*
X42674001Y-32866869D01*
X42717749Y-33086806D01*
X42884398Y-33336213D01*
X42947351Y-33378277D01*
X45863722Y-36294649D01*
X45905787Y-36357603D01*
X46155194Y-36524252D01*
X46375131Y-36568000D01*
X46375135Y-36568000D01*
X46449390Y-36582770D01*
X46523645Y-36568000D01*
X51440184Y-36568000D01*
X51951000Y-37078817D01*
X51951001Y-38894628D01*
X51853850Y-38991779D01*
X51701000Y-39360792D01*
X51701000Y-39760208D01*
X51853850Y-40129221D01*
X52136279Y-40411650D01*
X52505292Y-40564500D01*
X52904708Y-40564500D01*
X53273721Y-40411650D01*
X53556150Y-40129221D01*
X53709000Y-39760208D01*
X53709000Y-39360792D01*
X53556150Y-38991779D01*
X53459000Y-38894629D01*
X53459000Y-36840753D01*
X53473770Y-36766499D01*
X53459000Y-36692245D01*
X53459000Y-36692241D01*
X53415252Y-36472304D01*
X53248603Y-36222897D01*
X53185650Y-36180833D01*
X52338169Y-35333353D01*
X52296103Y-35270397D01*
X52046696Y-35103748D01*
X51826759Y-35060000D01*
X51826754Y-35060000D01*
X51752500Y-35045230D01*
X51678246Y-35060000D01*
X46761707Y-35060000D01*
X44182000Y-32480294D01*
X44182000Y-31243601D01*
X44279948Y-31203030D01*
X44703030Y-30779948D01*
X44932000Y-30227164D01*
X44932000Y-29628836D01*
X44703030Y-29076052D01*
X44279948Y-28652970D01*
X43727164Y-28424000D01*
X43128836Y-28424000D01*
X42576052Y-28652970D01*
X42152970Y-29076052D01*
X41924000Y-29628836D01*
X41382000Y-29628836D01*
X41153030Y-29076052D01*
X40729948Y-28652970D01*
X40632000Y-28612399D01*
X40632000Y-28442816D01*
X40996317Y-28078500D01*
X44899684Y-28078500D01*
X45855000Y-29033817D01*
X45855001Y-31612241D01*
X45840230Y-31686500D01*
X45898749Y-31980696D01*
X45969779Y-32086999D01*
X46065398Y-32230103D01*
X46128351Y-32272167D01*
X48372832Y-34516649D01*
X48414897Y-34579603D01*
X48664304Y-34746252D01*
X48884241Y-34790000D01*
X48884245Y-34790000D01*
X48958500Y-34804770D01*
X49032755Y-34790000D01*
X54551684Y-34790000D01*
X55634000Y-35872317D01*
X55634001Y-38069128D01*
X55536850Y-38166279D01*
X55384000Y-38535292D01*
X55384000Y-38934708D01*
X55536850Y-39303721D01*
X55819279Y-39586150D01*
X56188292Y-39739000D01*
X56587708Y-39739000D01*
X56956721Y-39586150D01*
X57239150Y-39303721D01*
X57392000Y-38934708D01*
X57392000Y-38535292D01*
X57239150Y-38166279D01*
X57142000Y-38069129D01*
X57142000Y-35634253D01*
X57156770Y-35559999D01*
X57142000Y-35485745D01*
X57142000Y-35485741D01*
X57098252Y-35265804D01*
X56931603Y-35016397D01*
X56868650Y-34974333D01*
X55449669Y-33555353D01*
X55407603Y-33492397D01*
X55158196Y-33325748D01*
X54938259Y-33282000D01*
X54938254Y-33282000D01*
X54864000Y-33267230D01*
X54789746Y-33282000D01*
X49270817Y-33282000D01*
X47363000Y-31374184D01*
X47363000Y-28795753D01*
X47377770Y-28721499D01*
X47363000Y-28647245D01*
X47363000Y-28647241D01*
X47319252Y-28427304D01*
X47152603Y-28177897D01*
X47089650Y-28135833D01*
X45797669Y-26843853D01*
X45755603Y-26780897D01*
X45506196Y-26614248D01*
X45286259Y-26570500D01*
X45286254Y-26570500D01*
X45212000Y-26555730D01*
X45137746Y-26570500D01*
X40758253Y-26570500D01*
X40683999Y-26555730D01*
X40609745Y-26570500D01*
X40609741Y-26570500D01*
X40389804Y-26614248D01*
X40140397Y-26780897D01*
X40098333Y-26843850D01*
X39397351Y-27544833D01*
X39334398Y-27586897D01*
X39292334Y-27649850D01*
X39292333Y-27649851D01*
X39167749Y-27836304D01*
X39109230Y-28130500D01*
X39124001Y-28204759D01*
X39124001Y-28612398D01*
X39026052Y-28652970D01*
X38602970Y-29076052D01*
X38600000Y-29083222D01*
X38600000Y-27109316D01*
X40266517Y-25442800D01*
X41480946Y-25442800D01*
X41555200Y-25457570D01*
X41629454Y-25442800D01*
X41629459Y-25442800D01*
X41849396Y-25399052D01*
X42098803Y-25232403D01*
X42140869Y-25169447D01*
X43030888Y-24279429D01*
X43128836Y-24320000D01*
X43727164Y-24320000D01*
X44279948Y-24091030D01*
X44703030Y-23667948D01*
X44932000Y-23115164D01*
X44932000Y-22516836D01*
X44891134Y-22418175D01*
X50578000Y-22418175D01*
X50578000Y-23213825D01*
X50882482Y-23948909D01*
X51328000Y-24394427D01*
X51328000Y-24460662D01*
X51303513Y-24583766D01*
X51328000Y-24706870D01*
X51328000Y-24706875D01*
X51400528Y-25071491D01*
X51676802Y-25484965D01*
X51781168Y-25554700D01*
X52169298Y-25942830D01*
X52239035Y-26047199D01*
X52652509Y-26323473D01*
X53017125Y-26396000D01*
X53017130Y-26396000D01*
X53140234Y-26420487D01*
X53263338Y-26396000D01*
X60950234Y-26396000D01*
X63266000Y-28711767D01*
X63266000Y-31197477D01*
X63258199Y-31185801D01*
X63153833Y-31116066D01*
X62198000Y-30160233D01*
X62198000Y-29530175D01*
X61893518Y-28795091D01*
X61330909Y-28232482D01*
X60595825Y-27928000D01*
X59800175Y-27928000D01*
X59065091Y-28232482D01*
X58502482Y-28795091D01*
X58198000Y-29530175D01*
X58198000Y-30268234D01*
X57060936Y-29131170D01*
X56991199Y-29026801D01*
X56577725Y-28750527D01*
X56213109Y-28678000D01*
X56213104Y-28678000D01*
X56090000Y-28653513D01*
X55966896Y-28678000D01*
X54156427Y-28678000D01*
X53710909Y-28232482D01*
X52975825Y-27928000D01*
X52180175Y-27928000D01*
X51445091Y-28232482D01*
X50882482Y-28795091D01*
X50578000Y-29530175D01*
X50578000Y-30325825D01*
X50882482Y-31060909D01*
X51445091Y-31623518D01*
X52180175Y-31928000D01*
X52975825Y-31928000D01*
X53710909Y-31623518D01*
X54156427Y-31178000D01*
X55572234Y-31178000D01*
X59202000Y-34807766D01*
X59202001Y-39754891D01*
X59177513Y-39878000D01*
X59274528Y-40365725D01*
X59457792Y-40639999D01*
X59550802Y-40779199D01*
X59655168Y-40848934D01*
X62783066Y-43976833D01*
X62852801Y-44081199D01*
X63266275Y-44357473D01*
X63630891Y-44430000D01*
X63630895Y-44430000D01*
X63753999Y-44454487D01*
X63877103Y-44430000D01*
X65610837Y-44430000D01*
X66066202Y-44734266D01*
X66547491Y-44830000D01*
X68072509Y-44830000D01*
X68553798Y-44734266D01*
X69099583Y-44369583D01*
X69464266Y-43823798D01*
X69592325Y-43180000D01*
X69464266Y-42536202D01*
X69099583Y-41990417D01*
X68979231Y-41910000D01*
X69099583Y-41829583D01*
X69464266Y-41283798D01*
X69592325Y-40640000D01*
X69464266Y-39996202D01*
X69099583Y-39450417D01*
X68979231Y-39370000D01*
X69099583Y-39289583D01*
X69464266Y-38743798D01*
X69592325Y-38100000D01*
X69464266Y-37456202D01*
X69218813Y-37088857D01*
X69350720Y-37000720D01*
X69516484Y-36752635D01*
X69574693Y-36460000D01*
X69574693Y-34660000D01*
X69516484Y-34367365D01*
X69350720Y-34119280D01*
X69102635Y-33953516D01*
X68810000Y-33895307D01*
X68560000Y-33895307D01*
X68560000Y-28063103D01*
X68584487Y-27939999D01*
X68560000Y-27816895D01*
X68560000Y-27816891D01*
X68487473Y-27452275D01*
X68211199Y-27038801D01*
X68106833Y-26969066D01*
X63156936Y-22019170D01*
X63087199Y-21914801D01*
X62673725Y-21638527D01*
X62309109Y-21566000D01*
X62309104Y-21566000D01*
X62186000Y-21541513D01*
X62062896Y-21566000D01*
X61776427Y-21566000D01*
X61381915Y-21171488D01*
X65460000Y-21171488D01*
X65460000Y-22008512D01*
X65780315Y-22781820D01*
X66372180Y-23373685D01*
X67145488Y-23694000D01*
X67982512Y-23694000D01*
X68755820Y-23373685D01*
X69347685Y-22781820D01*
X69668000Y-22008512D01*
X69668000Y-21171488D01*
X69347685Y-20398180D01*
X68755820Y-19806315D01*
X67982512Y-19486000D01*
X67145488Y-19486000D01*
X66372180Y-19806315D01*
X65780315Y-20398180D01*
X65460000Y-21171488D01*
X61381915Y-21171488D01*
X61330909Y-21120482D01*
X60595825Y-20816000D01*
X59800175Y-20816000D01*
X59065091Y-21120482D01*
X58502482Y-21683091D01*
X58198000Y-22418175D01*
X58198000Y-23213825D01*
X58480566Y-23896000D01*
X54295434Y-23896000D01*
X54578000Y-23213825D01*
X54578000Y-22418175D01*
X54273518Y-21683091D01*
X53710909Y-21120482D01*
X52975825Y-20816000D01*
X52180175Y-20816000D01*
X51445091Y-21120482D01*
X50882482Y-21683091D01*
X50578000Y-22418175D01*
X44891134Y-22418175D01*
X44703030Y-21964052D01*
X44279948Y-21540970D01*
X43727164Y-21312000D01*
X43128836Y-21312000D01*
X42576052Y-21540970D01*
X42152970Y-21964052D01*
X41924000Y-22516836D01*
X41924000Y-23115164D01*
X41964571Y-23213112D01*
X41242884Y-23934800D01*
X40886178Y-23934800D01*
X41153030Y-23667948D01*
X41382000Y-23115164D01*
X41382000Y-22516836D01*
X41153030Y-21964052D01*
X40729948Y-21540970D01*
X40177164Y-21312000D01*
X39578836Y-21312000D01*
X39026052Y-21540970D01*
X38602970Y-21964052D01*
X38374000Y-22516836D01*
X38374000Y-23115164D01*
X38414571Y-23213112D01*
X35841353Y-25786331D01*
X35778397Y-25828397D01*
X35611748Y-26077805D01*
X35568000Y-26297742D01*
X35568000Y-26297746D01*
X35553230Y-26372000D01*
X35568000Y-26446254D01*
X35568001Y-36637666D01*
X35553230Y-36711925D01*
X35611749Y-37006121D01*
X35725612Y-37176528D01*
X35778398Y-37255528D01*
X35841351Y-37297592D01*
X36497758Y-37954000D01*
X35452000Y-37954000D01*
X35452000Y-36513407D01*
X35464811Y-36449000D01*
X35452000Y-36384593D01*
X35452000Y-36384590D01*
X35414054Y-36193822D01*
X35269507Y-35977493D01*
X35214902Y-35941007D01*
X34199393Y-34925498D01*
X34162907Y-34870893D01*
X33946578Y-34726346D01*
X33755810Y-34688400D01*
X33755806Y-34688400D01*
X33691400Y-34675589D01*
X33626994Y-34688400D01*
X33195452Y-34688400D01*
X32980179Y-34366221D01*
X32532304Y-34066960D01*
X32137355Y-33988400D01*
X31870645Y-33988400D01*
X31475696Y-34066960D01*
X31027821Y-34366221D01*
X30728560Y-34814096D01*
X30623474Y-35342400D01*
X30728560Y-35870704D01*
X31027821Y-36318579D01*
X31467554Y-36612400D01*
X31027821Y-36906221D01*
X30728560Y-37354096D01*
X30623474Y-37882400D01*
X30728560Y-38410704D01*
X31027821Y-38858579D01*
X31467554Y-39152400D01*
X31027821Y-39446221D01*
X30728560Y-39894096D01*
X30623474Y-40422400D01*
X30728560Y-40950704D01*
X30999369Y-41355997D01*
X30724627Y-41469799D01*
X30511398Y-41683028D01*
X30396000Y-41961625D01*
X30043000Y-41961625D01*
X30043000Y-21620342D01*
X30090176Y-21171488D01*
X30916000Y-21171488D01*
X30916000Y-22008512D01*
X31236315Y-22781820D01*
X31828180Y-23373685D01*
X32601488Y-23694000D01*
X33438512Y-23694000D01*
X34211820Y-23373685D01*
X34803685Y-22781820D01*
X35124000Y-22008512D01*
X35124000Y-21171488D01*
X34803685Y-20398180D01*
X34211820Y-19806315D01*
X33438512Y-19486000D01*
X32601488Y-19486000D01*
X31828180Y-19806315D01*
X31236315Y-20398180D01*
X30916000Y-21171488D01*
X30090176Y-21171488D01*
X30111174Y-20971712D01*
X30303289Y-20380441D01*
X30614137Y-19842038D01*
X31030130Y-19380030D01*
X31533095Y-19014605D01*
X32101046Y-18761737D01*
X32724100Y-18629302D01*
X33035171Y-18613000D01*
X67533658Y-18613000D01*
X68182288Y-18681174D01*
G04 #@! TD*
M02*
