M48
;DRILL file {KiCad 5.0.0-fee4fd1~66~ubuntu18.04.1} date Wed Oct 10 23:27:10 2018
;FORMAT={3:3/ absolute / metric / suppress leading zeros}
FMAT,2
METRIC,TZ
T1C0.400
T2C0.800
T3C1.000
T4C1.097
T5C1.100
%
G90
G05
M71
T1
X34862Y-33084
X40894Y-48260
X41529Y-34671
X43307Y-37211
X46101Y-38608
X52705Y-39561
X56388Y-38735
T2
X39878Y-22816
X43428Y-22816
X39878Y-29928
X43428Y-29928
T3
X32004Y-35342
X32004Y-37882
X32004Y-40422
X32004Y-42962
X49530Y-50800
X39370Y-50898
X44450Y-50800
X54610Y-50800
T4
X67310Y-35560
X67310Y-38100
X67310Y-40640
X67310Y-43180
T5
X52578Y-22816
X60198Y-22816
X52578Y-29928
X60198Y-29928
T0
M30
