G04 #@! TF.GenerationSoftware,KiCad,Pcbnew,5.0.0-fee4fd1~66~ubuntu18.04.1*
G04 #@! TF.CreationDate,2018-10-10T23:42:05+08:00*
G04 #@! TF.ProjectId,Solid State Relay Kit,536F6C69642053746174652052656C61,rev?*
G04 #@! TF.SameCoordinates,Original*
G04 #@! TF.FileFunction,Paste,Top*
G04 #@! TF.FilePolarity,Positive*
%FSLAX46Y46*%
G04 Gerber Fmt 4.6, Leading zero omitted, Abs format (unit mm)*
G04 Created by KiCad (PCBNEW 5.0.0-fee4fd1~66~ubuntu18.04.1) date Wed Oct 10 23:42:05 2018*
%MOMM*%
%LPD*%
G01*
G04 APERTURE LIST*
%ADD10C,0.100000*%
%ADD11C,1.150000*%
%ADD12R,1.600000X2.600000*%
%ADD13C,1.300000*%
%ADD14R,0.650000X2.000000*%
G04 APERTURE END LIST*
D10*
G04 #@! TO.C,R2*
G36*
X38558910Y-35496202D02*
X38583135Y-35499795D01*
X38606891Y-35505746D01*
X38629949Y-35513996D01*
X38652087Y-35524467D01*
X38673093Y-35537057D01*
X38692763Y-35551645D01*
X38710908Y-35568092D01*
X38727355Y-35586237D01*
X38741943Y-35605907D01*
X38754533Y-35626913D01*
X38765004Y-35649051D01*
X38773254Y-35672109D01*
X38779205Y-35695865D01*
X38782798Y-35720090D01*
X38784000Y-35744550D01*
X38784000Y-36645450D01*
X38782798Y-36669910D01*
X38779205Y-36694135D01*
X38773254Y-36717891D01*
X38765004Y-36740949D01*
X38754533Y-36763087D01*
X38741943Y-36784093D01*
X38727355Y-36803763D01*
X38710908Y-36821908D01*
X38692763Y-36838355D01*
X38673093Y-36852943D01*
X38652087Y-36865533D01*
X38629949Y-36876004D01*
X38606891Y-36884254D01*
X38583135Y-36890205D01*
X38558910Y-36893798D01*
X38534450Y-36895000D01*
X37883550Y-36895000D01*
X37859090Y-36893798D01*
X37834865Y-36890205D01*
X37811109Y-36884254D01*
X37788051Y-36876004D01*
X37765913Y-36865533D01*
X37744907Y-36852943D01*
X37725237Y-36838355D01*
X37707092Y-36821908D01*
X37690645Y-36803763D01*
X37676057Y-36784093D01*
X37663467Y-36763087D01*
X37652996Y-36740949D01*
X37644746Y-36717891D01*
X37638795Y-36694135D01*
X37635202Y-36669910D01*
X37634000Y-36645450D01*
X37634000Y-35744550D01*
X37635202Y-35720090D01*
X37638795Y-35695865D01*
X37644746Y-35672109D01*
X37652996Y-35649051D01*
X37663467Y-35626913D01*
X37676057Y-35605907D01*
X37690645Y-35586237D01*
X37707092Y-35568092D01*
X37725237Y-35551645D01*
X37744907Y-35537057D01*
X37765913Y-35524467D01*
X37788051Y-35513996D01*
X37811109Y-35505746D01*
X37834865Y-35499795D01*
X37859090Y-35496202D01*
X37883550Y-35495000D01*
X38534450Y-35495000D01*
X38558910Y-35496202D01*
X38558910Y-35496202D01*
G37*
D11*
X38209000Y-36195000D03*
D10*
G36*
X40608505Y-35496204D02*
X40632773Y-35499804D01*
X40656572Y-35505765D01*
X40679671Y-35514030D01*
X40701850Y-35524520D01*
X40722893Y-35537132D01*
X40742599Y-35551747D01*
X40760777Y-35568223D01*
X40777253Y-35586401D01*
X40791868Y-35606107D01*
X40804480Y-35627150D01*
X40814970Y-35649329D01*
X40823235Y-35672428D01*
X40829196Y-35696227D01*
X40832796Y-35720495D01*
X40834000Y-35744999D01*
X40834000Y-36645001D01*
X40832796Y-36669505D01*
X40829196Y-36693773D01*
X40823235Y-36717572D01*
X40814970Y-36740671D01*
X40804480Y-36762850D01*
X40791868Y-36783893D01*
X40777253Y-36803599D01*
X40760777Y-36821777D01*
X40742599Y-36838253D01*
X40722893Y-36852868D01*
X40701850Y-36865480D01*
X40679671Y-36875970D01*
X40656572Y-36884235D01*
X40632773Y-36890196D01*
X40608505Y-36893796D01*
X40584001Y-36895000D01*
X39933999Y-36895000D01*
X39909495Y-36893796D01*
X39885227Y-36890196D01*
X39861428Y-36884235D01*
X39838329Y-36875970D01*
X39816150Y-36865480D01*
X39795107Y-36852868D01*
X39775401Y-36838253D01*
X39757223Y-36821777D01*
X39740747Y-36803599D01*
X39726132Y-36783893D01*
X39713520Y-36762850D01*
X39703030Y-36740671D01*
X39694765Y-36717572D01*
X39688804Y-36693773D01*
X39685204Y-36669505D01*
X39684000Y-36645001D01*
X39684000Y-35744999D01*
X39685204Y-35720495D01*
X39688804Y-35696227D01*
X39694765Y-35672428D01*
X39703030Y-35649329D01*
X39713520Y-35627150D01*
X39726132Y-35606107D01*
X39740747Y-35586401D01*
X39757223Y-35568223D01*
X39775401Y-35551747D01*
X39795107Y-35537132D01*
X39816150Y-35524520D01*
X39838329Y-35514030D01*
X39861428Y-35505765D01*
X39885227Y-35499804D01*
X39909495Y-35496204D01*
X39933999Y-35495000D01*
X40584001Y-35495000D01*
X40608505Y-35496204D01*
X40608505Y-35496204D01*
G37*
D11*
X40259000Y-36195000D03*
G04 #@! TD*
D12*
G04 #@! TO.C,C1*
X36601400Y-41735600D03*
X36601400Y-45335600D03*
G04 #@! TD*
D10*
G04 #@! TO.C,D3*
G36*
X49279504Y-45706204D02*
X49303773Y-45709804D01*
X49327571Y-45715765D01*
X49350671Y-45724030D01*
X49372849Y-45734520D01*
X49393893Y-45747133D01*
X49413598Y-45761747D01*
X49431777Y-45778223D01*
X49448253Y-45796402D01*
X49462867Y-45816107D01*
X49475480Y-45837151D01*
X49485970Y-45859329D01*
X49494235Y-45882429D01*
X49500196Y-45906227D01*
X49503796Y-45930496D01*
X49505000Y-45955000D01*
X49505000Y-46755000D01*
X49503796Y-46779504D01*
X49500196Y-46803773D01*
X49494235Y-46827571D01*
X49485970Y-46850671D01*
X49475480Y-46872849D01*
X49462867Y-46893893D01*
X49448253Y-46913598D01*
X49431777Y-46931777D01*
X49413598Y-46948253D01*
X49393893Y-46962867D01*
X49372849Y-46975480D01*
X49350671Y-46985970D01*
X49327571Y-46994235D01*
X49303773Y-47000196D01*
X49279504Y-47003796D01*
X49255000Y-47005000D01*
X48430000Y-47005000D01*
X48405496Y-47003796D01*
X48381227Y-47000196D01*
X48357429Y-46994235D01*
X48334329Y-46985970D01*
X48312151Y-46975480D01*
X48291107Y-46962867D01*
X48271402Y-46948253D01*
X48253223Y-46931777D01*
X48236747Y-46913598D01*
X48222133Y-46893893D01*
X48209520Y-46872849D01*
X48199030Y-46850671D01*
X48190765Y-46827571D01*
X48184804Y-46803773D01*
X48181204Y-46779504D01*
X48180000Y-46755000D01*
X48180000Y-45955000D01*
X48181204Y-45930496D01*
X48184804Y-45906227D01*
X48190765Y-45882429D01*
X48199030Y-45859329D01*
X48209520Y-45837151D01*
X48222133Y-45816107D01*
X48236747Y-45796402D01*
X48253223Y-45778223D01*
X48271402Y-45761747D01*
X48291107Y-45747133D01*
X48312151Y-45734520D01*
X48334329Y-45724030D01*
X48357429Y-45715765D01*
X48381227Y-45709804D01*
X48405496Y-45706204D01*
X48430000Y-45705000D01*
X49255000Y-45705000D01*
X49279504Y-45706204D01*
X49279504Y-45706204D01*
G37*
D13*
X48842500Y-46355000D03*
D10*
G36*
X51204504Y-45706204D02*
X51228773Y-45709804D01*
X51252571Y-45715765D01*
X51275671Y-45724030D01*
X51297849Y-45734520D01*
X51318893Y-45747133D01*
X51338598Y-45761747D01*
X51356777Y-45778223D01*
X51373253Y-45796402D01*
X51387867Y-45816107D01*
X51400480Y-45837151D01*
X51410970Y-45859329D01*
X51419235Y-45882429D01*
X51425196Y-45906227D01*
X51428796Y-45930496D01*
X51430000Y-45955000D01*
X51430000Y-46755000D01*
X51428796Y-46779504D01*
X51425196Y-46803773D01*
X51419235Y-46827571D01*
X51410970Y-46850671D01*
X51400480Y-46872849D01*
X51387867Y-46893893D01*
X51373253Y-46913598D01*
X51356777Y-46931777D01*
X51338598Y-46948253D01*
X51318893Y-46962867D01*
X51297849Y-46975480D01*
X51275671Y-46985970D01*
X51252571Y-46994235D01*
X51228773Y-47000196D01*
X51204504Y-47003796D01*
X51180000Y-47005000D01*
X50355000Y-47005000D01*
X50330496Y-47003796D01*
X50306227Y-47000196D01*
X50282429Y-46994235D01*
X50259329Y-46985970D01*
X50237151Y-46975480D01*
X50216107Y-46962867D01*
X50196402Y-46948253D01*
X50178223Y-46931777D01*
X50161747Y-46913598D01*
X50147133Y-46893893D01*
X50134520Y-46872849D01*
X50124030Y-46850671D01*
X50115765Y-46827571D01*
X50109804Y-46803773D01*
X50106204Y-46779504D01*
X50105000Y-46755000D01*
X50105000Y-45955000D01*
X50106204Y-45930496D01*
X50109804Y-45906227D01*
X50115765Y-45882429D01*
X50124030Y-45859329D01*
X50134520Y-45837151D01*
X50147133Y-45816107D01*
X50161747Y-45796402D01*
X50178223Y-45778223D01*
X50196402Y-45761747D01*
X50216107Y-45747133D01*
X50237151Y-45734520D01*
X50259329Y-45724030D01*
X50282429Y-45715765D01*
X50306227Y-45709804D01*
X50330496Y-45706204D01*
X50355000Y-45705000D01*
X51180000Y-45705000D01*
X51204504Y-45706204D01*
X51204504Y-45706204D01*
G37*
D13*
X50767500Y-46355000D03*
G04 #@! TD*
D14*
G04 #@! TO.C,Q2*
X56195000Y-35120000D03*
X54295000Y-35120000D03*
X55245000Y-38540000D03*
G04 #@! TD*
D10*
G04 #@! TO.C,R9*
G36*
X51149505Y-40576204D02*
X51173773Y-40579804D01*
X51197572Y-40585765D01*
X51220671Y-40594030D01*
X51242850Y-40604520D01*
X51263893Y-40617132D01*
X51283599Y-40631747D01*
X51301777Y-40648223D01*
X51318253Y-40666401D01*
X51332868Y-40686107D01*
X51345480Y-40707150D01*
X51355970Y-40729329D01*
X51364235Y-40752428D01*
X51370196Y-40776227D01*
X51373796Y-40800495D01*
X51375000Y-40824999D01*
X51375000Y-41725001D01*
X51373796Y-41749505D01*
X51370196Y-41773773D01*
X51364235Y-41797572D01*
X51355970Y-41820671D01*
X51345480Y-41842850D01*
X51332868Y-41863893D01*
X51318253Y-41883599D01*
X51301777Y-41901777D01*
X51283599Y-41918253D01*
X51263893Y-41932868D01*
X51242850Y-41945480D01*
X51220671Y-41955970D01*
X51197572Y-41964235D01*
X51173773Y-41970196D01*
X51149505Y-41973796D01*
X51125001Y-41975000D01*
X50474999Y-41975000D01*
X50450495Y-41973796D01*
X50426227Y-41970196D01*
X50402428Y-41964235D01*
X50379329Y-41955970D01*
X50357150Y-41945480D01*
X50336107Y-41932868D01*
X50316401Y-41918253D01*
X50298223Y-41901777D01*
X50281747Y-41883599D01*
X50267132Y-41863893D01*
X50254520Y-41842850D01*
X50244030Y-41820671D01*
X50235765Y-41797572D01*
X50229804Y-41773773D01*
X50226204Y-41749505D01*
X50225000Y-41725001D01*
X50225000Y-40824999D01*
X50226204Y-40800495D01*
X50229804Y-40776227D01*
X50235765Y-40752428D01*
X50244030Y-40729329D01*
X50254520Y-40707150D01*
X50267132Y-40686107D01*
X50281747Y-40666401D01*
X50298223Y-40648223D01*
X50316401Y-40631747D01*
X50336107Y-40617132D01*
X50357150Y-40604520D01*
X50379329Y-40594030D01*
X50402428Y-40585765D01*
X50426227Y-40579804D01*
X50450495Y-40576204D01*
X50474999Y-40575000D01*
X51125001Y-40575000D01*
X51149505Y-40576204D01*
X51149505Y-40576204D01*
G37*
D11*
X50800000Y-41275000D03*
D10*
G36*
X49099505Y-40576204D02*
X49123773Y-40579804D01*
X49147572Y-40585765D01*
X49170671Y-40594030D01*
X49192850Y-40604520D01*
X49213893Y-40617132D01*
X49233599Y-40631747D01*
X49251777Y-40648223D01*
X49268253Y-40666401D01*
X49282868Y-40686107D01*
X49295480Y-40707150D01*
X49305970Y-40729329D01*
X49314235Y-40752428D01*
X49320196Y-40776227D01*
X49323796Y-40800495D01*
X49325000Y-40824999D01*
X49325000Y-41725001D01*
X49323796Y-41749505D01*
X49320196Y-41773773D01*
X49314235Y-41797572D01*
X49305970Y-41820671D01*
X49295480Y-41842850D01*
X49282868Y-41863893D01*
X49268253Y-41883599D01*
X49251777Y-41901777D01*
X49233599Y-41918253D01*
X49213893Y-41932868D01*
X49192850Y-41945480D01*
X49170671Y-41955970D01*
X49147572Y-41964235D01*
X49123773Y-41970196D01*
X49099505Y-41973796D01*
X49075001Y-41975000D01*
X48424999Y-41975000D01*
X48400495Y-41973796D01*
X48376227Y-41970196D01*
X48352428Y-41964235D01*
X48329329Y-41955970D01*
X48307150Y-41945480D01*
X48286107Y-41932868D01*
X48266401Y-41918253D01*
X48248223Y-41901777D01*
X48231747Y-41883599D01*
X48217132Y-41863893D01*
X48204520Y-41842850D01*
X48194030Y-41820671D01*
X48185765Y-41797572D01*
X48179804Y-41773773D01*
X48176204Y-41749505D01*
X48175000Y-41725001D01*
X48175000Y-40824999D01*
X48176204Y-40800495D01*
X48179804Y-40776227D01*
X48185765Y-40752428D01*
X48194030Y-40729329D01*
X48204520Y-40707150D01*
X48217132Y-40686107D01*
X48231747Y-40666401D01*
X48248223Y-40648223D01*
X48266401Y-40631747D01*
X48286107Y-40617132D01*
X48307150Y-40604520D01*
X48329329Y-40594030D01*
X48352428Y-40585765D01*
X48376227Y-40579804D01*
X48400495Y-40576204D01*
X48424999Y-40575000D01*
X49075001Y-40575000D01*
X49099505Y-40576204D01*
X49099505Y-40576204D01*
G37*
D11*
X48750000Y-41275000D03*
G04 #@! TD*
D10*
G04 #@! TO.C,R8*
G36*
X49099505Y-43497204D02*
X49123773Y-43500804D01*
X49147572Y-43506765D01*
X49170671Y-43515030D01*
X49192850Y-43525520D01*
X49213893Y-43538132D01*
X49233599Y-43552747D01*
X49251777Y-43569223D01*
X49268253Y-43587401D01*
X49282868Y-43607107D01*
X49295480Y-43628150D01*
X49305970Y-43650329D01*
X49314235Y-43673428D01*
X49320196Y-43697227D01*
X49323796Y-43721495D01*
X49325000Y-43745999D01*
X49325000Y-44646001D01*
X49323796Y-44670505D01*
X49320196Y-44694773D01*
X49314235Y-44718572D01*
X49305970Y-44741671D01*
X49295480Y-44763850D01*
X49282868Y-44784893D01*
X49268253Y-44804599D01*
X49251777Y-44822777D01*
X49233599Y-44839253D01*
X49213893Y-44853868D01*
X49192850Y-44866480D01*
X49170671Y-44876970D01*
X49147572Y-44885235D01*
X49123773Y-44891196D01*
X49099505Y-44894796D01*
X49075001Y-44896000D01*
X48424999Y-44896000D01*
X48400495Y-44894796D01*
X48376227Y-44891196D01*
X48352428Y-44885235D01*
X48329329Y-44876970D01*
X48307150Y-44866480D01*
X48286107Y-44853868D01*
X48266401Y-44839253D01*
X48248223Y-44822777D01*
X48231747Y-44804599D01*
X48217132Y-44784893D01*
X48204520Y-44763850D01*
X48194030Y-44741671D01*
X48185765Y-44718572D01*
X48179804Y-44694773D01*
X48176204Y-44670505D01*
X48175000Y-44646001D01*
X48175000Y-43745999D01*
X48176204Y-43721495D01*
X48179804Y-43697227D01*
X48185765Y-43673428D01*
X48194030Y-43650329D01*
X48204520Y-43628150D01*
X48217132Y-43607107D01*
X48231747Y-43587401D01*
X48248223Y-43569223D01*
X48266401Y-43552747D01*
X48286107Y-43538132D01*
X48307150Y-43525520D01*
X48329329Y-43515030D01*
X48352428Y-43506765D01*
X48376227Y-43500804D01*
X48400495Y-43497204D01*
X48424999Y-43496000D01*
X49075001Y-43496000D01*
X49099505Y-43497204D01*
X49099505Y-43497204D01*
G37*
D11*
X48750000Y-44196000D03*
D10*
G36*
X51149505Y-43497204D02*
X51173773Y-43500804D01*
X51197572Y-43506765D01*
X51220671Y-43515030D01*
X51242850Y-43525520D01*
X51263893Y-43538132D01*
X51283599Y-43552747D01*
X51301777Y-43569223D01*
X51318253Y-43587401D01*
X51332868Y-43607107D01*
X51345480Y-43628150D01*
X51355970Y-43650329D01*
X51364235Y-43673428D01*
X51370196Y-43697227D01*
X51373796Y-43721495D01*
X51375000Y-43745999D01*
X51375000Y-44646001D01*
X51373796Y-44670505D01*
X51370196Y-44694773D01*
X51364235Y-44718572D01*
X51355970Y-44741671D01*
X51345480Y-44763850D01*
X51332868Y-44784893D01*
X51318253Y-44804599D01*
X51301777Y-44822777D01*
X51283599Y-44839253D01*
X51263893Y-44853868D01*
X51242850Y-44866480D01*
X51220671Y-44876970D01*
X51197572Y-44885235D01*
X51173773Y-44891196D01*
X51149505Y-44894796D01*
X51125001Y-44896000D01*
X50474999Y-44896000D01*
X50450495Y-44894796D01*
X50426227Y-44891196D01*
X50402428Y-44885235D01*
X50379329Y-44876970D01*
X50357150Y-44866480D01*
X50336107Y-44853868D01*
X50316401Y-44839253D01*
X50298223Y-44822777D01*
X50281747Y-44804599D01*
X50267132Y-44784893D01*
X50254520Y-44763850D01*
X50244030Y-44741671D01*
X50235765Y-44718572D01*
X50229804Y-44694773D01*
X50226204Y-44670505D01*
X50225000Y-44646001D01*
X50225000Y-43745999D01*
X50226204Y-43721495D01*
X50229804Y-43697227D01*
X50235765Y-43673428D01*
X50244030Y-43650329D01*
X50254520Y-43628150D01*
X50267132Y-43607107D01*
X50281747Y-43587401D01*
X50298223Y-43569223D01*
X50316401Y-43552747D01*
X50336107Y-43538132D01*
X50357150Y-43525520D01*
X50379329Y-43515030D01*
X50402428Y-43506765D01*
X50426227Y-43500804D01*
X50450495Y-43497204D01*
X50474999Y-43496000D01*
X51125001Y-43496000D01*
X51149505Y-43497204D01*
X51149505Y-43497204D01*
G37*
D11*
X50800000Y-44196000D03*
G04 #@! TD*
D10*
G04 #@! TO.C,R7*
G36*
X51149505Y-35242204D02*
X51173773Y-35245804D01*
X51197572Y-35251765D01*
X51220671Y-35260030D01*
X51242850Y-35270520D01*
X51263893Y-35283132D01*
X51283599Y-35297747D01*
X51301777Y-35314223D01*
X51318253Y-35332401D01*
X51332868Y-35352107D01*
X51345480Y-35373150D01*
X51355970Y-35395329D01*
X51364235Y-35418428D01*
X51370196Y-35442227D01*
X51373796Y-35466495D01*
X51375000Y-35490999D01*
X51375000Y-36391001D01*
X51373796Y-36415505D01*
X51370196Y-36439773D01*
X51364235Y-36463572D01*
X51355970Y-36486671D01*
X51345480Y-36508850D01*
X51332868Y-36529893D01*
X51318253Y-36549599D01*
X51301777Y-36567777D01*
X51283599Y-36584253D01*
X51263893Y-36598868D01*
X51242850Y-36611480D01*
X51220671Y-36621970D01*
X51197572Y-36630235D01*
X51173773Y-36636196D01*
X51149505Y-36639796D01*
X51125001Y-36641000D01*
X50474999Y-36641000D01*
X50450495Y-36639796D01*
X50426227Y-36636196D01*
X50402428Y-36630235D01*
X50379329Y-36621970D01*
X50357150Y-36611480D01*
X50336107Y-36598868D01*
X50316401Y-36584253D01*
X50298223Y-36567777D01*
X50281747Y-36549599D01*
X50267132Y-36529893D01*
X50254520Y-36508850D01*
X50244030Y-36486671D01*
X50235765Y-36463572D01*
X50229804Y-36439773D01*
X50226204Y-36415505D01*
X50225000Y-36391001D01*
X50225000Y-35490999D01*
X50226204Y-35466495D01*
X50229804Y-35442227D01*
X50235765Y-35418428D01*
X50244030Y-35395329D01*
X50254520Y-35373150D01*
X50267132Y-35352107D01*
X50281747Y-35332401D01*
X50298223Y-35314223D01*
X50316401Y-35297747D01*
X50336107Y-35283132D01*
X50357150Y-35270520D01*
X50379329Y-35260030D01*
X50402428Y-35251765D01*
X50426227Y-35245804D01*
X50450495Y-35242204D01*
X50474999Y-35241000D01*
X51125001Y-35241000D01*
X51149505Y-35242204D01*
X51149505Y-35242204D01*
G37*
D11*
X50800000Y-35941000D03*
D10*
G36*
X49099505Y-35242204D02*
X49123773Y-35245804D01*
X49147572Y-35251765D01*
X49170671Y-35260030D01*
X49192850Y-35270520D01*
X49213893Y-35283132D01*
X49233599Y-35297747D01*
X49251777Y-35314223D01*
X49268253Y-35332401D01*
X49282868Y-35352107D01*
X49295480Y-35373150D01*
X49305970Y-35395329D01*
X49314235Y-35418428D01*
X49320196Y-35442227D01*
X49323796Y-35466495D01*
X49325000Y-35490999D01*
X49325000Y-36391001D01*
X49323796Y-36415505D01*
X49320196Y-36439773D01*
X49314235Y-36463572D01*
X49305970Y-36486671D01*
X49295480Y-36508850D01*
X49282868Y-36529893D01*
X49268253Y-36549599D01*
X49251777Y-36567777D01*
X49233599Y-36584253D01*
X49213893Y-36598868D01*
X49192850Y-36611480D01*
X49170671Y-36621970D01*
X49147572Y-36630235D01*
X49123773Y-36636196D01*
X49099505Y-36639796D01*
X49075001Y-36641000D01*
X48424999Y-36641000D01*
X48400495Y-36639796D01*
X48376227Y-36636196D01*
X48352428Y-36630235D01*
X48329329Y-36621970D01*
X48307150Y-36611480D01*
X48286107Y-36598868D01*
X48266401Y-36584253D01*
X48248223Y-36567777D01*
X48231747Y-36549599D01*
X48217132Y-36529893D01*
X48204520Y-36508850D01*
X48194030Y-36486671D01*
X48185765Y-36463572D01*
X48179804Y-36439773D01*
X48176204Y-36415505D01*
X48175000Y-36391001D01*
X48175000Y-35490999D01*
X48176204Y-35466495D01*
X48179804Y-35442227D01*
X48185765Y-35418428D01*
X48194030Y-35395329D01*
X48204520Y-35373150D01*
X48217132Y-35352107D01*
X48231747Y-35332401D01*
X48248223Y-35314223D01*
X48266401Y-35297747D01*
X48286107Y-35283132D01*
X48307150Y-35270520D01*
X48329329Y-35260030D01*
X48352428Y-35251765D01*
X48376227Y-35245804D01*
X48400495Y-35242204D01*
X48424999Y-35241000D01*
X49075001Y-35241000D01*
X49099505Y-35242204D01*
X49099505Y-35242204D01*
G37*
D11*
X48750000Y-35941000D03*
G04 #@! TD*
D10*
G04 #@! TO.C,R6*
G36*
X51149505Y-37909204D02*
X51173773Y-37912804D01*
X51197572Y-37918765D01*
X51220671Y-37927030D01*
X51242850Y-37937520D01*
X51263893Y-37950132D01*
X51283599Y-37964747D01*
X51301777Y-37981223D01*
X51318253Y-37999401D01*
X51332868Y-38019107D01*
X51345480Y-38040150D01*
X51355970Y-38062329D01*
X51364235Y-38085428D01*
X51370196Y-38109227D01*
X51373796Y-38133495D01*
X51375000Y-38157999D01*
X51375000Y-39058001D01*
X51373796Y-39082505D01*
X51370196Y-39106773D01*
X51364235Y-39130572D01*
X51355970Y-39153671D01*
X51345480Y-39175850D01*
X51332868Y-39196893D01*
X51318253Y-39216599D01*
X51301777Y-39234777D01*
X51283599Y-39251253D01*
X51263893Y-39265868D01*
X51242850Y-39278480D01*
X51220671Y-39288970D01*
X51197572Y-39297235D01*
X51173773Y-39303196D01*
X51149505Y-39306796D01*
X51125001Y-39308000D01*
X50474999Y-39308000D01*
X50450495Y-39306796D01*
X50426227Y-39303196D01*
X50402428Y-39297235D01*
X50379329Y-39288970D01*
X50357150Y-39278480D01*
X50336107Y-39265868D01*
X50316401Y-39251253D01*
X50298223Y-39234777D01*
X50281747Y-39216599D01*
X50267132Y-39196893D01*
X50254520Y-39175850D01*
X50244030Y-39153671D01*
X50235765Y-39130572D01*
X50229804Y-39106773D01*
X50226204Y-39082505D01*
X50225000Y-39058001D01*
X50225000Y-38157999D01*
X50226204Y-38133495D01*
X50229804Y-38109227D01*
X50235765Y-38085428D01*
X50244030Y-38062329D01*
X50254520Y-38040150D01*
X50267132Y-38019107D01*
X50281747Y-37999401D01*
X50298223Y-37981223D01*
X50316401Y-37964747D01*
X50336107Y-37950132D01*
X50357150Y-37937520D01*
X50379329Y-37927030D01*
X50402428Y-37918765D01*
X50426227Y-37912804D01*
X50450495Y-37909204D01*
X50474999Y-37908000D01*
X51125001Y-37908000D01*
X51149505Y-37909204D01*
X51149505Y-37909204D01*
G37*
D11*
X50800000Y-38608000D03*
D10*
G36*
X49099505Y-37909204D02*
X49123773Y-37912804D01*
X49147572Y-37918765D01*
X49170671Y-37927030D01*
X49192850Y-37937520D01*
X49213893Y-37950132D01*
X49233599Y-37964747D01*
X49251777Y-37981223D01*
X49268253Y-37999401D01*
X49282868Y-38019107D01*
X49295480Y-38040150D01*
X49305970Y-38062329D01*
X49314235Y-38085428D01*
X49320196Y-38109227D01*
X49323796Y-38133495D01*
X49325000Y-38157999D01*
X49325000Y-39058001D01*
X49323796Y-39082505D01*
X49320196Y-39106773D01*
X49314235Y-39130572D01*
X49305970Y-39153671D01*
X49295480Y-39175850D01*
X49282868Y-39196893D01*
X49268253Y-39216599D01*
X49251777Y-39234777D01*
X49233599Y-39251253D01*
X49213893Y-39265868D01*
X49192850Y-39278480D01*
X49170671Y-39288970D01*
X49147572Y-39297235D01*
X49123773Y-39303196D01*
X49099505Y-39306796D01*
X49075001Y-39308000D01*
X48424999Y-39308000D01*
X48400495Y-39306796D01*
X48376227Y-39303196D01*
X48352428Y-39297235D01*
X48329329Y-39288970D01*
X48307150Y-39278480D01*
X48286107Y-39265868D01*
X48266401Y-39251253D01*
X48248223Y-39234777D01*
X48231747Y-39216599D01*
X48217132Y-39196893D01*
X48204520Y-39175850D01*
X48194030Y-39153671D01*
X48185765Y-39130572D01*
X48179804Y-39106773D01*
X48176204Y-39082505D01*
X48175000Y-39058001D01*
X48175000Y-38157999D01*
X48176204Y-38133495D01*
X48179804Y-38109227D01*
X48185765Y-38085428D01*
X48194030Y-38062329D01*
X48204520Y-38040150D01*
X48217132Y-38019107D01*
X48231747Y-37999401D01*
X48248223Y-37981223D01*
X48266401Y-37964747D01*
X48286107Y-37950132D01*
X48307150Y-37937520D01*
X48329329Y-37927030D01*
X48352428Y-37918765D01*
X48376227Y-37912804D01*
X48400495Y-37909204D01*
X48424999Y-37908000D01*
X49075001Y-37908000D01*
X49099505Y-37909204D01*
X49099505Y-37909204D01*
G37*
D11*
X48750000Y-38608000D03*
G04 #@! TD*
D14*
G04 #@! TO.C,Q1*
X44577000Y-38540000D03*
X43627000Y-35120000D03*
X45527000Y-35120000D03*
G04 #@! TD*
D10*
G04 #@! TO.C,D1*
G36*
X42962004Y-45630004D02*
X42986273Y-45633604D01*
X43010071Y-45639565D01*
X43033171Y-45647830D01*
X43055349Y-45658320D01*
X43076393Y-45670933D01*
X43096098Y-45685547D01*
X43114277Y-45702023D01*
X43130753Y-45720202D01*
X43145367Y-45739907D01*
X43157980Y-45760951D01*
X43168470Y-45783129D01*
X43176735Y-45806229D01*
X43182696Y-45830027D01*
X43186296Y-45854296D01*
X43187500Y-45878800D01*
X43187500Y-46678800D01*
X43186296Y-46703304D01*
X43182696Y-46727573D01*
X43176735Y-46751371D01*
X43168470Y-46774471D01*
X43157980Y-46796649D01*
X43145367Y-46817693D01*
X43130753Y-46837398D01*
X43114277Y-46855577D01*
X43096098Y-46872053D01*
X43076393Y-46886667D01*
X43055349Y-46899280D01*
X43033171Y-46909770D01*
X43010071Y-46918035D01*
X42986273Y-46923996D01*
X42962004Y-46927596D01*
X42937500Y-46928800D01*
X42112500Y-46928800D01*
X42087996Y-46927596D01*
X42063727Y-46923996D01*
X42039929Y-46918035D01*
X42016829Y-46909770D01*
X41994651Y-46899280D01*
X41973607Y-46886667D01*
X41953902Y-46872053D01*
X41935723Y-46855577D01*
X41919247Y-46837398D01*
X41904633Y-46817693D01*
X41892020Y-46796649D01*
X41881530Y-46774471D01*
X41873265Y-46751371D01*
X41867304Y-46727573D01*
X41863704Y-46703304D01*
X41862500Y-46678800D01*
X41862500Y-45878800D01*
X41863704Y-45854296D01*
X41867304Y-45830027D01*
X41873265Y-45806229D01*
X41881530Y-45783129D01*
X41892020Y-45760951D01*
X41904633Y-45739907D01*
X41919247Y-45720202D01*
X41935723Y-45702023D01*
X41953902Y-45685547D01*
X41973607Y-45670933D01*
X41994651Y-45658320D01*
X42016829Y-45647830D01*
X42039929Y-45639565D01*
X42063727Y-45633604D01*
X42087996Y-45630004D01*
X42112500Y-45628800D01*
X42937500Y-45628800D01*
X42962004Y-45630004D01*
X42962004Y-45630004D01*
G37*
D13*
X42525000Y-46278800D03*
D10*
G36*
X44887004Y-45630004D02*
X44911273Y-45633604D01*
X44935071Y-45639565D01*
X44958171Y-45647830D01*
X44980349Y-45658320D01*
X45001393Y-45670933D01*
X45021098Y-45685547D01*
X45039277Y-45702023D01*
X45055753Y-45720202D01*
X45070367Y-45739907D01*
X45082980Y-45760951D01*
X45093470Y-45783129D01*
X45101735Y-45806229D01*
X45107696Y-45830027D01*
X45111296Y-45854296D01*
X45112500Y-45878800D01*
X45112500Y-46678800D01*
X45111296Y-46703304D01*
X45107696Y-46727573D01*
X45101735Y-46751371D01*
X45093470Y-46774471D01*
X45082980Y-46796649D01*
X45070367Y-46817693D01*
X45055753Y-46837398D01*
X45039277Y-46855577D01*
X45021098Y-46872053D01*
X45001393Y-46886667D01*
X44980349Y-46899280D01*
X44958171Y-46909770D01*
X44935071Y-46918035D01*
X44911273Y-46923996D01*
X44887004Y-46927596D01*
X44862500Y-46928800D01*
X44037500Y-46928800D01*
X44012996Y-46927596D01*
X43988727Y-46923996D01*
X43964929Y-46918035D01*
X43941829Y-46909770D01*
X43919651Y-46899280D01*
X43898607Y-46886667D01*
X43878902Y-46872053D01*
X43860723Y-46855577D01*
X43844247Y-46837398D01*
X43829633Y-46817693D01*
X43817020Y-46796649D01*
X43806530Y-46774471D01*
X43798265Y-46751371D01*
X43792304Y-46727573D01*
X43788704Y-46703304D01*
X43787500Y-46678800D01*
X43787500Y-45878800D01*
X43788704Y-45854296D01*
X43792304Y-45830027D01*
X43798265Y-45806229D01*
X43806530Y-45783129D01*
X43817020Y-45760951D01*
X43829633Y-45739907D01*
X43844247Y-45720202D01*
X43860723Y-45702023D01*
X43878902Y-45685547D01*
X43898607Y-45670933D01*
X43919651Y-45658320D01*
X43941829Y-45647830D01*
X43964929Y-45639565D01*
X43988727Y-45633604D01*
X44012996Y-45630004D01*
X44037500Y-45628800D01*
X44862500Y-45628800D01*
X44887004Y-45630004D01*
X44887004Y-45630004D01*
G37*
D13*
X44450000Y-46278800D03*
G04 #@! TD*
D10*
G04 #@! TO.C,D2*
G36*
X31822424Y-29795748D02*
X31846693Y-29799348D01*
X31870491Y-29805309D01*
X31893591Y-29813574D01*
X31915769Y-29824064D01*
X31936813Y-29836677D01*
X31956518Y-29851291D01*
X31974697Y-29867767D01*
X31991173Y-29885946D01*
X32005787Y-29905651D01*
X32018400Y-29926695D01*
X32028890Y-29948873D01*
X32037155Y-29971973D01*
X32043116Y-29995771D01*
X32046716Y-30020040D01*
X32047920Y-30044544D01*
X32047920Y-30869544D01*
X32046716Y-30894048D01*
X32043116Y-30918317D01*
X32037155Y-30942115D01*
X32028890Y-30965215D01*
X32018400Y-30987393D01*
X32005787Y-31008437D01*
X31991173Y-31028142D01*
X31974697Y-31046321D01*
X31956518Y-31062797D01*
X31936813Y-31077411D01*
X31915769Y-31090024D01*
X31893591Y-31100514D01*
X31870491Y-31108779D01*
X31846693Y-31114740D01*
X31822424Y-31118340D01*
X31797920Y-31119544D01*
X30997920Y-31119544D01*
X30973416Y-31118340D01*
X30949147Y-31114740D01*
X30925349Y-31108779D01*
X30902249Y-31100514D01*
X30880071Y-31090024D01*
X30859027Y-31077411D01*
X30839322Y-31062797D01*
X30821143Y-31046321D01*
X30804667Y-31028142D01*
X30790053Y-31008437D01*
X30777440Y-30987393D01*
X30766950Y-30965215D01*
X30758685Y-30942115D01*
X30752724Y-30918317D01*
X30749124Y-30894048D01*
X30747920Y-30869544D01*
X30747920Y-30044544D01*
X30749124Y-30020040D01*
X30752724Y-29995771D01*
X30758685Y-29971973D01*
X30766950Y-29948873D01*
X30777440Y-29926695D01*
X30790053Y-29905651D01*
X30804667Y-29885946D01*
X30821143Y-29867767D01*
X30839322Y-29851291D01*
X30859027Y-29836677D01*
X30880071Y-29824064D01*
X30902249Y-29813574D01*
X30925349Y-29805309D01*
X30949147Y-29799348D01*
X30973416Y-29795748D01*
X30997920Y-29794544D01*
X31797920Y-29794544D01*
X31822424Y-29795748D01*
X31822424Y-29795748D01*
G37*
D13*
X31397920Y-30457044D03*
D10*
G36*
X31822424Y-27870748D02*
X31846693Y-27874348D01*
X31870491Y-27880309D01*
X31893591Y-27888574D01*
X31915769Y-27899064D01*
X31936813Y-27911677D01*
X31956518Y-27926291D01*
X31974697Y-27942767D01*
X31991173Y-27960946D01*
X32005787Y-27980651D01*
X32018400Y-28001695D01*
X32028890Y-28023873D01*
X32037155Y-28046973D01*
X32043116Y-28070771D01*
X32046716Y-28095040D01*
X32047920Y-28119544D01*
X32047920Y-28944544D01*
X32046716Y-28969048D01*
X32043116Y-28993317D01*
X32037155Y-29017115D01*
X32028890Y-29040215D01*
X32018400Y-29062393D01*
X32005787Y-29083437D01*
X31991173Y-29103142D01*
X31974697Y-29121321D01*
X31956518Y-29137797D01*
X31936813Y-29152411D01*
X31915769Y-29165024D01*
X31893591Y-29175514D01*
X31870491Y-29183779D01*
X31846693Y-29189740D01*
X31822424Y-29193340D01*
X31797920Y-29194544D01*
X30997920Y-29194544D01*
X30973416Y-29193340D01*
X30949147Y-29189740D01*
X30925349Y-29183779D01*
X30902249Y-29175514D01*
X30880071Y-29165024D01*
X30859027Y-29152411D01*
X30839322Y-29137797D01*
X30821143Y-29121321D01*
X30804667Y-29103142D01*
X30790053Y-29083437D01*
X30777440Y-29062393D01*
X30766950Y-29040215D01*
X30758685Y-29017115D01*
X30752724Y-28993317D01*
X30749124Y-28969048D01*
X30747920Y-28944544D01*
X30747920Y-28119544D01*
X30749124Y-28095040D01*
X30752724Y-28070771D01*
X30758685Y-28046973D01*
X30766950Y-28023873D01*
X30777440Y-28001695D01*
X30790053Y-27980651D01*
X30804667Y-27960946D01*
X30821143Y-27942767D01*
X30839322Y-27926291D01*
X30859027Y-27911677D01*
X30880071Y-27899064D01*
X30902249Y-27888574D01*
X30925349Y-27880309D01*
X30949147Y-27874348D01*
X30973416Y-27870748D01*
X30997920Y-27869544D01*
X31797920Y-27869544D01*
X31822424Y-27870748D01*
X31822424Y-27870748D01*
G37*
D13*
X31397920Y-28532044D03*
G04 #@! TD*
D10*
G04 #@! TO.C,R1*
G36*
X38558505Y-38036204D02*
X38582773Y-38039804D01*
X38606572Y-38045765D01*
X38629671Y-38054030D01*
X38651850Y-38064520D01*
X38672893Y-38077132D01*
X38692599Y-38091747D01*
X38710777Y-38108223D01*
X38727253Y-38126401D01*
X38741868Y-38146107D01*
X38754480Y-38167150D01*
X38764970Y-38189329D01*
X38773235Y-38212428D01*
X38779196Y-38236227D01*
X38782796Y-38260495D01*
X38784000Y-38284999D01*
X38784000Y-39185001D01*
X38782796Y-39209505D01*
X38779196Y-39233773D01*
X38773235Y-39257572D01*
X38764970Y-39280671D01*
X38754480Y-39302850D01*
X38741868Y-39323893D01*
X38727253Y-39343599D01*
X38710777Y-39361777D01*
X38692599Y-39378253D01*
X38672893Y-39392868D01*
X38651850Y-39405480D01*
X38629671Y-39415970D01*
X38606572Y-39424235D01*
X38582773Y-39430196D01*
X38558505Y-39433796D01*
X38534001Y-39435000D01*
X37883999Y-39435000D01*
X37859495Y-39433796D01*
X37835227Y-39430196D01*
X37811428Y-39424235D01*
X37788329Y-39415970D01*
X37766150Y-39405480D01*
X37745107Y-39392868D01*
X37725401Y-39378253D01*
X37707223Y-39361777D01*
X37690747Y-39343599D01*
X37676132Y-39323893D01*
X37663520Y-39302850D01*
X37653030Y-39280671D01*
X37644765Y-39257572D01*
X37638804Y-39233773D01*
X37635204Y-39209505D01*
X37634000Y-39185001D01*
X37634000Y-38284999D01*
X37635204Y-38260495D01*
X37638804Y-38236227D01*
X37644765Y-38212428D01*
X37653030Y-38189329D01*
X37663520Y-38167150D01*
X37676132Y-38146107D01*
X37690747Y-38126401D01*
X37707223Y-38108223D01*
X37725401Y-38091747D01*
X37745107Y-38077132D01*
X37766150Y-38064520D01*
X37788329Y-38054030D01*
X37811428Y-38045765D01*
X37835227Y-38039804D01*
X37859495Y-38036204D01*
X37883999Y-38035000D01*
X38534001Y-38035000D01*
X38558505Y-38036204D01*
X38558505Y-38036204D01*
G37*
D11*
X38209000Y-38735000D03*
D10*
G36*
X40608505Y-38036204D02*
X40632773Y-38039804D01*
X40656572Y-38045765D01*
X40679671Y-38054030D01*
X40701850Y-38064520D01*
X40722893Y-38077132D01*
X40742599Y-38091747D01*
X40760777Y-38108223D01*
X40777253Y-38126401D01*
X40791868Y-38146107D01*
X40804480Y-38167150D01*
X40814970Y-38189329D01*
X40823235Y-38212428D01*
X40829196Y-38236227D01*
X40832796Y-38260495D01*
X40834000Y-38284999D01*
X40834000Y-39185001D01*
X40832796Y-39209505D01*
X40829196Y-39233773D01*
X40823235Y-39257572D01*
X40814970Y-39280671D01*
X40804480Y-39302850D01*
X40791868Y-39323893D01*
X40777253Y-39343599D01*
X40760777Y-39361777D01*
X40742599Y-39378253D01*
X40722893Y-39392868D01*
X40701850Y-39405480D01*
X40679671Y-39415970D01*
X40656572Y-39424235D01*
X40632773Y-39430196D01*
X40608505Y-39433796D01*
X40584001Y-39435000D01*
X39933999Y-39435000D01*
X39909495Y-39433796D01*
X39885227Y-39430196D01*
X39861428Y-39424235D01*
X39838329Y-39415970D01*
X39816150Y-39405480D01*
X39795107Y-39392868D01*
X39775401Y-39378253D01*
X39757223Y-39361777D01*
X39740747Y-39343599D01*
X39726132Y-39323893D01*
X39713520Y-39302850D01*
X39703030Y-39280671D01*
X39694765Y-39257572D01*
X39688804Y-39233773D01*
X39685204Y-39209505D01*
X39684000Y-39185001D01*
X39684000Y-38284999D01*
X39685204Y-38260495D01*
X39688804Y-38236227D01*
X39694765Y-38212428D01*
X39703030Y-38189329D01*
X39713520Y-38167150D01*
X39726132Y-38146107D01*
X39740747Y-38126401D01*
X39757223Y-38108223D01*
X39775401Y-38091747D01*
X39795107Y-38077132D01*
X39816150Y-38064520D01*
X39838329Y-38054030D01*
X39861428Y-38045765D01*
X39885227Y-38039804D01*
X39909495Y-38036204D01*
X39933999Y-38035000D01*
X40584001Y-38035000D01*
X40608505Y-38036204D01*
X40608505Y-38036204D01*
G37*
D11*
X40259000Y-38735000D03*
G04 #@! TD*
D10*
G04 #@! TO.C,R3*
G36*
X42885505Y-43116204D02*
X42909773Y-43119804D01*
X42933572Y-43125765D01*
X42956671Y-43134030D01*
X42978850Y-43144520D01*
X42999893Y-43157132D01*
X43019599Y-43171747D01*
X43037777Y-43188223D01*
X43054253Y-43206401D01*
X43068868Y-43226107D01*
X43081480Y-43247150D01*
X43091970Y-43269329D01*
X43100235Y-43292428D01*
X43106196Y-43316227D01*
X43109796Y-43340495D01*
X43111000Y-43364999D01*
X43111000Y-44265001D01*
X43109796Y-44289505D01*
X43106196Y-44313773D01*
X43100235Y-44337572D01*
X43091970Y-44360671D01*
X43081480Y-44382850D01*
X43068868Y-44403893D01*
X43054253Y-44423599D01*
X43037777Y-44441777D01*
X43019599Y-44458253D01*
X42999893Y-44472868D01*
X42978850Y-44485480D01*
X42956671Y-44495970D01*
X42933572Y-44504235D01*
X42909773Y-44510196D01*
X42885505Y-44513796D01*
X42861001Y-44515000D01*
X42210999Y-44515000D01*
X42186495Y-44513796D01*
X42162227Y-44510196D01*
X42138428Y-44504235D01*
X42115329Y-44495970D01*
X42093150Y-44485480D01*
X42072107Y-44472868D01*
X42052401Y-44458253D01*
X42034223Y-44441777D01*
X42017747Y-44423599D01*
X42003132Y-44403893D01*
X41990520Y-44382850D01*
X41980030Y-44360671D01*
X41971765Y-44337572D01*
X41965804Y-44313773D01*
X41962204Y-44289505D01*
X41961000Y-44265001D01*
X41961000Y-43364999D01*
X41962204Y-43340495D01*
X41965804Y-43316227D01*
X41971765Y-43292428D01*
X41980030Y-43269329D01*
X41990520Y-43247150D01*
X42003132Y-43226107D01*
X42017747Y-43206401D01*
X42034223Y-43188223D01*
X42052401Y-43171747D01*
X42072107Y-43157132D01*
X42093150Y-43144520D01*
X42115329Y-43134030D01*
X42138428Y-43125765D01*
X42162227Y-43119804D01*
X42186495Y-43116204D01*
X42210999Y-43115000D01*
X42861001Y-43115000D01*
X42885505Y-43116204D01*
X42885505Y-43116204D01*
G37*
D11*
X42536000Y-43815000D03*
D10*
G36*
X44935505Y-43116204D02*
X44959773Y-43119804D01*
X44983572Y-43125765D01*
X45006671Y-43134030D01*
X45028850Y-43144520D01*
X45049893Y-43157132D01*
X45069599Y-43171747D01*
X45087777Y-43188223D01*
X45104253Y-43206401D01*
X45118868Y-43226107D01*
X45131480Y-43247150D01*
X45141970Y-43269329D01*
X45150235Y-43292428D01*
X45156196Y-43316227D01*
X45159796Y-43340495D01*
X45161000Y-43364999D01*
X45161000Y-44265001D01*
X45159796Y-44289505D01*
X45156196Y-44313773D01*
X45150235Y-44337572D01*
X45141970Y-44360671D01*
X45131480Y-44382850D01*
X45118868Y-44403893D01*
X45104253Y-44423599D01*
X45087777Y-44441777D01*
X45069599Y-44458253D01*
X45049893Y-44472868D01*
X45028850Y-44485480D01*
X45006671Y-44495970D01*
X44983572Y-44504235D01*
X44959773Y-44510196D01*
X44935505Y-44513796D01*
X44911001Y-44515000D01*
X44260999Y-44515000D01*
X44236495Y-44513796D01*
X44212227Y-44510196D01*
X44188428Y-44504235D01*
X44165329Y-44495970D01*
X44143150Y-44485480D01*
X44122107Y-44472868D01*
X44102401Y-44458253D01*
X44084223Y-44441777D01*
X44067747Y-44423599D01*
X44053132Y-44403893D01*
X44040520Y-44382850D01*
X44030030Y-44360671D01*
X44021765Y-44337572D01*
X44015804Y-44313773D01*
X44012204Y-44289505D01*
X44011000Y-44265001D01*
X44011000Y-43364999D01*
X44012204Y-43340495D01*
X44015804Y-43316227D01*
X44021765Y-43292428D01*
X44030030Y-43269329D01*
X44040520Y-43247150D01*
X44053132Y-43226107D01*
X44067747Y-43206401D01*
X44084223Y-43188223D01*
X44102401Y-43171747D01*
X44122107Y-43157132D01*
X44143150Y-43144520D01*
X44165329Y-43134030D01*
X44188428Y-43125765D01*
X44212227Y-43119804D01*
X44236495Y-43116204D01*
X44260999Y-43115000D01*
X44911001Y-43115000D01*
X44935505Y-43116204D01*
X44935505Y-43116204D01*
G37*
D11*
X44586000Y-43815000D03*
G04 #@! TD*
D10*
G04 #@! TO.C,R4*
G36*
X43173905Y-40500004D02*
X43198173Y-40503604D01*
X43221972Y-40509565D01*
X43245071Y-40517830D01*
X43267250Y-40528320D01*
X43288293Y-40540932D01*
X43307999Y-40555547D01*
X43326177Y-40572023D01*
X43342653Y-40590201D01*
X43357268Y-40609907D01*
X43369880Y-40630950D01*
X43380370Y-40653129D01*
X43388635Y-40676228D01*
X43394596Y-40700027D01*
X43398196Y-40724295D01*
X43399400Y-40748799D01*
X43399400Y-41648801D01*
X43398196Y-41673305D01*
X43394596Y-41697573D01*
X43388635Y-41721372D01*
X43380370Y-41744471D01*
X43369880Y-41766650D01*
X43357268Y-41787693D01*
X43342653Y-41807399D01*
X43326177Y-41825577D01*
X43307999Y-41842053D01*
X43288293Y-41856668D01*
X43267250Y-41869280D01*
X43245071Y-41879770D01*
X43221972Y-41888035D01*
X43198173Y-41893996D01*
X43173905Y-41897596D01*
X43149401Y-41898800D01*
X42499399Y-41898800D01*
X42474895Y-41897596D01*
X42450627Y-41893996D01*
X42426828Y-41888035D01*
X42403729Y-41879770D01*
X42381550Y-41869280D01*
X42360507Y-41856668D01*
X42340801Y-41842053D01*
X42322623Y-41825577D01*
X42306147Y-41807399D01*
X42291532Y-41787693D01*
X42278920Y-41766650D01*
X42268430Y-41744471D01*
X42260165Y-41721372D01*
X42254204Y-41697573D01*
X42250604Y-41673305D01*
X42249400Y-41648801D01*
X42249400Y-40748799D01*
X42250604Y-40724295D01*
X42254204Y-40700027D01*
X42260165Y-40676228D01*
X42268430Y-40653129D01*
X42278920Y-40630950D01*
X42291532Y-40609907D01*
X42306147Y-40590201D01*
X42322623Y-40572023D01*
X42340801Y-40555547D01*
X42360507Y-40540932D01*
X42381550Y-40528320D01*
X42403729Y-40517830D01*
X42426828Y-40509565D01*
X42450627Y-40503604D01*
X42474895Y-40500004D01*
X42499399Y-40498800D01*
X43149401Y-40498800D01*
X43173905Y-40500004D01*
X43173905Y-40500004D01*
G37*
D11*
X42824400Y-41198800D03*
D10*
G36*
X41123905Y-40500004D02*
X41148173Y-40503604D01*
X41171972Y-40509565D01*
X41195071Y-40517830D01*
X41217250Y-40528320D01*
X41238293Y-40540932D01*
X41257999Y-40555547D01*
X41276177Y-40572023D01*
X41292653Y-40590201D01*
X41307268Y-40609907D01*
X41319880Y-40630950D01*
X41330370Y-40653129D01*
X41338635Y-40676228D01*
X41344596Y-40700027D01*
X41348196Y-40724295D01*
X41349400Y-40748799D01*
X41349400Y-41648801D01*
X41348196Y-41673305D01*
X41344596Y-41697573D01*
X41338635Y-41721372D01*
X41330370Y-41744471D01*
X41319880Y-41766650D01*
X41307268Y-41787693D01*
X41292653Y-41807399D01*
X41276177Y-41825577D01*
X41257999Y-41842053D01*
X41238293Y-41856668D01*
X41217250Y-41869280D01*
X41195071Y-41879770D01*
X41171972Y-41888035D01*
X41148173Y-41893996D01*
X41123905Y-41897596D01*
X41099401Y-41898800D01*
X40449399Y-41898800D01*
X40424895Y-41897596D01*
X40400627Y-41893996D01*
X40376828Y-41888035D01*
X40353729Y-41879770D01*
X40331550Y-41869280D01*
X40310507Y-41856668D01*
X40290801Y-41842053D01*
X40272623Y-41825577D01*
X40256147Y-41807399D01*
X40241532Y-41787693D01*
X40228920Y-41766650D01*
X40218430Y-41744471D01*
X40210165Y-41721372D01*
X40204204Y-41697573D01*
X40200604Y-41673305D01*
X40199400Y-41648801D01*
X40199400Y-40748799D01*
X40200604Y-40724295D01*
X40204204Y-40700027D01*
X40210165Y-40676228D01*
X40218430Y-40653129D01*
X40228920Y-40630950D01*
X40241532Y-40609907D01*
X40256147Y-40590201D01*
X40272623Y-40572023D01*
X40290801Y-40555547D01*
X40310507Y-40540932D01*
X40331550Y-40528320D01*
X40353729Y-40517830D01*
X40376828Y-40509565D01*
X40400627Y-40503604D01*
X40424895Y-40500004D01*
X40449399Y-40498800D01*
X41099401Y-40498800D01*
X41123905Y-40500004D01*
X41123905Y-40500004D01*
G37*
D11*
X40774400Y-41198800D03*
G04 #@! TD*
D10*
G04 #@! TO.C,R5*
G36*
X34564825Y-29945748D02*
X34589093Y-29949348D01*
X34612892Y-29955309D01*
X34635991Y-29963574D01*
X34658170Y-29974064D01*
X34679213Y-29986676D01*
X34698919Y-30001291D01*
X34717097Y-30017767D01*
X34733573Y-30035945D01*
X34748188Y-30055651D01*
X34760800Y-30076694D01*
X34771290Y-30098873D01*
X34779555Y-30121972D01*
X34785516Y-30145771D01*
X34789116Y-30170039D01*
X34790320Y-30194543D01*
X34790320Y-30844545D01*
X34789116Y-30869049D01*
X34785516Y-30893317D01*
X34779555Y-30917116D01*
X34771290Y-30940215D01*
X34760800Y-30962394D01*
X34748188Y-30983437D01*
X34733573Y-31003143D01*
X34717097Y-31021321D01*
X34698919Y-31037797D01*
X34679213Y-31052412D01*
X34658170Y-31065024D01*
X34635991Y-31075514D01*
X34612892Y-31083779D01*
X34589093Y-31089740D01*
X34564825Y-31093340D01*
X34540321Y-31094544D01*
X33640319Y-31094544D01*
X33615815Y-31093340D01*
X33591547Y-31089740D01*
X33567748Y-31083779D01*
X33544649Y-31075514D01*
X33522470Y-31065024D01*
X33501427Y-31052412D01*
X33481721Y-31037797D01*
X33463543Y-31021321D01*
X33447067Y-31003143D01*
X33432452Y-30983437D01*
X33419840Y-30962394D01*
X33409350Y-30940215D01*
X33401085Y-30917116D01*
X33395124Y-30893317D01*
X33391524Y-30869049D01*
X33390320Y-30844545D01*
X33390320Y-30194543D01*
X33391524Y-30170039D01*
X33395124Y-30145771D01*
X33401085Y-30121972D01*
X33409350Y-30098873D01*
X33419840Y-30076694D01*
X33432452Y-30055651D01*
X33447067Y-30035945D01*
X33463543Y-30017767D01*
X33481721Y-30001291D01*
X33501427Y-29986676D01*
X33522470Y-29974064D01*
X33544649Y-29963574D01*
X33567748Y-29955309D01*
X33591547Y-29949348D01*
X33615815Y-29945748D01*
X33640319Y-29944544D01*
X34540321Y-29944544D01*
X34564825Y-29945748D01*
X34564825Y-29945748D01*
G37*
D11*
X34090320Y-30519544D03*
D10*
G36*
X34564825Y-27895748D02*
X34589093Y-27899348D01*
X34612892Y-27905309D01*
X34635991Y-27913574D01*
X34658170Y-27924064D01*
X34679213Y-27936676D01*
X34698919Y-27951291D01*
X34717097Y-27967767D01*
X34733573Y-27985945D01*
X34748188Y-28005651D01*
X34760800Y-28026694D01*
X34771290Y-28048873D01*
X34779555Y-28071972D01*
X34785516Y-28095771D01*
X34789116Y-28120039D01*
X34790320Y-28144543D01*
X34790320Y-28794545D01*
X34789116Y-28819049D01*
X34785516Y-28843317D01*
X34779555Y-28867116D01*
X34771290Y-28890215D01*
X34760800Y-28912394D01*
X34748188Y-28933437D01*
X34733573Y-28953143D01*
X34717097Y-28971321D01*
X34698919Y-28987797D01*
X34679213Y-29002412D01*
X34658170Y-29015024D01*
X34635991Y-29025514D01*
X34612892Y-29033779D01*
X34589093Y-29039740D01*
X34564825Y-29043340D01*
X34540321Y-29044544D01*
X33640319Y-29044544D01*
X33615815Y-29043340D01*
X33591547Y-29039740D01*
X33567748Y-29033779D01*
X33544649Y-29025514D01*
X33522470Y-29015024D01*
X33501427Y-29002412D01*
X33481721Y-28987797D01*
X33463543Y-28971321D01*
X33447067Y-28953143D01*
X33432452Y-28933437D01*
X33419840Y-28912394D01*
X33409350Y-28890215D01*
X33401085Y-28867116D01*
X33395124Y-28843317D01*
X33391524Y-28819049D01*
X33390320Y-28794545D01*
X33390320Y-28144543D01*
X33391524Y-28120039D01*
X33395124Y-28095771D01*
X33401085Y-28071972D01*
X33409350Y-28048873D01*
X33419840Y-28026694D01*
X33432452Y-28005651D01*
X33447067Y-27985945D01*
X33463543Y-27967767D01*
X33481721Y-27951291D01*
X33501427Y-27936676D01*
X33522470Y-27924064D01*
X33544649Y-27913574D01*
X33567748Y-27905309D01*
X33591547Y-27899348D01*
X33615815Y-27895748D01*
X33640319Y-27894544D01*
X34540321Y-27894544D01*
X34564825Y-27895748D01*
X34564825Y-27895748D01*
G37*
D11*
X34090320Y-28469544D03*
G04 #@! TD*
M02*
