G04 #@! TF.GenerationSoftware,KiCad,Pcbnew,5.0.0-fee4fd1~66~ubuntu18.04.1*
G04 #@! TF.CreationDate,2018-10-10T23:42:05+08:00*
G04 #@! TF.ProjectId,Solid State Relay Kit,536F6C69642053746174652052656C61,rev?*
G04 #@! TF.SameCoordinates,Original*
G04 #@! TF.FileFunction,Copper,L1,Top,Signal*
G04 #@! TF.FilePolarity,Positive*
%FSLAX46Y46*%
G04 Gerber Fmt 4.6, Leading zero omitted, Abs format (unit mm)*
G04 Created by KiCad (PCBNEW 5.0.0-fee4fd1~66~ubuntu18.04.1) date Wed Oct 10 23:42:05 2018*
%MOMM*%
%LPD*%
G01*
G04 APERTURE LIST*
G04 #@! TA.AperFunction,ComponentPad*
%ADD10C,2.000000*%
G04 #@! TD*
G04 #@! TA.AperFunction,Conductor*
%ADD11C,0.100000*%
G04 #@! TD*
G04 #@! TA.AperFunction,SMDPad,CuDef*
%ADD12C,1.150000*%
G04 #@! TD*
G04 #@! TA.AperFunction,SMDPad,CuDef*
%ADD13R,1.600000X2.600000*%
G04 #@! TD*
G04 #@! TA.AperFunction,ComponentPad*
%ADD14O,3.000000X1.800000*%
G04 #@! TD*
G04 #@! TA.AperFunction,ComponentPad*
%ADD15R,3.000000X1.800000*%
G04 #@! TD*
G04 #@! TA.AperFunction,ComponentPad*
%ADD16R,1.700000X1.700000*%
G04 #@! TD*
G04 #@! TA.AperFunction,ComponentPad*
%ADD17O,1.700000X1.700000*%
G04 #@! TD*
G04 #@! TA.AperFunction,SMDPad,CuDef*
%ADD18C,1.300000*%
G04 #@! TD*
G04 #@! TA.AperFunction,SMDPad,CuDef*
%ADD19R,0.650000X2.000000*%
G04 #@! TD*
G04 #@! TA.AperFunction,ComponentPad*
%ADD20C,2.500000*%
G04 #@! TD*
G04 #@! TA.AperFunction,ViaPad*
%ADD21C,1.000000*%
G04 #@! TD*
G04 #@! TA.AperFunction,ViaPad*
%ADD22C,0.800000*%
G04 #@! TD*
G04 #@! TA.AperFunction,Conductor*
%ADD23C,0.750000*%
G04 #@! TD*
G04 #@! TA.AperFunction,Conductor*
%ADD24C,0.300000*%
G04 #@! TD*
G04 #@! TA.AperFunction,Conductor*
%ADD25C,0.500000*%
G04 #@! TD*
G04 APERTURE END LIST*
D10*
G04 #@! TO.P,SSR1,1*
G04 #@! TO.N,/SSR_CONTROL1*
X39370000Y-50897801D03*
G04 #@! TD*
G04 #@! TO.P,SSR2,1*
G04 #@! TO.N,/SSR_CONTROL2*
X44450000Y-50800000D03*
G04 #@! TD*
G04 #@! TO.P,5V1,1*
G04 #@! TO.N,+5V*
X49530000Y-50800000D03*
G04 #@! TD*
G04 #@! TO.P,GND1,1*
G04 #@! TO.N,GND*
X54610000Y-50800000D03*
G04 #@! TD*
D11*
G04 #@! TO.N,GND*
G04 #@! TO.C,R2*
G36*
X38558910Y-35496202D02*
X38583135Y-35499795D01*
X38606891Y-35505746D01*
X38629949Y-35513996D01*
X38652087Y-35524467D01*
X38673093Y-35537057D01*
X38692763Y-35551645D01*
X38710908Y-35568092D01*
X38727355Y-35586237D01*
X38741943Y-35605907D01*
X38754533Y-35626913D01*
X38765004Y-35649051D01*
X38773254Y-35672109D01*
X38779205Y-35695865D01*
X38782798Y-35720090D01*
X38784000Y-35744550D01*
X38784000Y-36645450D01*
X38782798Y-36669910D01*
X38779205Y-36694135D01*
X38773254Y-36717891D01*
X38765004Y-36740949D01*
X38754533Y-36763087D01*
X38741943Y-36784093D01*
X38727355Y-36803763D01*
X38710908Y-36821908D01*
X38692763Y-36838355D01*
X38673093Y-36852943D01*
X38652087Y-36865533D01*
X38629949Y-36876004D01*
X38606891Y-36884254D01*
X38583135Y-36890205D01*
X38558910Y-36893798D01*
X38534450Y-36895000D01*
X37883550Y-36895000D01*
X37859090Y-36893798D01*
X37834865Y-36890205D01*
X37811109Y-36884254D01*
X37788051Y-36876004D01*
X37765913Y-36865533D01*
X37744907Y-36852943D01*
X37725237Y-36838355D01*
X37707092Y-36821908D01*
X37690645Y-36803763D01*
X37676057Y-36784093D01*
X37663467Y-36763087D01*
X37652996Y-36740949D01*
X37644746Y-36717891D01*
X37638795Y-36694135D01*
X37635202Y-36669910D01*
X37634000Y-36645450D01*
X37634000Y-35744550D01*
X37635202Y-35720090D01*
X37638795Y-35695865D01*
X37644746Y-35672109D01*
X37652996Y-35649051D01*
X37663467Y-35626913D01*
X37676057Y-35605907D01*
X37690645Y-35586237D01*
X37707092Y-35568092D01*
X37725237Y-35551645D01*
X37744907Y-35537057D01*
X37765913Y-35524467D01*
X37788051Y-35513996D01*
X37811109Y-35505746D01*
X37834865Y-35499795D01*
X37859090Y-35496202D01*
X37883550Y-35495000D01*
X38534450Y-35495000D01*
X38558910Y-35496202D01*
X38558910Y-35496202D01*
G37*
D12*
G04 #@! TD*
G04 #@! TO.P,R2,2*
G04 #@! TO.N,GND*
X38209000Y-36195000D03*
D11*
G04 #@! TO.N,Net-(Q1-Pad2)*
G04 #@! TO.C,R2*
G36*
X40608505Y-35496204D02*
X40632773Y-35499804D01*
X40656572Y-35505765D01*
X40679671Y-35514030D01*
X40701850Y-35524520D01*
X40722893Y-35537132D01*
X40742599Y-35551747D01*
X40760777Y-35568223D01*
X40777253Y-35586401D01*
X40791868Y-35606107D01*
X40804480Y-35627150D01*
X40814970Y-35649329D01*
X40823235Y-35672428D01*
X40829196Y-35696227D01*
X40832796Y-35720495D01*
X40834000Y-35744999D01*
X40834000Y-36645001D01*
X40832796Y-36669505D01*
X40829196Y-36693773D01*
X40823235Y-36717572D01*
X40814970Y-36740671D01*
X40804480Y-36762850D01*
X40791868Y-36783893D01*
X40777253Y-36803599D01*
X40760777Y-36821777D01*
X40742599Y-36838253D01*
X40722893Y-36852868D01*
X40701850Y-36865480D01*
X40679671Y-36875970D01*
X40656572Y-36884235D01*
X40632773Y-36890196D01*
X40608505Y-36893796D01*
X40584001Y-36895000D01*
X39933999Y-36895000D01*
X39909495Y-36893796D01*
X39885227Y-36890196D01*
X39861428Y-36884235D01*
X39838329Y-36875970D01*
X39816150Y-36865480D01*
X39795107Y-36852868D01*
X39775401Y-36838253D01*
X39757223Y-36821777D01*
X39740747Y-36803599D01*
X39726132Y-36783893D01*
X39713520Y-36762850D01*
X39703030Y-36740671D01*
X39694765Y-36717572D01*
X39688804Y-36693773D01*
X39685204Y-36669505D01*
X39684000Y-36645001D01*
X39684000Y-35744999D01*
X39685204Y-35720495D01*
X39688804Y-35696227D01*
X39694765Y-35672428D01*
X39703030Y-35649329D01*
X39713520Y-35627150D01*
X39726132Y-35606107D01*
X39740747Y-35586401D01*
X39757223Y-35568223D01*
X39775401Y-35551747D01*
X39795107Y-35537132D01*
X39816150Y-35524520D01*
X39838329Y-35514030D01*
X39861428Y-35505765D01*
X39885227Y-35499804D01*
X39909495Y-35496204D01*
X39933999Y-35495000D01*
X40584001Y-35495000D01*
X40608505Y-35496204D01*
X40608505Y-35496204D01*
G37*
D12*
G04 #@! TD*
G04 #@! TO.P,R2,1*
G04 #@! TO.N,Net-(Q1-Pad2)*
X40259000Y-36195000D03*
D13*
G04 #@! TO.P,C1,1*
G04 #@! TO.N,+5V*
X36601400Y-41735600D03*
G04 #@! TO.P,C1,2*
G04 #@! TO.N,GND*
X36601400Y-45335600D03*
G04 #@! TD*
D14*
G04 #@! TO.P,J2,4*
G04 #@! TO.N,/SSR2_OUT1*
X67310000Y-43180000D03*
D15*
G04 #@! TO.P,J2,1*
G04 #@! TO.N,/SSR1_OUT2*
X67310000Y-35560000D03*
D14*
G04 #@! TO.P,J2,2*
G04 #@! TO.N,/SSR1_OUT1*
X67310000Y-38100000D03*
G04 #@! TO.P,J2,3*
G04 #@! TO.N,/SSR2_OUT2*
X67310000Y-40640000D03*
G04 #@! TD*
D16*
G04 #@! TO.P,J1,1*
G04 #@! TO.N,GND*
X32004000Y-42962400D03*
D17*
G04 #@! TO.P,J1,2*
G04 #@! TO.N,+5V*
X32004000Y-40422400D03*
G04 #@! TO.P,J1,3*
G04 #@! TO.N,/SSR_CONTROL1*
X32004000Y-37882400D03*
G04 #@! TO.P,J1,4*
G04 #@! TO.N,/SSR_CONTROL2*
X32004000Y-35342400D03*
G04 #@! TD*
D11*
G04 #@! TO.N,+5V*
G04 #@! TO.C,D3*
G36*
X49279504Y-45706204D02*
X49303773Y-45709804D01*
X49327571Y-45715765D01*
X49350671Y-45724030D01*
X49372849Y-45734520D01*
X49393893Y-45747133D01*
X49413598Y-45761747D01*
X49431777Y-45778223D01*
X49448253Y-45796402D01*
X49462867Y-45816107D01*
X49475480Y-45837151D01*
X49485970Y-45859329D01*
X49494235Y-45882429D01*
X49500196Y-45906227D01*
X49503796Y-45930496D01*
X49505000Y-45955000D01*
X49505000Y-46755000D01*
X49503796Y-46779504D01*
X49500196Y-46803773D01*
X49494235Y-46827571D01*
X49485970Y-46850671D01*
X49475480Y-46872849D01*
X49462867Y-46893893D01*
X49448253Y-46913598D01*
X49431777Y-46931777D01*
X49413598Y-46948253D01*
X49393893Y-46962867D01*
X49372849Y-46975480D01*
X49350671Y-46985970D01*
X49327571Y-46994235D01*
X49303773Y-47000196D01*
X49279504Y-47003796D01*
X49255000Y-47005000D01*
X48430000Y-47005000D01*
X48405496Y-47003796D01*
X48381227Y-47000196D01*
X48357429Y-46994235D01*
X48334329Y-46985970D01*
X48312151Y-46975480D01*
X48291107Y-46962867D01*
X48271402Y-46948253D01*
X48253223Y-46931777D01*
X48236747Y-46913598D01*
X48222133Y-46893893D01*
X48209520Y-46872849D01*
X48199030Y-46850671D01*
X48190765Y-46827571D01*
X48184804Y-46803773D01*
X48181204Y-46779504D01*
X48180000Y-46755000D01*
X48180000Y-45955000D01*
X48181204Y-45930496D01*
X48184804Y-45906227D01*
X48190765Y-45882429D01*
X48199030Y-45859329D01*
X48209520Y-45837151D01*
X48222133Y-45816107D01*
X48236747Y-45796402D01*
X48253223Y-45778223D01*
X48271402Y-45761747D01*
X48291107Y-45747133D01*
X48312151Y-45734520D01*
X48334329Y-45724030D01*
X48357429Y-45715765D01*
X48381227Y-45709804D01*
X48405496Y-45706204D01*
X48430000Y-45705000D01*
X49255000Y-45705000D01*
X49279504Y-45706204D01*
X49279504Y-45706204D01*
G37*
D18*
G04 #@! TD*
G04 #@! TO.P,D3,2*
G04 #@! TO.N,+5V*
X48842500Y-46355000D03*
D11*
G04 #@! TO.N,Net-(D3-Pad1)*
G04 #@! TO.C,D3*
G36*
X51204504Y-45706204D02*
X51228773Y-45709804D01*
X51252571Y-45715765D01*
X51275671Y-45724030D01*
X51297849Y-45734520D01*
X51318893Y-45747133D01*
X51338598Y-45761747D01*
X51356777Y-45778223D01*
X51373253Y-45796402D01*
X51387867Y-45816107D01*
X51400480Y-45837151D01*
X51410970Y-45859329D01*
X51419235Y-45882429D01*
X51425196Y-45906227D01*
X51428796Y-45930496D01*
X51430000Y-45955000D01*
X51430000Y-46755000D01*
X51428796Y-46779504D01*
X51425196Y-46803773D01*
X51419235Y-46827571D01*
X51410970Y-46850671D01*
X51400480Y-46872849D01*
X51387867Y-46893893D01*
X51373253Y-46913598D01*
X51356777Y-46931777D01*
X51338598Y-46948253D01*
X51318893Y-46962867D01*
X51297849Y-46975480D01*
X51275671Y-46985970D01*
X51252571Y-46994235D01*
X51228773Y-47000196D01*
X51204504Y-47003796D01*
X51180000Y-47005000D01*
X50355000Y-47005000D01*
X50330496Y-47003796D01*
X50306227Y-47000196D01*
X50282429Y-46994235D01*
X50259329Y-46985970D01*
X50237151Y-46975480D01*
X50216107Y-46962867D01*
X50196402Y-46948253D01*
X50178223Y-46931777D01*
X50161747Y-46913598D01*
X50147133Y-46893893D01*
X50134520Y-46872849D01*
X50124030Y-46850671D01*
X50115765Y-46827571D01*
X50109804Y-46803773D01*
X50106204Y-46779504D01*
X50105000Y-46755000D01*
X50105000Y-45955000D01*
X50106204Y-45930496D01*
X50109804Y-45906227D01*
X50115765Y-45882429D01*
X50124030Y-45859329D01*
X50134520Y-45837151D01*
X50147133Y-45816107D01*
X50161747Y-45796402D01*
X50178223Y-45778223D01*
X50196402Y-45761747D01*
X50216107Y-45747133D01*
X50237151Y-45734520D01*
X50259329Y-45724030D01*
X50282429Y-45715765D01*
X50306227Y-45709804D01*
X50330496Y-45706204D01*
X50355000Y-45705000D01*
X51180000Y-45705000D01*
X51204504Y-45706204D01*
X51204504Y-45706204D01*
G37*
D18*
G04 #@! TD*
G04 #@! TO.P,D3,1*
G04 #@! TO.N,Net-(D3-Pad1)*
X50767500Y-46355000D03*
D19*
G04 #@! TO.P,Q2,1*
G04 #@! TO.N,GND*
X56195000Y-35120000D03*
G04 #@! TO.P,Q2,2*
G04 #@! TO.N,Net-(Q2-Pad2)*
X54295000Y-35120000D03*
G04 #@! TO.P,Q2,3*
G04 #@! TO.N,/SSR2_IN1*
X55245000Y-38540000D03*
G04 #@! TD*
D11*
G04 #@! TO.N,/SSR2_IN2*
G04 #@! TO.C,R9*
G36*
X51149505Y-40576204D02*
X51173773Y-40579804D01*
X51197572Y-40585765D01*
X51220671Y-40594030D01*
X51242850Y-40604520D01*
X51263893Y-40617132D01*
X51283599Y-40631747D01*
X51301777Y-40648223D01*
X51318253Y-40666401D01*
X51332868Y-40686107D01*
X51345480Y-40707150D01*
X51355970Y-40729329D01*
X51364235Y-40752428D01*
X51370196Y-40776227D01*
X51373796Y-40800495D01*
X51375000Y-40824999D01*
X51375000Y-41725001D01*
X51373796Y-41749505D01*
X51370196Y-41773773D01*
X51364235Y-41797572D01*
X51355970Y-41820671D01*
X51345480Y-41842850D01*
X51332868Y-41863893D01*
X51318253Y-41883599D01*
X51301777Y-41901777D01*
X51283599Y-41918253D01*
X51263893Y-41932868D01*
X51242850Y-41945480D01*
X51220671Y-41955970D01*
X51197572Y-41964235D01*
X51173773Y-41970196D01*
X51149505Y-41973796D01*
X51125001Y-41975000D01*
X50474999Y-41975000D01*
X50450495Y-41973796D01*
X50426227Y-41970196D01*
X50402428Y-41964235D01*
X50379329Y-41955970D01*
X50357150Y-41945480D01*
X50336107Y-41932868D01*
X50316401Y-41918253D01*
X50298223Y-41901777D01*
X50281747Y-41883599D01*
X50267132Y-41863893D01*
X50254520Y-41842850D01*
X50244030Y-41820671D01*
X50235765Y-41797572D01*
X50229804Y-41773773D01*
X50226204Y-41749505D01*
X50225000Y-41725001D01*
X50225000Y-40824999D01*
X50226204Y-40800495D01*
X50229804Y-40776227D01*
X50235765Y-40752428D01*
X50244030Y-40729329D01*
X50254520Y-40707150D01*
X50267132Y-40686107D01*
X50281747Y-40666401D01*
X50298223Y-40648223D01*
X50316401Y-40631747D01*
X50336107Y-40617132D01*
X50357150Y-40604520D01*
X50379329Y-40594030D01*
X50402428Y-40585765D01*
X50426227Y-40579804D01*
X50450495Y-40576204D01*
X50474999Y-40575000D01*
X51125001Y-40575000D01*
X51149505Y-40576204D01*
X51149505Y-40576204D01*
G37*
D12*
G04 #@! TD*
G04 #@! TO.P,R9,2*
G04 #@! TO.N,/SSR2_IN2*
X50800000Y-41275000D03*
D11*
G04 #@! TO.N,+5V*
G04 #@! TO.C,R9*
G36*
X49099505Y-40576204D02*
X49123773Y-40579804D01*
X49147572Y-40585765D01*
X49170671Y-40594030D01*
X49192850Y-40604520D01*
X49213893Y-40617132D01*
X49233599Y-40631747D01*
X49251777Y-40648223D01*
X49268253Y-40666401D01*
X49282868Y-40686107D01*
X49295480Y-40707150D01*
X49305970Y-40729329D01*
X49314235Y-40752428D01*
X49320196Y-40776227D01*
X49323796Y-40800495D01*
X49325000Y-40824999D01*
X49325000Y-41725001D01*
X49323796Y-41749505D01*
X49320196Y-41773773D01*
X49314235Y-41797572D01*
X49305970Y-41820671D01*
X49295480Y-41842850D01*
X49282868Y-41863893D01*
X49268253Y-41883599D01*
X49251777Y-41901777D01*
X49233599Y-41918253D01*
X49213893Y-41932868D01*
X49192850Y-41945480D01*
X49170671Y-41955970D01*
X49147572Y-41964235D01*
X49123773Y-41970196D01*
X49099505Y-41973796D01*
X49075001Y-41975000D01*
X48424999Y-41975000D01*
X48400495Y-41973796D01*
X48376227Y-41970196D01*
X48352428Y-41964235D01*
X48329329Y-41955970D01*
X48307150Y-41945480D01*
X48286107Y-41932868D01*
X48266401Y-41918253D01*
X48248223Y-41901777D01*
X48231747Y-41883599D01*
X48217132Y-41863893D01*
X48204520Y-41842850D01*
X48194030Y-41820671D01*
X48185765Y-41797572D01*
X48179804Y-41773773D01*
X48176204Y-41749505D01*
X48175000Y-41725001D01*
X48175000Y-40824999D01*
X48176204Y-40800495D01*
X48179804Y-40776227D01*
X48185765Y-40752428D01*
X48194030Y-40729329D01*
X48204520Y-40707150D01*
X48217132Y-40686107D01*
X48231747Y-40666401D01*
X48248223Y-40648223D01*
X48266401Y-40631747D01*
X48286107Y-40617132D01*
X48307150Y-40604520D01*
X48329329Y-40594030D01*
X48352428Y-40585765D01*
X48376227Y-40579804D01*
X48400495Y-40576204D01*
X48424999Y-40575000D01*
X49075001Y-40575000D01*
X49099505Y-40576204D01*
X49099505Y-40576204D01*
G37*
D12*
G04 #@! TD*
G04 #@! TO.P,R9,1*
G04 #@! TO.N,+5V*
X48750000Y-41275000D03*
D11*
G04 #@! TO.N,/SSR2_IN1*
G04 #@! TO.C,R8*
G36*
X49099505Y-43497204D02*
X49123773Y-43500804D01*
X49147572Y-43506765D01*
X49170671Y-43515030D01*
X49192850Y-43525520D01*
X49213893Y-43538132D01*
X49233599Y-43552747D01*
X49251777Y-43569223D01*
X49268253Y-43587401D01*
X49282868Y-43607107D01*
X49295480Y-43628150D01*
X49305970Y-43650329D01*
X49314235Y-43673428D01*
X49320196Y-43697227D01*
X49323796Y-43721495D01*
X49325000Y-43745999D01*
X49325000Y-44646001D01*
X49323796Y-44670505D01*
X49320196Y-44694773D01*
X49314235Y-44718572D01*
X49305970Y-44741671D01*
X49295480Y-44763850D01*
X49282868Y-44784893D01*
X49268253Y-44804599D01*
X49251777Y-44822777D01*
X49233599Y-44839253D01*
X49213893Y-44853868D01*
X49192850Y-44866480D01*
X49170671Y-44876970D01*
X49147572Y-44885235D01*
X49123773Y-44891196D01*
X49099505Y-44894796D01*
X49075001Y-44896000D01*
X48424999Y-44896000D01*
X48400495Y-44894796D01*
X48376227Y-44891196D01*
X48352428Y-44885235D01*
X48329329Y-44876970D01*
X48307150Y-44866480D01*
X48286107Y-44853868D01*
X48266401Y-44839253D01*
X48248223Y-44822777D01*
X48231747Y-44804599D01*
X48217132Y-44784893D01*
X48204520Y-44763850D01*
X48194030Y-44741671D01*
X48185765Y-44718572D01*
X48179804Y-44694773D01*
X48176204Y-44670505D01*
X48175000Y-44646001D01*
X48175000Y-43745999D01*
X48176204Y-43721495D01*
X48179804Y-43697227D01*
X48185765Y-43673428D01*
X48194030Y-43650329D01*
X48204520Y-43628150D01*
X48217132Y-43607107D01*
X48231747Y-43587401D01*
X48248223Y-43569223D01*
X48266401Y-43552747D01*
X48286107Y-43538132D01*
X48307150Y-43525520D01*
X48329329Y-43515030D01*
X48352428Y-43506765D01*
X48376227Y-43500804D01*
X48400495Y-43497204D01*
X48424999Y-43496000D01*
X49075001Y-43496000D01*
X49099505Y-43497204D01*
X49099505Y-43497204D01*
G37*
D12*
G04 #@! TD*
G04 #@! TO.P,R8,2*
G04 #@! TO.N,/SSR2_IN1*
X48750000Y-44196000D03*
D11*
G04 #@! TO.N,Net-(D3-Pad1)*
G04 #@! TO.C,R8*
G36*
X51149505Y-43497204D02*
X51173773Y-43500804D01*
X51197572Y-43506765D01*
X51220671Y-43515030D01*
X51242850Y-43525520D01*
X51263893Y-43538132D01*
X51283599Y-43552747D01*
X51301777Y-43569223D01*
X51318253Y-43587401D01*
X51332868Y-43607107D01*
X51345480Y-43628150D01*
X51355970Y-43650329D01*
X51364235Y-43673428D01*
X51370196Y-43697227D01*
X51373796Y-43721495D01*
X51375000Y-43745999D01*
X51375000Y-44646001D01*
X51373796Y-44670505D01*
X51370196Y-44694773D01*
X51364235Y-44718572D01*
X51355970Y-44741671D01*
X51345480Y-44763850D01*
X51332868Y-44784893D01*
X51318253Y-44804599D01*
X51301777Y-44822777D01*
X51283599Y-44839253D01*
X51263893Y-44853868D01*
X51242850Y-44866480D01*
X51220671Y-44876970D01*
X51197572Y-44885235D01*
X51173773Y-44891196D01*
X51149505Y-44894796D01*
X51125001Y-44896000D01*
X50474999Y-44896000D01*
X50450495Y-44894796D01*
X50426227Y-44891196D01*
X50402428Y-44885235D01*
X50379329Y-44876970D01*
X50357150Y-44866480D01*
X50336107Y-44853868D01*
X50316401Y-44839253D01*
X50298223Y-44822777D01*
X50281747Y-44804599D01*
X50267132Y-44784893D01*
X50254520Y-44763850D01*
X50244030Y-44741671D01*
X50235765Y-44718572D01*
X50229804Y-44694773D01*
X50226204Y-44670505D01*
X50225000Y-44646001D01*
X50225000Y-43745999D01*
X50226204Y-43721495D01*
X50229804Y-43697227D01*
X50235765Y-43673428D01*
X50244030Y-43650329D01*
X50254520Y-43628150D01*
X50267132Y-43607107D01*
X50281747Y-43587401D01*
X50298223Y-43569223D01*
X50316401Y-43552747D01*
X50336107Y-43538132D01*
X50357150Y-43525520D01*
X50379329Y-43515030D01*
X50402428Y-43506765D01*
X50426227Y-43500804D01*
X50450495Y-43497204D01*
X50474999Y-43496000D01*
X51125001Y-43496000D01*
X51149505Y-43497204D01*
X51149505Y-43497204D01*
G37*
D12*
G04 #@! TD*
G04 #@! TO.P,R8,1*
G04 #@! TO.N,Net-(D3-Pad1)*
X50800000Y-44196000D03*
D11*
G04 #@! TO.N,GND*
G04 #@! TO.C,R7*
G36*
X51149505Y-35242204D02*
X51173773Y-35245804D01*
X51197572Y-35251765D01*
X51220671Y-35260030D01*
X51242850Y-35270520D01*
X51263893Y-35283132D01*
X51283599Y-35297747D01*
X51301777Y-35314223D01*
X51318253Y-35332401D01*
X51332868Y-35352107D01*
X51345480Y-35373150D01*
X51355970Y-35395329D01*
X51364235Y-35418428D01*
X51370196Y-35442227D01*
X51373796Y-35466495D01*
X51375000Y-35490999D01*
X51375000Y-36391001D01*
X51373796Y-36415505D01*
X51370196Y-36439773D01*
X51364235Y-36463572D01*
X51355970Y-36486671D01*
X51345480Y-36508850D01*
X51332868Y-36529893D01*
X51318253Y-36549599D01*
X51301777Y-36567777D01*
X51283599Y-36584253D01*
X51263893Y-36598868D01*
X51242850Y-36611480D01*
X51220671Y-36621970D01*
X51197572Y-36630235D01*
X51173773Y-36636196D01*
X51149505Y-36639796D01*
X51125001Y-36641000D01*
X50474999Y-36641000D01*
X50450495Y-36639796D01*
X50426227Y-36636196D01*
X50402428Y-36630235D01*
X50379329Y-36621970D01*
X50357150Y-36611480D01*
X50336107Y-36598868D01*
X50316401Y-36584253D01*
X50298223Y-36567777D01*
X50281747Y-36549599D01*
X50267132Y-36529893D01*
X50254520Y-36508850D01*
X50244030Y-36486671D01*
X50235765Y-36463572D01*
X50229804Y-36439773D01*
X50226204Y-36415505D01*
X50225000Y-36391001D01*
X50225000Y-35490999D01*
X50226204Y-35466495D01*
X50229804Y-35442227D01*
X50235765Y-35418428D01*
X50244030Y-35395329D01*
X50254520Y-35373150D01*
X50267132Y-35352107D01*
X50281747Y-35332401D01*
X50298223Y-35314223D01*
X50316401Y-35297747D01*
X50336107Y-35283132D01*
X50357150Y-35270520D01*
X50379329Y-35260030D01*
X50402428Y-35251765D01*
X50426227Y-35245804D01*
X50450495Y-35242204D01*
X50474999Y-35241000D01*
X51125001Y-35241000D01*
X51149505Y-35242204D01*
X51149505Y-35242204D01*
G37*
D12*
G04 #@! TD*
G04 #@! TO.P,R7,2*
G04 #@! TO.N,GND*
X50800000Y-35941000D03*
D11*
G04 #@! TO.N,Net-(Q2-Pad2)*
G04 #@! TO.C,R7*
G36*
X49099505Y-35242204D02*
X49123773Y-35245804D01*
X49147572Y-35251765D01*
X49170671Y-35260030D01*
X49192850Y-35270520D01*
X49213893Y-35283132D01*
X49233599Y-35297747D01*
X49251777Y-35314223D01*
X49268253Y-35332401D01*
X49282868Y-35352107D01*
X49295480Y-35373150D01*
X49305970Y-35395329D01*
X49314235Y-35418428D01*
X49320196Y-35442227D01*
X49323796Y-35466495D01*
X49325000Y-35490999D01*
X49325000Y-36391001D01*
X49323796Y-36415505D01*
X49320196Y-36439773D01*
X49314235Y-36463572D01*
X49305970Y-36486671D01*
X49295480Y-36508850D01*
X49282868Y-36529893D01*
X49268253Y-36549599D01*
X49251777Y-36567777D01*
X49233599Y-36584253D01*
X49213893Y-36598868D01*
X49192850Y-36611480D01*
X49170671Y-36621970D01*
X49147572Y-36630235D01*
X49123773Y-36636196D01*
X49099505Y-36639796D01*
X49075001Y-36641000D01*
X48424999Y-36641000D01*
X48400495Y-36639796D01*
X48376227Y-36636196D01*
X48352428Y-36630235D01*
X48329329Y-36621970D01*
X48307150Y-36611480D01*
X48286107Y-36598868D01*
X48266401Y-36584253D01*
X48248223Y-36567777D01*
X48231747Y-36549599D01*
X48217132Y-36529893D01*
X48204520Y-36508850D01*
X48194030Y-36486671D01*
X48185765Y-36463572D01*
X48179804Y-36439773D01*
X48176204Y-36415505D01*
X48175000Y-36391001D01*
X48175000Y-35490999D01*
X48176204Y-35466495D01*
X48179804Y-35442227D01*
X48185765Y-35418428D01*
X48194030Y-35395329D01*
X48204520Y-35373150D01*
X48217132Y-35352107D01*
X48231747Y-35332401D01*
X48248223Y-35314223D01*
X48266401Y-35297747D01*
X48286107Y-35283132D01*
X48307150Y-35270520D01*
X48329329Y-35260030D01*
X48352428Y-35251765D01*
X48376227Y-35245804D01*
X48400495Y-35242204D01*
X48424999Y-35241000D01*
X49075001Y-35241000D01*
X49099505Y-35242204D01*
X49099505Y-35242204D01*
G37*
D12*
G04 #@! TD*
G04 #@! TO.P,R7,1*
G04 #@! TO.N,Net-(Q2-Pad2)*
X48750000Y-35941000D03*
D11*
G04 #@! TO.N,Net-(Q2-Pad2)*
G04 #@! TO.C,R6*
G36*
X51149505Y-37909204D02*
X51173773Y-37912804D01*
X51197572Y-37918765D01*
X51220671Y-37927030D01*
X51242850Y-37937520D01*
X51263893Y-37950132D01*
X51283599Y-37964747D01*
X51301777Y-37981223D01*
X51318253Y-37999401D01*
X51332868Y-38019107D01*
X51345480Y-38040150D01*
X51355970Y-38062329D01*
X51364235Y-38085428D01*
X51370196Y-38109227D01*
X51373796Y-38133495D01*
X51375000Y-38157999D01*
X51375000Y-39058001D01*
X51373796Y-39082505D01*
X51370196Y-39106773D01*
X51364235Y-39130572D01*
X51355970Y-39153671D01*
X51345480Y-39175850D01*
X51332868Y-39196893D01*
X51318253Y-39216599D01*
X51301777Y-39234777D01*
X51283599Y-39251253D01*
X51263893Y-39265868D01*
X51242850Y-39278480D01*
X51220671Y-39288970D01*
X51197572Y-39297235D01*
X51173773Y-39303196D01*
X51149505Y-39306796D01*
X51125001Y-39308000D01*
X50474999Y-39308000D01*
X50450495Y-39306796D01*
X50426227Y-39303196D01*
X50402428Y-39297235D01*
X50379329Y-39288970D01*
X50357150Y-39278480D01*
X50336107Y-39265868D01*
X50316401Y-39251253D01*
X50298223Y-39234777D01*
X50281747Y-39216599D01*
X50267132Y-39196893D01*
X50254520Y-39175850D01*
X50244030Y-39153671D01*
X50235765Y-39130572D01*
X50229804Y-39106773D01*
X50226204Y-39082505D01*
X50225000Y-39058001D01*
X50225000Y-38157999D01*
X50226204Y-38133495D01*
X50229804Y-38109227D01*
X50235765Y-38085428D01*
X50244030Y-38062329D01*
X50254520Y-38040150D01*
X50267132Y-38019107D01*
X50281747Y-37999401D01*
X50298223Y-37981223D01*
X50316401Y-37964747D01*
X50336107Y-37950132D01*
X50357150Y-37937520D01*
X50379329Y-37927030D01*
X50402428Y-37918765D01*
X50426227Y-37912804D01*
X50450495Y-37909204D01*
X50474999Y-37908000D01*
X51125001Y-37908000D01*
X51149505Y-37909204D01*
X51149505Y-37909204D01*
G37*
D12*
G04 #@! TD*
G04 #@! TO.P,R6,1*
G04 #@! TO.N,Net-(Q2-Pad2)*
X50800000Y-38608000D03*
D11*
G04 #@! TO.N,/SSR_CONTROL2*
G04 #@! TO.C,R6*
G36*
X49099505Y-37909204D02*
X49123773Y-37912804D01*
X49147572Y-37918765D01*
X49170671Y-37927030D01*
X49192850Y-37937520D01*
X49213893Y-37950132D01*
X49233599Y-37964747D01*
X49251777Y-37981223D01*
X49268253Y-37999401D01*
X49282868Y-38019107D01*
X49295480Y-38040150D01*
X49305970Y-38062329D01*
X49314235Y-38085428D01*
X49320196Y-38109227D01*
X49323796Y-38133495D01*
X49325000Y-38157999D01*
X49325000Y-39058001D01*
X49323796Y-39082505D01*
X49320196Y-39106773D01*
X49314235Y-39130572D01*
X49305970Y-39153671D01*
X49295480Y-39175850D01*
X49282868Y-39196893D01*
X49268253Y-39216599D01*
X49251777Y-39234777D01*
X49233599Y-39251253D01*
X49213893Y-39265868D01*
X49192850Y-39278480D01*
X49170671Y-39288970D01*
X49147572Y-39297235D01*
X49123773Y-39303196D01*
X49099505Y-39306796D01*
X49075001Y-39308000D01*
X48424999Y-39308000D01*
X48400495Y-39306796D01*
X48376227Y-39303196D01*
X48352428Y-39297235D01*
X48329329Y-39288970D01*
X48307150Y-39278480D01*
X48286107Y-39265868D01*
X48266401Y-39251253D01*
X48248223Y-39234777D01*
X48231747Y-39216599D01*
X48217132Y-39196893D01*
X48204520Y-39175850D01*
X48194030Y-39153671D01*
X48185765Y-39130572D01*
X48179804Y-39106773D01*
X48176204Y-39082505D01*
X48175000Y-39058001D01*
X48175000Y-38157999D01*
X48176204Y-38133495D01*
X48179804Y-38109227D01*
X48185765Y-38085428D01*
X48194030Y-38062329D01*
X48204520Y-38040150D01*
X48217132Y-38019107D01*
X48231747Y-37999401D01*
X48248223Y-37981223D01*
X48266401Y-37964747D01*
X48286107Y-37950132D01*
X48307150Y-37937520D01*
X48329329Y-37927030D01*
X48352428Y-37918765D01*
X48376227Y-37912804D01*
X48400495Y-37909204D01*
X48424999Y-37908000D01*
X49075001Y-37908000D01*
X49099505Y-37909204D01*
X49099505Y-37909204D01*
G37*
D12*
G04 #@! TD*
G04 #@! TO.P,R6,2*
G04 #@! TO.N,/SSR_CONTROL2*
X48750000Y-38608000D03*
D10*
G04 #@! TO.P,U2,3*
G04 #@! TO.N,/SSR2_IN2*
X43428000Y-29928000D03*
D20*
G04 #@! TO.P,U2,1*
G04 #@! TO.N,/SSR2_OUT2*
X60198000Y-29928000D03*
D10*
G04 #@! TO.P,U2,4*
G04 #@! TO.N,/SSR2_IN1*
X39878000Y-29928000D03*
D20*
G04 #@! TO.P,U2,2*
G04 #@! TO.N,/SSR2_OUT1*
X52578000Y-29928000D03*
G04 #@! TD*
G04 #@! TO.P,U1,2*
G04 #@! TO.N,/SSR1_OUT1*
X52578000Y-22816000D03*
D10*
G04 #@! TO.P,U1,4*
G04 #@! TO.N,/SSR1_IN1*
X39878000Y-22816000D03*
D20*
G04 #@! TO.P,U1,1*
G04 #@! TO.N,/SSR1_OUT2*
X60198000Y-22816000D03*
D10*
G04 #@! TO.P,U1,3*
G04 #@! TO.N,/SSR1_IN2*
X43428000Y-22816000D03*
G04 #@! TD*
D19*
G04 #@! TO.P,Q1,3*
G04 #@! TO.N,/SSR1_IN1*
X44577000Y-38540000D03*
G04 #@! TO.P,Q1,2*
G04 #@! TO.N,Net-(Q1-Pad2)*
X43627000Y-35120000D03*
G04 #@! TO.P,Q1,1*
G04 #@! TO.N,GND*
X45527000Y-35120000D03*
G04 #@! TD*
D11*
G04 #@! TO.N,+5V*
G04 #@! TO.C,D1*
G36*
X42962004Y-45630004D02*
X42986273Y-45633604D01*
X43010071Y-45639565D01*
X43033171Y-45647830D01*
X43055349Y-45658320D01*
X43076393Y-45670933D01*
X43096098Y-45685547D01*
X43114277Y-45702023D01*
X43130753Y-45720202D01*
X43145367Y-45739907D01*
X43157980Y-45760951D01*
X43168470Y-45783129D01*
X43176735Y-45806229D01*
X43182696Y-45830027D01*
X43186296Y-45854296D01*
X43187500Y-45878800D01*
X43187500Y-46678800D01*
X43186296Y-46703304D01*
X43182696Y-46727573D01*
X43176735Y-46751371D01*
X43168470Y-46774471D01*
X43157980Y-46796649D01*
X43145367Y-46817693D01*
X43130753Y-46837398D01*
X43114277Y-46855577D01*
X43096098Y-46872053D01*
X43076393Y-46886667D01*
X43055349Y-46899280D01*
X43033171Y-46909770D01*
X43010071Y-46918035D01*
X42986273Y-46923996D01*
X42962004Y-46927596D01*
X42937500Y-46928800D01*
X42112500Y-46928800D01*
X42087996Y-46927596D01*
X42063727Y-46923996D01*
X42039929Y-46918035D01*
X42016829Y-46909770D01*
X41994651Y-46899280D01*
X41973607Y-46886667D01*
X41953902Y-46872053D01*
X41935723Y-46855577D01*
X41919247Y-46837398D01*
X41904633Y-46817693D01*
X41892020Y-46796649D01*
X41881530Y-46774471D01*
X41873265Y-46751371D01*
X41867304Y-46727573D01*
X41863704Y-46703304D01*
X41862500Y-46678800D01*
X41862500Y-45878800D01*
X41863704Y-45854296D01*
X41867304Y-45830027D01*
X41873265Y-45806229D01*
X41881530Y-45783129D01*
X41892020Y-45760951D01*
X41904633Y-45739907D01*
X41919247Y-45720202D01*
X41935723Y-45702023D01*
X41953902Y-45685547D01*
X41973607Y-45670933D01*
X41994651Y-45658320D01*
X42016829Y-45647830D01*
X42039929Y-45639565D01*
X42063727Y-45633604D01*
X42087996Y-45630004D01*
X42112500Y-45628800D01*
X42937500Y-45628800D01*
X42962004Y-45630004D01*
X42962004Y-45630004D01*
G37*
D18*
G04 #@! TD*
G04 #@! TO.P,D1,2*
G04 #@! TO.N,+5V*
X42525000Y-46278800D03*
D11*
G04 #@! TO.N,Net-(D1-Pad1)*
G04 #@! TO.C,D1*
G36*
X44887004Y-45630004D02*
X44911273Y-45633604D01*
X44935071Y-45639565D01*
X44958171Y-45647830D01*
X44980349Y-45658320D01*
X45001393Y-45670933D01*
X45021098Y-45685547D01*
X45039277Y-45702023D01*
X45055753Y-45720202D01*
X45070367Y-45739907D01*
X45082980Y-45760951D01*
X45093470Y-45783129D01*
X45101735Y-45806229D01*
X45107696Y-45830027D01*
X45111296Y-45854296D01*
X45112500Y-45878800D01*
X45112500Y-46678800D01*
X45111296Y-46703304D01*
X45107696Y-46727573D01*
X45101735Y-46751371D01*
X45093470Y-46774471D01*
X45082980Y-46796649D01*
X45070367Y-46817693D01*
X45055753Y-46837398D01*
X45039277Y-46855577D01*
X45021098Y-46872053D01*
X45001393Y-46886667D01*
X44980349Y-46899280D01*
X44958171Y-46909770D01*
X44935071Y-46918035D01*
X44911273Y-46923996D01*
X44887004Y-46927596D01*
X44862500Y-46928800D01*
X44037500Y-46928800D01*
X44012996Y-46927596D01*
X43988727Y-46923996D01*
X43964929Y-46918035D01*
X43941829Y-46909770D01*
X43919651Y-46899280D01*
X43898607Y-46886667D01*
X43878902Y-46872053D01*
X43860723Y-46855577D01*
X43844247Y-46837398D01*
X43829633Y-46817693D01*
X43817020Y-46796649D01*
X43806530Y-46774471D01*
X43798265Y-46751371D01*
X43792304Y-46727573D01*
X43788704Y-46703304D01*
X43787500Y-46678800D01*
X43787500Y-45878800D01*
X43788704Y-45854296D01*
X43792304Y-45830027D01*
X43798265Y-45806229D01*
X43806530Y-45783129D01*
X43817020Y-45760951D01*
X43829633Y-45739907D01*
X43844247Y-45720202D01*
X43860723Y-45702023D01*
X43878902Y-45685547D01*
X43898607Y-45670933D01*
X43919651Y-45658320D01*
X43941829Y-45647830D01*
X43964929Y-45639565D01*
X43988727Y-45633604D01*
X44012996Y-45630004D01*
X44037500Y-45628800D01*
X44862500Y-45628800D01*
X44887004Y-45630004D01*
X44887004Y-45630004D01*
G37*
D18*
G04 #@! TD*
G04 #@! TO.P,D1,1*
G04 #@! TO.N,Net-(D1-Pad1)*
X44450000Y-46278800D03*
D11*
G04 #@! TO.N,+5V*
G04 #@! TO.C,D2*
G36*
X31822424Y-29795748D02*
X31846693Y-29799348D01*
X31870491Y-29805309D01*
X31893591Y-29813574D01*
X31915769Y-29824064D01*
X31936813Y-29836677D01*
X31956518Y-29851291D01*
X31974697Y-29867767D01*
X31991173Y-29885946D01*
X32005787Y-29905651D01*
X32018400Y-29926695D01*
X32028890Y-29948873D01*
X32037155Y-29971973D01*
X32043116Y-29995771D01*
X32046716Y-30020040D01*
X32047920Y-30044544D01*
X32047920Y-30869544D01*
X32046716Y-30894048D01*
X32043116Y-30918317D01*
X32037155Y-30942115D01*
X32028890Y-30965215D01*
X32018400Y-30987393D01*
X32005787Y-31008437D01*
X31991173Y-31028142D01*
X31974697Y-31046321D01*
X31956518Y-31062797D01*
X31936813Y-31077411D01*
X31915769Y-31090024D01*
X31893591Y-31100514D01*
X31870491Y-31108779D01*
X31846693Y-31114740D01*
X31822424Y-31118340D01*
X31797920Y-31119544D01*
X30997920Y-31119544D01*
X30973416Y-31118340D01*
X30949147Y-31114740D01*
X30925349Y-31108779D01*
X30902249Y-31100514D01*
X30880071Y-31090024D01*
X30859027Y-31077411D01*
X30839322Y-31062797D01*
X30821143Y-31046321D01*
X30804667Y-31028142D01*
X30790053Y-31008437D01*
X30777440Y-30987393D01*
X30766950Y-30965215D01*
X30758685Y-30942115D01*
X30752724Y-30918317D01*
X30749124Y-30894048D01*
X30747920Y-30869544D01*
X30747920Y-30044544D01*
X30749124Y-30020040D01*
X30752724Y-29995771D01*
X30758685Y-29971973D01*
X30766950Y-29948873D01*
X30777440Y-29926695D01*
X30790053Y-29905651D01*
X30804667Y-29885946D01*
X30821143Y-29867767D01*
X30839322Y-29851291D01*
X30859027Y-29836677D01*
X30880071Y-29824064D01*
X30902249Y-29813574D01*
X30925349Y-29805309D01*
X30949147Y-29799348D01*
X30973416Y-29795748D01*
X30997920Y-29794544D01*
X31797920Y-29794544D01*
X31822424Y-29795748D01*
X31822424Y-29795748D01*
G37*
D18*
G04 #@! TD*
G04 #@! TO.P,D2,2*
G04 #@! TO.N,+5V*
X31397920Y-30457044D03*
D11*
G04 #@! TO.N,Net-(D2-Pad1)*
G04 #@! TO.C,D2*
G36*
X31822424Y-27870748D02*
X31846693Y-27874348D01*
X31870491Y-27880309D01*
X31893591Y-27888574D01*
X31915769Y-27899064D01*
X31936813Y-27911677D01*
X31956518Y-27926291D01*
X31974697Y-27942767D01*
X31991173Y-27960946D01*
X32005787Y-27980651D01*
X32018400Y-28001695D01*
X32028890Y-28023873D01*
X32037155Y-28046973D01*
X32043116Y-28070771D01*
X32046716Y-28095040D01*
X32047920Y-28119544D01*
X32047920Y-28944544D01*
X32046716Y-28969048D01*
X32043116Y-28993317D01*
X32037155Y-29017115D01*
X32028890Y-29040215D01*
X32018400Y-29062393D01*
X32005787Y-29083437D01*
X31991173Y-29103142D01*
X31974697Y-29121321D01*
X31956518Y-29137797D01*
X31936813Y-29152411D01*
X31915769Y-29165024D01*
X31893591Y-29175514D01*
X31870491Y-29183779D01*
X31846693Y-29189740D01*
X31822424Y-29193340D01*
X31797920Y-29194544D01*
X30997920Y-29194544D01*
X30973416Y-29193340D01*
X30949147Y-29189740D01*
X30925349Y-29183779D01*
X30902249Y-29175514D01*
X30880071Y-29165024D01*
X30859027Y-29152411D01*
X30839322Y-29137797D01*
X30821143Y-29121321D01*
X30804667Y-29103142D01*
X30790053Y-29083437D01*
X30777440Y-29062393D01*
X30766950Y-29040215D01*
X30758685Y-29017115D01*
X30752724Y-28993317D01*
X30749124Y-28969048D01*
X30747920Y-28944544D01*
X30747920Y-28119544D01*
X30749124Y-28095040D01*
X30752724Y-28070771D01*
X30758685Y-28046973D01*
X30766950Y-28023873D01*
X30777440Y-28001695D01*
X30790053Y-27980651D01*
X30804667Y-27960946D01*
X30821143Y-27942767D01*
X30839322Y-27926291D01*
X30859027Y-27911677D01*
X30880071Y-27899064D01*
X30902249Y-27888574D01*
X30925349Y-27880309D01*
X30949147Y-27874348D01*
X30973416Y-27870748D01*
X30997920Y-27869544D01*
X31797920Y-27869544D01*
X31822424Y-27870748D01*
X31822424Y-27870748D01*
G37*
D18*
G04 #@! TD*
G04 #@! TO.P,D2,1*
G04 #@! TO.N,Net-(D2-Pad1)*
X31397920Y-28532044D03*
D11*
G04 #@! TO.N,/SSR_CONTROL1*
G04 #@! TO.C,R1*
G36*
X38558505Y-38036204D02*
X38582773Y-38039804D01*
X38606572Y-38045765D01*
X38629671Y-38054030D01*
X38651850Y-38064520D01*
X38672893Y-38077132D01*
X38692599Y-38091747D01*
X38710777Y-38108223D01*
X38727253Y-38126401D01*
X38741868Y-38146107D01*
X38754480Y-38167150D01*
X38764970Y-38189329D01*
X38773235Y-38212428D01*
X38779196Y-38236227D01*
X38782796Y-38260495D01*
X38784000Y-38284999D01*
X38784000Y-39185001D01*
X38782796Y-39209505D01*
X38779196Y-39233773D01*
X38773235Y-39257572D01*
X38764970Y-39280671D01*
X38754480Y-39302850D01*
X38741868Y-39323893D01*
X38727253Y-39343599D01*
X38710777Y-39361777D01*
X38692599Y-39378253D01*
X38672893Y-39392868D01*
X38651850Y-39405480D01*
X38629671Y-39415970D01*
X38606572Y-39424235D01*
X38582773Y-39430196D01*
X38558505Y-39433796D01*
X38534001Y-39435000D01*
X37883999Y-39435000D01*
X37859495Y-39433796D01*
X37835227Y-39430196D01*
X37811428Y-39424235D01*
X37788329Y-39415970D01*
X37766150Y-39405480D01*
X37745107Y-39392868D01*
X37725401Y-39378253D01*
X37707223Y-39361777D01*
X37690747Y-39343599D01*
X37676132Y-39323893D01*
X37663520Y-39302850D01*
X37653030Y-39280671D01*
X37644765Y-39257572D01*
X37638804Y-39233773D01*
X37635204Y-39209505D01*
X37634000Y-39185001D01*
X37634000Y-38284999D01*
X37635204Y-38260495D01*
X37638804Y-38236227D01*
X37644765Y-38212428D01*
X37653030Y-38189329D01*
X37663520Y-38167150D01*
X37676132Y-38146107D01*
X37690747Y-38126401D01*
X37707223Y-38108223D01*
X37725401Y-38091747D01*
X37745107Y-38077132D01*
X37766150Y-38064520D01*
X37788329Y-38054030D01*
X37811428Y-38045765D01*
X37835227Y-38039804D01*
X37859495Y-38036204D01*
X37883999Y-38035000D01*
X38534001Y-38035000D01*
X38558505Y-38036204D01*
X38558505Y-38036204D01*
G37*
D12*
G04 #@! TD*
G04 #@! TO.P,R1,2*
G04 #@! TO.N,/SSR_CONTROL1*
X38209000Y-38735000D03*
D11*
G04 #@! TO.N,Net-(Q1-Pad2)*
G04 #@! TO.C,R1*
G36*
X40608505Y-38036204D02*
X40632773Y-38039804D01*
X40656572Y-38045765D01*
X40679671Y-38054030D01*
X40701850Y-38064520D01*
X40722893Y-38077132D01*
X40742599Y-38091747D01*
X40760777Y-38108223D01*
X40777253Y-38126401D01*
X40791868Y-38146107D01*
X40804480Y-38167150D01*
X40814970Y-38189329D01*
X40823235Y-38212428D01*
X40829196Y-38236227D01*
X40832796Y-38260495D01*
X40834000Y-38284999D01*
X40834000Y-39185001D01*
X40832796Y-39209505D01*
X40829196Y-39233773D01*
X40823235Y-39257572D01*
X40814970Y-39280671D01*
X40804480Y-39302850D01*
X40791868Y-39323893D01*
X40777253Y-39343599D01*
X40760777Y-39361777D01*
X40742599Y-39378253D01*
X40722893Y-39392868D01*
X40701850Y-39405480D01*
X40679671Y-39415970D01*
X40656572Y-39424235D01*
X40632773Y-39430196D01*
X40608505Y-39433796D01*
X40584001Y-39435000D01*
X39933999Y-39435000D01*
X39909495Y-39433796D01*
X39885227Y-39430196D01*
X39861428Y-39424235D01*
X39838329Y-39415970D01*
X39816150Y-39405480D01*
X39795107Y-39392868D01*
X39775401Y-39378253D01*
X39757223Y-39361777D01*
X39740747Y-39343599D01*
X39726132Y-39323893D01*
X39713520Y-39302850D01*
X39703030Y-39280671D01*
X39694765Y-39257572D01*
X39688804Y-39233773D01*
X39685204Y-39209505D01*
X39684000Y-39185001D01*
X39684000Y-38284999D01*
X39685204Y-38260495D01*
X39688804Y-38236227D01*
X39694765Y-38212428D01*
X39703030Y-38189329D01*
X39713520Y-38167150D01*
X39726132Y-38146107D01*
X39740747Y-38126401D01*
X39757223Y-38108223D01*
X39775401Y-38091747D01*
X39795107Y-38077132D01*
X39816150Y-38064520D01*
X39838329Y-38054030D01*
X39861428Y-38045765D01*
X39885227Y-38039804D01*
X39909495Y-38036204D01*
X39933999Y-38035000D01*
X40584001Y-38035000D01*
X40608505Y-38036204D01*
X40608505Y-38036204D01*
G37*
D12*
G04 #@! TD*
G04 #@! TO.P,R1,1*
G04 #@! TO.N,Net-(Q1-Pad2)*
X40259000Y-38735000D03*
D11*
G04 #@! TO.N,/SSR1_IN1*
G04 #@! TO.C,R3*
G36*
X42885505Y-43116204D02*
X42909773Y-43119804D01*
X42933572Y-43125765D01*
X42956671Y-43134030D01*
X42978850Y-43144520D01*
X42999893Y-43157132D01*
X43019599Y-43171747D01*
X43037777Y-43188223D01*
X43054253Y-43206401D01*
X43068868Y-43226107D01*
X43081480Y-43247150D01*
X43091970Y-43269329D01*
X43100235Y-43292428D01*
X43106196Y-43316227D01*
X43109796Y-43340495D01*
X43111000Y-43364999D01*
X43111000Y-44265001D01*
X43109796Y-44289505D01*
X43106196Y-44313773D01*
X43100235Y-44337572D01*
X43091970Y-44360671D01*
X43081480Y-44382850D01*
X43068868Y-44403893D01*
X43054253Y-44423599D01*
X43037777Y-44441777D01*
X43019599Y-44458253D01*
X42999893Y-44472868D01*
X42978850Y-44485480D01*
X42956671Y-44495970D01*
X42933572Y-44504235D01*
X42909773Y-44510196D01*
X42885505Y-44513796D01*
X42861001Y-44515000D01*
X42210999Y-44515000D01*
X42186495Y-44513796D01*
X42162227Y-44510196D01*
X42138428Y-44504235D01*
X42115329Y-44495970D01*
X42093150Y-44485480D01*
X42072107Y-44472868D01*
X42052401Y-44458253D01*
X42034223Y-44441777D01*
X42017747Y-44423599D01*
X42003132Y-44403893D01*
X41990520Y-44382850D01*
X41980030Y-44360671D01*
X41971765Y-44337572D01*
X41965804Y-44313773D01*
X41962204Y-44289505D01*
X41961000Y-44265001D01*
X41961000Y-43364999D01*
X41962204Y-43340495D01*
X41965804Y-43316227D01*
X41971765Y-43292428D01*
X41980030Y-43269329D01*
X41990520Y-43247150D01*
X42003132Y-43226107D01*
X42017747Y-43206401D01*
X42034223Y-43188223D01*
X42052401Y-43171747D01*
X42072107Y-43157132D01*
X42093150Y-43144520D01*
X42115329Y-43134030D01*
X42138428Y-43125765D01*
X42162227Y-43119804D01*
X42186495Y-43116204D01*
X42210999Y-43115000D01*
X42861001Y-43115000D01*
X42885505Y-43116204D01*
X42885505Y-43116204D01*
G37*
D12*
G04 #@! TD*
G04 #@! TO.P,R3,2*
G04 #@! TO.N,/SSR1_IN1*
X42536000Y-43815000D03*
D11*
G04 #@! TO.N,Net-(D1-Pad1)*
G04 #@! TO.C,R3*
G36*
X44935505Y-43116204D02*
X44959773Y-43119804D01*
X44983572Y-43125765D01*
X45006671Y-43134030D01*
X45028850Y-43144520D01*
X45049893Y-43157132D01*
X45069599Y-43171747D01*
X45087777Y-43188223D01*
X45104253Y-43206401D01*
X45118868Y-43226107D01*
X45131480Y-43247150D01*
X45141970Y-43269329D01*
X45150235Y-43292428D01*
X45156196Y-43316227D01*
X45159796Y-43340495D01*
X45161000Y-43364999D01*
X45161000Y-44265001D01*
X45159796Y-44289505D01*
X45156196Y-44313773D01*
X45150235Y-44337572D01*
X45141970Y-44360671D01*
X45131480Y-44382850D01*
X45118868Y-44403893D01*
X45104253Y-44423599D01*
X45087777Y-44441777D01*
X45069599Y-44458253D01*
X45049893Y-44472868D01*
X45028850Y-44485480D01*
X45006671Y-44495970D01*
X44983572Y-44504235D01*
X44959773Y-44510196D01*
X44935505Y-44513796D01*
X44911001Y-44515000D01*
X44260999Y-44515000D01*
X44236495Y-44513796D01*
X44212227Y-44510196D01*
X44188428Y-44504235D01*
X44165329Y-44495970D01*
X44143150Y-44485480D01*
X44122107Y-44472868D01*
X44102401Y-44458253D01*
X44084223Y-44441777D01*
X44067747Y-44423599D01*
X44053132Y-44403893D01*
X44040520Y-44382850D01*
X44030030Y-44360671D01*
X44021765Y-44337572D01*
X44015804Y-44313773D01*
X44012204Y-44289505D01*
X44011000Y-44265001D01*
X44011000Y-43364999D01*
X44012204Y-43340495D01*
X44015804Y-43316227D01*
X44021765Y-43292428D01*
X44030030Y-43269329D01*
X44040520Y-43247150D01*
X44053132Y-43226107D01*
X44067747Y-43206401D01*
X44084223Y-43188223D01*
X44102401Y-43171747D01*
X44122107Y-43157132D01*
X44143150Y-43144520D01*
X44165329Y-43134030D01*
X44188428Y-43125765D01*
X44212227Y-43119804D01*
X44236495Y-43116204D01*
X44260999Y-43115000D01*
X44911001Y-43115000D01*
X44935505Y-43116204D01*
X44935505Y-43116204D01*
G37*
D12*
G04 #@! TD*
G04 #@! TO.P,R3,1*
G04 #@! TO.N,Net-(D1-Pad1)*
X44586000Y-43815000D03*
D11*
G04 #@! TO.N,/SSR1_IN2*
G04 #@! TO.C,R4*
G36*
X43173905Y-40500004D02*
X43198173Y-40503604D01*
X43221972Y-40509565D01*
X43245071Y-40517830D01*
X43267250Y-40528320D01*
X43288293Y-40540932D01*
X43307999Y-40555547D01*
X43326177Y-40572023D01*
X43342653Y-40590201D01*
X43357268Y-40609907D01*
X43369880Y-40630950D01*
X43380370Y-40653129D01*
X43388635Y-40676228D01*
X43394596Y-40700027D01*
X43398196Y-40724295D01*
X43399400Y-40748799D01*
X43399400Y-41648801D01*
X43398196Y-41673305D01*
X43394596Y-41697573D01*
X43388635Y-41721372D01*
X43380370Y-41744471D01*
X43369880Y-41766650D01*
X43357268Y-41787693D01*
X43342653Y-41807399D01*
X43326177Y-41825577D01*
X43307999Y-41842053D01*
X43288293Y-41856668D01*
X43267250Y-41869280D01*
X43245071Y-41879770D01*
X43221972Y-41888035D01*
X43198173Y-41893996D01*
X43173905Y-41897596D01*
X43149401Y-41898800D01*
X42499399Y-41898800D01*
X42474895Y-41897596D01*
X42450627Y-41893996D01*
X42426828Y-41888035D01*
X42403729Y-41879770D01*
X42381550Y-41869280D01*
X42360507Y-41856668D01*
X42340801Y-41842053D01*
X42322623Y-41825577D01*
X42306147Y-41807399D01*
X42291532Y-41787693D01*
X42278920Y-41766650D01*
X42268430Y-41744471D01*
X42260165Y-41721372D01*
X42254204Y-41697573D01*
X42250604Y-41673305D01*
X42249400Y-41648801D01*
X42249400Y-40748799D01*
X42250604Y-40724295D01*
X42254204Y-40700027D01*
X42260165Y-40676228D01*
X42268430Y-40653129D01*
X42278920Y-40630950D01*
X42291532Y-40609907D01*
X42306147Y-40590201D01*
X42322623Y-40572023D01*
X42340801Y-40555547D01*
X42360507Y-40540932D01*
X42381550Y-40528320D01*
X42403729Y-40517830D01*
X42426828Y-40509565D01*
X42450627Y-40503604D01*
X42474895Y-40500004D01*
X42499399Y-40498800D01*
X43149401Y-40498800D01*
X43173905Y-40500004D01*
X43173905Y-40500004D01*
G37*
D12*
G04 #@! TD*
G04 #@! TO.P,R4,2*
G04 #@! TO.N,/SSR1_IN2*
X42824400Y-41198800D03*
D11*
G04 #@! TO.N,+5V*
G04 #@! TO.C,R4*
G36*
X41123905Y-40500004D02*
X41148173Y-40503604D01*
X41171972Y-40509565D01*
X41195071Y-40517830D01*
X41217250Y-40528320D01*
X41238293Y-40540932D01*
X41257999Y-40555547D01*
X41276177Y-40572023D01*
X41292653Y-40590201D01*
X41307268Y-40609907D01*
X41319880Y-40630950D01*
X41330370Y-40653129D01*
X41338635Y-40676228D01*
X41344596Y-40700027D01*
X41348196Y-40724295D01*
X41349400Y-40748799D01*
X41349400Y-41648801D01*
X41348196Y-41673305D01*
X41344596Y-41697573D01*
X41338635Y-41721372D01*
X41330370Y-41744471D01*
X41319880Y-41766650D01*
X41307268Y-41787693D01*
X41292653Y-41807399D01*
X41276177Y-41825577D01*
X41257999Y-41842053D01*
X41238293Y-41856668D01*
X41217250Y-41869280D01*
X41195071Y-41879770D01*
X41171972Y-41888035D01*
X41148173Y-41893996D01*
X41123905Y-41897596D01*
X41099401Y-41898800D01*
X40449399Y-41898800D01*
X40424895Y-41897596D01*
X40400627Y-41893996D01*
X40376828Y-41888035D01*
X40353729Y-41879770D01*
X40331550Y-41869280D01*
X40310507Y-41856668D01*
X40290801Y-41842053D01*
X40272623Y-41825577D01*
X40256147Y-41807399D01*
X40241532Y-41787693D01*
X40228920Y-41766650D01*
X40218430Y-41744471D01*
X40210165Y-41721372D01*
X40204204Y-41697573D01*
X40200604Y-41673305D01*
X40199400Y-41648801D01*
X40199400Y-40748799D01*
X40200604Y-40724295D01*
X40204204Y-40700027D01*
X40210165Y-40676228D01*
X40218430Y-40653129D01*
X40228920Y-40630950D01*
X40241532Y-40609907D01*
X40256147Y-40590201D01*
X40272623Y-40572023D01*
X40290801Y-40555547D01*
X40310507Y-40540932D01*
X40331550Y-40528320D01*
X40353729Y-40517830D01*
X40376828Y-40509565D01*
X40400627Y-40503604D01*
X40424895Y-40500004D01*
X40449399Y-40498800D01*
X41099401Y-40498800D01*
X41123905Y-40500004D01*
X41123905Y-40500004D01*
G37*
D12*
G04 #@! TD*
G04 #@! TO.P,R4,1*
G04 #@! TO.N,+5V*
X40774400Y-41198800D03*
D11*
G04 #@! TO.N,GND*
G04 #@! TO.C,R5*
G36*
X34564825Y-29945748D02*
X34589093Y-29949348D01*
X34612892Y-29955309D01*
X34635991Y-29963574D01*
X34658170Y-29974064D01*
X34679213Y-29986676D01*
X34698919Y-30001291D01*
X34717097Y-30017767D01*
X34733573Y-30035945D01*
X34748188Y-30055651D01*
X34760800Y-30076694D01*
X34771290Y-30098873D01*
X34779555Y-30121972D01*
X34785516Y-30145771D01*
X34789116Y-30170039D01*
X34790320Y-30194543D01*
X34790320Y-30844545D01*
X34789116Y-30869049D01*
X34785516Y-30893317D01*
X34779555Y-30917116D01*
X34771290Y-30940215D01*
X34760800Y-30962394D01*
X34748188Y-30983437D01*
X34733573Y-31003143D01*
X34717097Y-31021321D01*
X34698919Y-31037797D01*
X34679213Y-31052412D01*
X34658170Y-31065024D01*
X34635991Y-31075514D01*
X34612892Y-31083779D01*
X34589093Y-31089740D01*
X34564825Y-31093340D01*
X34540321Y-31094544D01*
X33640319Y-31094544D01*
X33615815Y-31093340D01*
X33591547Y-31089740D01*
X33567748Y-31083779D01*
X33544649Y-31075514D01*
X33522470Y-31065024D01*
X33501427Y-31052412D01*
X33481721Y-31037797D01*
X33463543Y-31021321D01*
X33447067Y-31003143D01*
X33432452Y-30983437D01*
X33419840Y-30962394D01*
X33409350Y-30940215D01*
X33401085Y-30917116D01*
X33395124Y-30893317D01*
X33391524Y-30869049D01*
X33390320Y-30844545D01*
X33390320Y-30194543D01*
X33391524Y-30170039D01*
X33395124Y-30145771D01*
X33401085Y-30121972D01*
X33409350Y-30098873D01*
X33419840Y-30076694D01*
X33432452Y-30055651D01*
X33447067Y-30035945D01*
X33463543Y-30017767D01*
X33481721Y-30001291D01*
X33501427Y-29986676D01*
X33522470Y-29974064D01*
X33544649Y-29963574D01*
X33567748Y-29955309D01*
X33591547Y-29949348D01*
X33615815Y-29945748D01*
X33640319Y-29944544D01*
X34540321Y-29944544D01*
X34564825Y-29945748D01*
X34564825Y-29945748D01*
G37*
D12*
G04 #@! TD*
G04 #@! TO.P,R5,2*
G04 #@! TO.N,GND*
X34090320Y-30519544D03*
D11*
G04 #@! TO.N,Net-(D2-Pad1)*
G04 #@! TO.C,R5*
G36*
X34564825Y-27895748D02*
X34589093Y-27899348D01*
X34612892Y-27905309D01*
X34635991Y-27913574D01*
X34658170Y-27924064D01*
X34679213Y-27936676D01*
X34698919Y-27951291D01*
X34717097Y-27967767D01*
X34733573Y-27985945D01*
X34748188Y-28005651D01*
X34760800Y-28026694D01*
X34771290Y-28048873D01*
X34779555Y-28071972D01*
X34785516Y-28095771D01*
X34789116Y-28120039D01*
X34790320Y-28144543D01*
X34790320Y-28794545D01*
X34789116Y-28819049D01*
X34785516Y-28843317D01*
X34779555Y-28867116D01*
X34771290Y-28890215D01*
X34760800Y-28912394D01*
X34748188Y-28933437D01*
X34733573Y-28953143D01*
X34717097Y-28971321D01*
X34698919Y-28987797D01*
X34679213Y-29002412D01*
X34658170Y-29015024D01*
X34635991Y-29025514D01*
X34612892Y-29033779D01*
X34589093Y-29039740D01*
X34564825Y-29043340D01*
X34540321Y-29044544D01*
X33640319Y-29044544D01*
X33615815Y-29043340D01*
X33591547Y-29039740D01*
X33567748Y-29033779D01*
X33544649Y-29025514D01*
X33522470Y-29015024D01*
X33501427Y-29002412D01*
X33481721Y-28987797D01*
X33463543Y-28971321D01*
X33447067Y-28953143D01*
X33432452Y-28933437D01*
X33419840Y-28912394D01*
X33409350Y-28890215D01*
X33401085Y-28867116D01*
X33395124Y-28843317D01*
X33391524Y-28819049D01*
X33390320Y-28794545D01*
X33390320Y-28144543D01*
X33391524Y-28120039D01*
X33395124Y-28095771D01*
X33401085Y-28071972D01*
X33409350Y-28048873D01*
X33419840Y-28026694D01*
X33432452Y-28005651D01*
X33447067Y-27985945D01*
X33463543Y-27967767D01*
X33481721Y-27951291D01*
X33501427Y-27936676D01*
X33522470Y-27924064D01*
X33544649Y-27913574D01*
X33567748Y-27905309D01*
X33591547Y-27899348D01*
X33615815Y-27895748D01*
X33640319Y-27894544D01*
X34540321Y-27894544D01*
X34564825Y-27895748D01*
X34564825Y-27895748D01*
G37*
D12*
G04 #@! TD*
G04 #@! TO.P,R5,1*
G04 #@! TO.N,Net-(D2-Pad1)*
X34090320Y-28469544D03*
D21*
G04 #@! TO.N,GND*
X40894000Y-48260000D03*
X34861500Y-33083500D03*
X45974000Y-40792400D03*
X40741600Y-43637200D03*
D22*
G04 #@! TO.N,/SSR_CONTROL2*
X46101000Y-38608000D03*
D21*
G04 #@! TO.N,/SSR2_IN2*
X52705000Y-39560500D03*
G04 #@! TO.N,/SSR2_IN1*
X56388000Y-38735000D03*
G04 #@! TO.N,/SSR1_IN1*
X42608500Y-38252400D03*
G04 #@! TO.N,/SSR1_IN2*
X41529000Y-34671000D03*
G04 #@! TD*
D23*
G04 #@! TO.N,+5V*
X39192200Y-41198800D02*
X38655400Y-41735600D01*
X40774400Y-41198800D02*
X39192200Y-41198800D01*
X38655400Y-41735600D02*
X38608000Y-41735600D01*
X38608000Y-41735600D02*
X36601400Y-41735600D01*
X36601400Y-41735600D02*
X34750600Y-41735600D01*
X34750600Y-41735600D02*
X34290000Y-41275000D01*
X34290000Y-40803400D02*
X33909000Y-40422400D01*
X34290000Y-41275000D02*
X34290000Y-40803400D01*
X32004000Y-40422400D02*
X33909000Y-40422400D01*
X49530000Y-50800000D02*
X49530000Y-49022000D01*
X43180000Y-48260000D02*
X42525000Y-47605000D01*
X49276000Y-48260000D02*
X43180000Y-48260000D01*
X42525000Y-47605000D02*
X42525000Y-46278800D01*
X49530000Y-49022000D02*
X49530000Y-48514000D01*
X49530000Y-48514000D02*
X49276000Y-48260000D01*
X30114010Y-39766010D02*
X30770400Y-40422400D01*
X30770400Y-40422400D02*
X32004000Y-40422400D01*
X30114010Y-33385990D02*
X30114010Y-39766010D01*
X31397920Y-30457044D02*
X31397920Y-32102080D01*
X31397920Y-32102080D02*
X30114010Y-33385990D01*
X49530000Y-48387000D02*
X49075500Y-47932500D01*
X49530000Y-49022000D02*
X49530000Y-48387000D01*
X49075500Y-47932500D02*
X49075500Y-46355000D01*
X47675800Y-41275000D02*
X48750000Y-41275000D01*
X47345600Y-41605200D02*
X47675800Y-41275000D01*
X47345600Y-46024800D02*
X47345600Y-41605200D01*
X48842500Y-46355000D02*
X47675800Y-46355000D01*
X47675800Y-46355000D02*
X47345600Y-46024800D01*
X39420800Y-45694600D02*
X40005000Y-46278800D01*
X40005000Y-46278800D02*
X42525000Y-46278800D01*
X39420800Y-43005000D02*
X39420800Y-45694600D01*
X36601400Y-41735600D02*
X38151400Y-41735600D01*
X38151400Y-41735600D02*
X39420800Y-43005000D01*
D24*
G04 #@! TO.N,Net-(D1-Pad1)*
X44450000Y-43230800D02*
X44450000Y-45748366D01*
X44450000Y-45748366D02*
X44582500Y-45880866D01*
D23*
G04 #@! TO.N,GND*
X38209000Y-36195000D02*
X36195000Y-36195000D01*
X35034000Y-35034000D02*
X35034000Y-33020000D01*
X36195000Y-36195000D02*
X35034000Y-35034000D01*
X34794600Y-45335600D02*
X36601400Y-45335600D01*
X34417000Y-44958000D02*
X34794600Y-45335600D01*
X34417000Y-43307000D02*
X34417000Y-44958000D01*
X32004000Y-42962400D02*
X34072400Y-42962400D01*
X34072400Y-42962400D02*
X34417000Y-43307000D01*
X35034000Y-33020000D02*
X35034000Y-33020000D01*
X34090320Y-32312320D02*
X34861500Y-33083500D01*
X34090320Y-30519544D02*
X34090320Y-32312320D01*
D24*
G04 #@! TO.N,Net-(Q1-Pad2)*
X40259000Y-36195000D02*
X40259000Y-38735000D01*
X43627000Y-33820000D02*
X43208000Y-33401000D01*
X43627000Y-35120000D02*
X43627000Y-33820000D01*
X43208000Y-33401000D02*
X40767000Y-33401000D01*
X40259000Y-33909000D02*
X40259000Y-36195000D01*
X40767000Y-33401000D02*
X40259000Y-33909000D01*
G04 #@! TO.N,Net-(D2-Pad1)*
X31397920Y-28532044D02*
X34027820Y-28532044D01*
X34027820Y-28532044D02*
X34090320Y-28469544D01*
G04 #@! TO.N,Net-(Q2-Pad2)*
X50800000Y-37991000D02*
X50800000Y-38324750D01*
X50800000Y-38608000D02*
X51669842Y-38608000D01*
X51669842Y-38608000D02*
X52324000Y-37953842D01*
X50800000Y-37592000D02*
X50800000Y-38608000D01*
X49149000Y-37338000D02*
X50546000Y-37338000D01*
X48750000Y-35941000D02*
X48750000Y-36939000D01*
X50546000Y-37338000D02*
X50800000Y-37592000D01*
X48750000Y-36939000D02*
X49149000Y-37338000D01*
X54295000Y-35120000D02*
X53018000Y-35120000D01*
X53018000Y-35120000D02*
X52324000Y-35814000D01*
X52324000Y-37953842D02*
X52324000Y-35814000D01*
G04 #@! TO.N,/SSR_CONTROL2*
X46101000Y-38608000D02*
X46960750Y-38608000D01*
X46960750Y-38608000D02*
X47244000Y-38324750D01*
X48750000Y-38324750D02*
X47244000Y-38324750D01*
G04 #@! TO.N,/SSR_CONTROL1*
X34072400Y-37882400D02*
X34925000Y-38735000D01*
X34925000Y-38735000D02*
X38209000Y-38735000D01*
X32004000Y-37882400D02*
X34072400Y-37882400D01*
G04 #@! TO.N,Net-(D3-Pad1)*
X50800000Y-46322500D02*
X50767500Y-46355000D01*
X50800000Y-44196000D02*
X50800000Y-46322500D01*
D25*
G04 #@! TO.N,/SSR2_IN2*
X52006500Y-41275000D02*
X50800000Y-41275000D01*
X52705000Y-40576500D02*
X52006500Y-41275000D01*
X52705000Y-39560500D02*
X52705000Y-40576500D01*
G04 #@! TO.N,/SSR2_IN1*
X55440000Y-38735000D02*
X55245000Y-38540000D01*
X56388000Y-38735000D02*
X55440000Y-38735000D01*
X55245000Y-41021000D02*
X55245000Y-38540000D01*
X53594000Y-42672000D02*
X55245000Y-41021000D01*
X49276000Y-42672000D02*
X53594000Y-42672000D01*
X48750000Y-44196000D02*
X48750000Y-43198000D01*
X48750000Y-43198000D02*
X49276000Y-42672000D01*
G04 #@! TO.N,/SSR1_IN1*
X42536000Y-42808000D02*
X42536000Y-43815000D01*
X42799000Y-42545000D02*
X42536000Y-42808000D01*
X44069000Y-42545000D02*
X42799000Y-42545000D01*
X44577000Y-38540000D02*
X44577000Y-42037000D01*
X44577000Y-42037000D02*
X44069000Y-42545000D01*
X42896100Y-38540000D02*
X42608500Y-38252400D01*
X44577000Y-38540000D02*
X42896100Y-38540000D01*
D24*
G04 #@! TO.N,/SSR1_IN2*
X42824400Y-41198800D02*
X42824400Y-40366802D01*
D25*
X41529000Y-38379400D02*
X41529000Y-34671000D01*
X42824400Y-41198800D02*
X42824400Y-39674800D01*
X42545000Y-39395400D02*
X41744900Y-39395400D01*
X42824400Y-39674800D02*
X42545000Y-39395400D01*
X41529000Y-39179500D02*
X41529000Y-38379400D01*
X41744900Y-39395400D02*
X41529000Y-39179500D01*
G04 #@! TD*
G04 #@! TO.N,GND*
G36*
X68151767Y-18824770D02*
X68713846Y-19007400D01*
X69225672Y-19302904D01*
X69664876Y-19698364D01*
X70012260Y-20176497D01*
X70252643Y-20716405D01*
X70379500Y-21313224D01*
X70395000Y-21608976D01*
X70395001Y-50761999D01*
X70329230Y-51387767D01*
X70146600Y-51949846D01*
X69851096Y-52461672D01*
X69455634Y-52900877D01*
X68977503Y-53248260D01*
X68437595Y-53488643D01*
X67840776Y-53615500D01*
X67545024Y-53631000D01*
X33057992Y-53631000D01*
X32432233Y-53565230D01*
X31870154Y-53382600D01*
X31358328Y-53087096D01*
X30919123Y-52691634D01*
X30571740Y-52213503D01*
X30331357Y-51673595D01*
X30204500Y-51076776D01*
X30189000Y-50781024D01*
X30189000Y-50352447D01*
X30770000Y-50352447D01*
X30770000Y-51247553D01*
X31112542Y-52074523D01*
X31745477Y-52707458D01*
X32572447Y-53050000D01*
X33467553Y-53050000D01*
X34294523Y-52707458D01*
X34927458Y-52074523D01*
X35270000Y-51247553D01*
X35270000Y-50569596D01*
X37720000Y-50569596D01*
X37720000Y-51226006D01*
X37971198Y-51832451D01*
X38435350Y-52296603D01*
X39041795Y-52547801D01*
X39698205Y-52547801D01*
X40304650Y-52296603D01*
X40768802Y-51832451D01*
X41020000Y-51226006D01*
X41020000Y-50569596D01*
X40768802Y-49963151D01*
X40304650Y-49498999D01*
X39698205Y-49247801D01*
X39041795Y-49247801D01*
X38435350Y-49498999D01*
X37971198Y-49963151D01*
X37720000Y-50569596D01*
X35270000Y-50569596D01*
X35270000Y-50352447D01*
X34927458Y-49525477D01*
X34294523Y-48892542D01*
X33467553Y-48550000D01*
X32572447Y-48550000D01*
X31745477Y-48892542D01*
X31112542Y-49525477D01*
X30770000Y-50352447D01*
X30189000Y-50352447D01*
X30189000Y-45529100D01*
X35043400Y-45529100D01*
X35043400Y-46786376D01*
X35158799Y-47064973D01*
X35372028Y-47278202D01*
X35650625Y-47393600D01*
X36407900Y-47393600D01*
X36597400Y-47204100D01*
X36597400Y-45339600D01*
X36605400Y-45339600D01*
X36605400Y-47204100D01*
X36794900Y-47393600D01*
X37552175Y-47393600D01*
X37830772Y-47278202D01*
X38044001Y-47064973D01*
X38159400Y-46786376D01*
X38159400Y-45529100D01*
X37969900Y-45339600D01*
X36605400Y-45339600D01*
X36597400Y-45339600D01*
X35232900Y-45339600D01*
X35043400Y-45529100D01*
X30189000Y-45529100D01*
X30189000Y-43155900D01*
X30396000Y-43155900D01*
X30396000Y-43963175D01*
X30511398Y-44241772D01*
X30724627Y-44455001D01*
X31003224Y-44570400D01*
X31810500Y-44570400D01*
X32000000Y-44380900D01*
X32000000Y-42966400D01*
X32008000Y-42966400D01*
X32008000Y-44380900D01*
X32197500Y-44570400D01*
X33004776Y-44570400D01*
X33283373Y-44455001D01*
X33496602Y-44241772D01*
X33612000Y-43963175D01*
X33612000Y-43155900D01*
X33422500Y-42966400D01*
X32008000Y-42966400D01*
X32000000Y-42966400D01*
X30585500Y-42966400D01*
X30396000Y-43155900D01*
X30189000Y-43155900D01*
X30189000Y-41266677D01*
X30370465Y-41387928D01*
X30743259Y-41462081D01*
X30724627Y-41469799D01*
X30511398Y-41683028D01*
X30396000Y-41961625D01*
X30396000Y-42768900D01*
X30585500Y-42958400D01*
X32000000Y-42958400D01*
X32000000Y-42938400D01*
X32008000Y-42938400D01*
X32008000Y-42958400D01*
X33422500Y-42958400D01*
X33612000Y-42768900D01*
X33612000Y-42054731D01*
X33636599Y-42071167D01*
X33954433Y-42389001D01*
X34011617Y-42474583D01*
X34350665Y-42701128D01*
X34649651Y-42760600D01*
X34649655Y-42760600D01*
X34750600Y-42780679D01*
X34851545Y-42760600D01*
X35138666Y-42760600D01*
X35138666Y-43035600D01*
X35189114Y-43289217D01*
X35303947Y-43461079D01*
X35158799Y-43606227D01*
X35043400Y-43884824D01*
X35043400Y-45142100D01*
X35232900Y-45331600D01*
X36597400Y-45331600D01*
X36597400Y-45311600D01*
X36605400Y-45311600D01*
X36605400Y-45331600D01*
X37969900Y-45331600D01*
X38159400Y-45142100D01*
X38159400Y-43884824D01*
X38044001Y-43606227D01*
X37898853Y-43461079D01*
X38013686Y-43289217D01*
X38053797Y-43087566D01*
X38395800Y-43429569D01*
X38395801Y-45593650D01*
X38375721Y-45694600D01*
X38455272Y-46094534D01*
X38624634Y-46348002D01*
X38624636Y-46348004D01*
X38681818Y-46433583D01*
X38767397Y-46490765D01*
X39208833Y-46932201D01*
X39266017Y-47017783D01*
X39591105Y-47235000D01*
X39605065Y-47244328D01*
X40005000Y-47323880D01*
X40105949Y-47303800D01*
X41453469Y-47303800D01*
X41467100Y-47324200D01*
X41500000Y-47346183D01*
X41500000Y-47504054D01*
X41479921Y-47605000D01*
X41500000Y-47705945D01*
X41500000Y-47705948D01*
X41559472Y-48004934D01*
X41786017Y-48343983D01*
X41871599Y-48401167D01*
X42383834Y-48913403D01*
X42441017Y-48998983D01*
X42526596Y-49056165D01*
X42526597Y-49056166D01*
X42716666Y-49183166D01*
X42780065Y-49225528D01*
X43079051Y-49285000D01*
X43079055Y-49285000D01*
X43180000Y-49305079D01*
X43280945Y-49285000D01*
X43795877Y-49285000D01*
X43515350Y-49401198D01*
X43051198Y-49865350D01*
X42800000Y-50471795D01*
X42800000Y-51128205D01*
X43051198Y-51734650D01*
X43515350Y-52198802D01*
X44121795Y-52450000D01*
X44778205Y-52450000D01*
X45384650Y-52198802D01*
X45848802Y-51734650D01*
X46100000Y-51128205D01*
X46100000Y-50471795D01*
X45848802Y-49865350D01*
X45384650Y-49401198D01*
X45104123Y-49285000D01*
X48505001Y-49285000D01*
X48505001Y-49491547D01*
X48131198Y-49865350D01*
X47880000Y-50471795D01*
X47880000Y-51128205D01*
X48131198Y-51734650D01*
X48595350Y-52198802D01*
X49201795Y-52450000D01*
X49858205Y-52450000D01*
X50464650Y-52198802D01*
X50727177Y-51936275D01*
X53479382Y-51936275D01*
X53559669Y-52252463D01*
X54195454Y-52543845D01*
X54894350Y-52569743D01*
X55549956Y-52326213D01*
X55660331Y-52252463D01*
X55740618Y-51936275D01*
X54610000Y-50805657D01*
X53479382Y-51936275D01*
X50727177Y-51936275D01*
X50928802Y-51734650D01*
X51180000Y-51128205D01*
X51180000Y-51084350D01*
X52840257Y-51084350D01*
X53083787Y-51739956D01*
X53157537Y-51850331D01*
X53473725Y-51930618D01*
X54604343Y-50800000D01*
X54615657Y-50800000D01*
X55746275Y-51930618D01*
X56062463Y-51850331D01*
X56353845Y-51214546D01*
X56379743Y-50515650D01*
X56319120Y-50352447D01*
X65314000Y-50352447D01*
X65314000Y-51247553D01*
X65656542Y-52074523D01*
X66289477Y-52707458D01*
X67116447Y-53050000D01*
X68011553Y-53050000D01*
X68838523Y-52707458D01*
X69471458Y-52074523D01*
X69814000Y-51247553D01*
X69814000Y-50352447D01*
X69471458Y-49525477D01*
X68838523Y-48892542D01*
X68011553Y-48550000D01*
X67116447Y-48550000D01*
X66289477Y-48892542D01*
X65656542Y-49525477D01*
X65314000Y-50352447D01*
X56319120Y-50352447D01*
X56136213Y-49860044D01*
X56062463Y-49749669D01*
X55746275Y-49669382D01*
X54615657Y-50800000D01*
X54604343Y-50800000D01*
X53473725Y-49669382D01*
X53157537Y-49749669D01*
X52866155Y-50385454D01*
X52840257Y-51084350D01*
X51180000Y-51084350D01*
X51180000Y-50471795D01*
X50928802Y-49865350D01*
X50727177Y-49663725D01*
X53479382Y-49663725D01*
X54610000Y-50794343D01*
X55740618Y-49663725D01*
X55660331Y-49347537D01*
X55024546Y-49056155D01*
X54325650Y-49030257D01*
X53670044Y-49273787D01*
X53559669Y-49347537D01*
X53479382Y-49663725D01*
X50727177Y-49663725D01*
X50555000Y-49491548D01*
X50555000Y-48614943D01*
X50575079Y-48513999D01*
X50562448Y-48450500D01*
X50575079Y-48386999D01*
X50555000Y-48286051D01*
X50504754Y-48033448D01*
X50495528Y-47987065D01*
X50381073Y-47815771D01*
X50270992Y-47651024D01*
X50355000Y-47667734D01*
X51180000Y-47667734D01*
X51529288Y-47598256D01*
X51825400Y-47400400D01*
X52023256Y-47104288D01*
X52092734Y-46755000D01*
X52092734Y-45955000D01*
X52023256Y-45605712D01*
X51825400Y-45309600D01*
X51778970Y-45278576D01*
X51968256Y-44995289D01*
X52037734Y-44646001D01*
X52037734Y-43745999D01*
X52003123Y-43572000D01*
X53505359Y-43572000D01*
X53594000Y-43589632D01*
X53682641Y-43572000D01*
X53682642Y-43572000D01*
X53945163Y-43519781D01*
X54242864Y-43320864D01*
X54293078Y-43245713D01*
X55818716Y-41720076D01*
X55893864Y-41669864D01*
X56092781Y-41372163D01*
X56145000Y-41109642D01*
X56145000Y-41109641D01*
X56162632Y-41021000D01*
X56145000Y-40932359D01*
X56145000Y-39879097D01*
X56159251Y-39885000D01*
X56616749Y-39885000D01*
X57039423Y-39709923D01*
X57362923Y-39386423D01*
X57538000Y-38963749D01*
X57538000Y-38506251D01*
X57369726Y-38100000D01*
X65027675Y-38100000D01*
X65155734Y-38743798D01*
X65520417Y-39289583D01*
X65640769Y-39370000D01*
X65520417Y-39450417D01*
X65155734Y-39996202D01*
X65027675Y-40640000D01*
X65155734Y-41283798D01*
X65520417Y-41829583D01*
X65640769Y-41910000D01*
X65520417Y-41990417D01*
X65155734Y-42536202D01*
X65027675Y-43180000D01*
X65155734Y-43823798D01*
X65520417Y-44369583D01*
X66066202Y-44734266D01*
X66547491Y-44830000D01*
X68072509Y-44830000D01*
X68553798Y-44734266D01*
X69099583Y-44369583D01*
X69464266Y-43823798D01*
X69592325Y-43180000D01*
X69464266Y-42536202D01*
X69099583Y-41990417D01*
X68979231Y-41910000D01*
X69099583Y-41829583D01*
X69464266Y-41283798D01*
X69592325Y-40640000D01*
X69464266Y-39996202D01*
X69099583Y-39450417D01*
X68979231Y-39370000D01*
X69099583Y-39289583D01*
X69464266Y-38743798D01*
X69592325Y-38100000D01*
X69464266Y-37456202D01*
X69218813Y-37088857D01*
X69350720Y-37000720D01*
X69516484Y-36752635D01*
X69574693Y-36460000D01*
X69574693Y-34660000D01*
X69516484Y-34367365D01*
X69350720Y-34119280D01*
X69102635Y-33953516D01*
X68810000Y-33895307D01*
X65810000Y-33895307D01*
X65517365Y-33953516D01*
X65269280Y-34119280D01*
X65103516Y-34367365D01*
X65045307Y-34660000D01*
X65045307Y-36460000D01*
X65103516Y-36752635D01*
X65269280Y-37000720D01*
X65401187Y-37088857D01*
X65155734Y-37456202D01*
X65027675Y-38100000D01*
X57369726Y-38100000D01*
X57362923Y-38083577D01*
X57039423Y-37760077D01*
X56616749Y-37585000D01*
X56232734Y-37585000D01*
X56232734Y-37540000D01*
X56182286Y-37286383D01*
X56038624Y-37071376D01*
X55823617Y-36927714D01*
X55570000Y-36877266D01*
X54920000Y-36877266D01*
X54666383Y-36927714D01*
X54451376Y-37071376D01*
X54307714Y-37286383D01*
X54257266Y-37540000D01*
X54257266Y-39540000D01*
X54307714Y-39793617D01*
X54345000Y-39849421D01*
X54345000Y-40648208D01*
X53221209Y-41772000D01*
X52782291Y-41772000D01*
X53278715Y-41275577D01*
X53353864Y-41225364D01*
X53552781Y-40927663D01*
X53577499Y-40803399D01*
X53622632Y-40576501D01*
X53605000Y-40487860D01*
X53605000Y-40286846D01*
X53679923Y-40211923D01*
X53855000Y-39789249D01*
X53855000Y-39331751D01*
X53679923Y-38909077D01*
X53356423Y-38585577D01*
X52970774Y-38425836D01*
X52972766Y-38422856D01*
X53077582Y-38265987D01*
X53077583Y-38265986D01*
X53124000Y-38032631D01*
X53124000Y-38032627D01*
X53139671Y-37953843D01*
X53124000Y-37875059D01*
X53124000Y-36145370D01*
X53307266Y-35962105D01*
X53307266Y-36120000D01*
X53357714Y-36373617D01*
X53501376Y-36588624D01*
X53716383Y-36732286D01*
X53970000Y-36782734D01*
X54620000Y-36782734D01*
X54873617Y-36732286D01*
X55088624Y-36588624D01*
X55184328Y-36445391D01*
X55227399Y-36549373D01*
X55440628Y-36762602D01*
X55719225Y-36878000D01*
X56001500Y-36878000D01*
X56191000Y-36688500D01*
X56191000Y-35124000D01*
X56199000Y-35124000D01*
X56199000Y-36688500D01*
X56388500Y-36878000D01*
X56670775Y-36878000D01*
X56949372Y-36762602D01*
X57162601Y-36549373D01*
X57278000Y-36270776D01*
X57278000Y-35313500D01*
X57088500Y-35124000D01*
X56199000Y-35124000D01*
X56191000Y-35124000D01*
X56171000Y-35124000D01*
X56171000Y-35116000D01*
X56191000Y-35116000D01*
X56191000Y-33551500D01*
X56199000Y-33551500D01*
X56199000Y-35116000D01*
X57088500Y-35116000D01*
X57278000Y-34926500D01*
X57278000Y-33969224D01*
X57162601Y-33690627D01*
X56949372Y-33477398D01*
X56670775Y-33362000D01*
X56388500Y-33362000D01*
X56199000Y-33551500D01*
X56191000Y-33551500D01*
X56001500Y-33362000D01*
X55719225Y-33362000D01*
X55440628Y-33477398D01*
X55227399Y-33690627D01*
X55184328Y-33794609D01*
X55088624Y-33651376D01*
X54873617Y-33507714D01*
X54620000Y-33457266D01*
X53970000Y-33457266D01*
X53716383Y-33507714D01*
X53501376Y-33651376D01*
X53357714Y-33866383D01*
X53307266Y-34120000D01*
X53307266Y-34320000D01*
X53096783Y-34320000D01*
X53017999Y-34304329D01*
X52939215Y-34320000D01*
X52939211Y-34320000D01*
X52705856Y-34366417D01*
X52660436Y-34396766D01*
X52527237Y-34485767D01*
X52441233Y-34543233D01*
X52396603Y-34610026D01*
X52069561Y-34937069D01*
X52017602Y-34811628D01*
X51804373Y-34598399D01*
X51525776Y-34483000D01*
X50993500Y-34483000D01*
X50804000Y-34672500D01*
X50804000Y-35937000D01*
X50824000Y-35937000D01*
X50824000Y-35945000D01*
X50804000Y-35945000D01*
X50804000Y-35965000D01*
X50796000Y-35965000D01*
X50796000Y-35945000D01*
X50776000Y-35945000D01*
X50776000Y-35937000D01*
X50796000Y-35937000D01*
X50796000Y-34672500D01*
X50606500Y-34483000D01*
X50074224Y-34483000D01*
X49795627Y-34598399D01*
X49617310Y-34776716D01*
X49424289Y-34647744D01*
X49075001Y-34578266D01*
X48424999Y-34578266D01*
X48075711Y-34647744D01*
X47779599Y-34845599D01*
X47581744Y-35141711D01*
X47512266Y-35490999D01*
X47512266Y-36391001D01*
X47581744Y-36740289D01*
X47779599Y-37036401D01*
X47980390Y-37170565D01*
X47996418Y-37251144D01*
X48050272Y-37331742D01*
X47779599Y-37512599D01*
X47771480Y-37524750D01*
X47322784Y-37524750D01*
X47244000Y-37509079D01*
X47165216Y-37524750D01*
X47165211Y-37524750D01*
X46931856Y-37571167D01*
X46702405Y-37724481D01*
X46695777Y-37717853D01*
X46309858Y-37558000D01*
X45892142Y-37558000D01*
X45564734Y-37693617D01*
X45564734Y-37540000D01*
X45514286Y-37286383D01*
X45370624Y-37071376D01*
X45155617Y-36927714D01*
X44902000Y-36877266D01*
X44252000Y-36877266D01*
X43998383Y-36927714D01*
X43783376Y-37071376D01*
X43639714Y-37286383D01*
X43589266Y-37540000D01*
X43589266Y-37615083D01*
X43583423Y-37600977D01*
X43259923Y-37277477D01*
X42837249Y-37102400D01*
X42429000Y-37102400D01*
X42429000Y-35397346D01*
X42503923Y-35322423D01*
X42639266Y-34995676D01*
X42639266Y-36120000D01*
X42689714Y-36373617D01*
X42833376Y-36588624D01*
X43048383Y-36732286D01*
X43302000Y-36782734D01*
X43952000Y-36782734D01*
X44205617Y-36732286D01*
X44420624Y-36588624D01*
X44516328Y-36445391D01*
X44559399Y-36549373D01*
X44772628Y-36762602D01*
X45051225Y-36878000D01*
X45333500Y-36878000D01*
X45523000Y-36688500D01*
X45523000Y-35124000D01*
X45531000Y-35124000D01*
X45531000Y-36688500D01*
X45720500Y-36878000D01*
X46002775Y-36878000D01*
X46281372Y-36762602D01*
X46494601Y-36549373D01*
X46610000Y-36270776D01*
X46610000Y-35313500D01*
X46420500Y-35124000D01*
X45531000Y-35124000D01*
X45523000Y-35124000D01*
X45503000Y-35124000D01*
X45503000Y-35116000D01*
X45523000Y-35116000D01*
X45523000Y-33551500D01*
X45531000Y-33551500D01*
X45531000Y-35116000D01*
X46420500Y-35116000D01*
X46610000Y-34926500D01*
X46610000Y-33969224D01*
X46494601Y-33690627D01*
X46281372Y-33477398D01*
X46002775Y-33362000D01*
X45720500Y-33362000D01*
X45531000Y-33551500D01*
X45523000Y-33551500D01*
X45333500Y-33362000D01*
X45051225Y-33362000D01*
X44772628Y-33477398D01*
X44559399Y-33690627D01*
X44516328Y-33794609D01*
X44420624Y-33651376D01*
X44407369Y-33642519D01*
X44380583Y-33507856D01*
X44203767Y-33243233D01*
X44136972Y-33198602D01*
X43829398Y-32891028D01*
X43784767Y-32824233D01*
X43520144Y-32647417D01*
X43286789Y-32601000D01*
X43286784Y-32601000D01*
X43208000Y-32585329D01*
X43129216Y-32601000D01*
X40845783Y-32601000D01*
X40766999Y-32585329D01*
X40688215Y-32601000D01*
X40688211Y-32601000D01*
X40454856Y-32647417D01*
X40190233Y-32824233D01*
X40145602Y-32891028D01*
X39749028Y-33287602D01*
X39682233Y-33332233D01*
X39505417Y-33596857D01*
X39459000Y-33830212D01*
X39459000Y-33830216D01*
X39443329Y-33909000D01*
X39459000Y-33987784D01*
X39459000Y-34985741D01*
X39391690Y-35030716D01*
X39213373Y-34852399D01*
X38934776Y-34737000D01*
X38402500Y-34737000D01*
X38213000Y-34926500D01*
X38213000Y-36191000D01*
X38233000Y-36191000D01*
X38233000Y-36199000D01*
X38213000Y-36199000D01*
X38213000Y-36219000D01*
X38205000Y-36219000D01*
X38205000Y-36199000D01*
X37065500Y-36199000D01*
X36876000Y-36388500D01*
X36876000Y-37045775D01*
X36991398Y-37324372D01*
X37204627Y-37537601D01*
X37319832Y-37585321D01*
X37238599Y-37639599D01*
X37041219Y-37935000D01*
X35256371Y-37935000D01*
X34693798Y-37372428D01*
X34649167Y-37305633D01*
X34384544Y-37128817D01*
X34151189Y-37082400D01*
X34151184Y-37082400D01*
X34072400Y-37066729D01*
X33993616Y-37082400D01*
X33273491Y-37082400D01*
X33085439Y-36800961D01*
X32803238Y-36612400D01*
X33085439Y-36423839D01*
X33416968Y-35927671D01*
X33533022Y-35344225D01*
X36876000Y-35344225D01*
X36876000Y-36001500D01*
X37065500Y-36191000D01*
X38205000Y-36191000D01*
X38205000Y-34926500D01*
X38015500Y-34737000D01*
X37483224Y-34737000D01*
X37204627Y-34852399D01*
X36991398Y-35065628D01*
X36876000Y-35344225D01*
X33533022Y-35344225D01*
X33533386Y-35342400D01*
X33416968Y-34757129D01*
X33085439Y-34260961D01*
X32589271Y-33929432D01*
X32151733Y-33842400D01*
X31856267Y-33842400D01*
X31418729Y-33929432D01*
X31139010Y-34116334D01*
X31139010Y-33810558D01*
X32051323Y-32898246D01*
X32136903Y-32841063D01*
X32363448Y-32502015D01*
X32422920Y-32203029D01*
X32422920Y-32203025D01*
X32442999Y-32102080D01*
X32422920Y-32001135D01*
X32422920Y-31528575D01*
X32443320Y-31514944D01*
X32632320Y-31232086D01*
X32632320Y-31245320D01*
X32747719Y-31523917D01*
X32960948Y-31737146D01*
X33239545Y-31852544D01*
X33896820Y-31852544D01*
X34086320Y-31663044D01*
X34086320Y-30523544D01*
X34094320Y-30523544D01*
X34094320Y-31663044D01*
X34283820Y-31852544D01*
X34941095Y-31852544D01*
X35219692Y-31737146D01*
X35432921Y-31523917D01*
X35548320Y-31245320D01*
X35548320Y-30713044D01*
X35358820Y-30523544D01*
X34094320Y-30523544D01*
X34086320Y-30523544D01*
X34066320Y-30523544D01*
X34066320Y-30515544D01*
X34086320Y-30515544D01*
X34086320Y-30495544D01*
X34094320Y-30495544D01*
X34094320Y-30515544D01*
X35358820Y-30515544D01*
X35548320Y-30326044D01*
X35548320Y-29793768D01*
X35467974Y-29599795D01*
X38228000Y-29599795D01*
X38228000Y-30256205D01*
X38479198Y-30862650D01*
X38943350Y-31326802D01*
X39549795Y-31578000D01*
X40206205Y-31578000D01*
X40812650Y-31326802D01*
X41276802Y-30862650D01*
X41528000Y-30256205D01*
X41528000Y-29599795D01*
X41778000Y-29599795D01*
X41778000Y-30256205D01*
X42029198Y-30862650D01*
X42493350Y-31326802D01*
X43099795Y-31578000D01*
X43756205Y-31578000D01*
X44362650Y-31326802D01*
X44826802Y-30862650D01*
X45078000Y-30256205D01*
X45078000Y-29599795D01*
X45049163Y-29530175D01*
X50578000Y-29530175D01*
X50578000Y-30325825D01*
X50882482Y-31060909D01*
X51445091Y-31623518D01*
X52180175Y-31928000D01*
X52975825Y-31928000D01*
X53710909Y-31623518D01*
X54273518Y-31060909D01*
X54578000Y-30325825D01*
X54578000Y-29530175D01*
X58198000Y-29530175D01*
X58198000Y-30325825D01*
X58502482Y-31060909D01*
X59065091Y-31623518D01*
X59800175Y-31928000D01*
X60595825Y-31928000D01*
X61330909Y-31623518D01*
X61893518Y-31060909D01*
X62198000Y-30325825D01*
X62198000Y-29530175D01*
X61893518Y-28795091D01*
X61330909Y-28232482D01*
X60595825Y-27928000D01*
X59800175Y-27928000D01*
X59065091Y-28232482D01*
X58502482Y-28795091D01*
X58198000Y-29530175D01*
X54578000Y-29530175D01*
X54273518Y-28795091D01*
X53710909Y-28232482D01*
X52975825Y-27928000D01*
X52180175Y-27928000D01*
X51445091Y-28232482D01*
X50882482Y-28795091D01*
X50578000Y-29530175D01*
X45049163Y-29530175D01*
X44826802Y-28993350D01*
X44362650Y-28529198D01*
X43756205Y-28278000D01*
X43099795Y-28278000D01*
X42493350Y-28529198D01*
X42029198Y-28993350D01*
X41778000Y-29599795D01*
X41528000Y-29599795D01*
X41276802Y-28993350D01*
X40812650Y-28529198D01*
X40206205Y-28278000D01*
X39549795Y-28278000D01*
X38943350Y-28529198D01*
X38479198Y-28993350D01*
X38228000Y-29599795D01*
X35467974Y-29599795D01*
X35432921Y-29515171D01*
X35254604Y-29336854D01*
X35383576Y-29143833D01*
X35453054Y-28794545D01*
X35453054Y-28144543D01*
X35383576Y-27795255D01*
X35185721Y-27499143D01*
X34889609Y-27301288D01*
X34540321Y-27231810D01*
X33640319Y-27231810D01*
X33291031Y-27301288D01*
X32994919Y-27499143D01*
X32839300Y-27732044D01*
X32615644Y-27732044D01*
X32443320Y-27474144D01*
X32147208Y-27276288D01*
X31797920Y-27206810D01*
X30997920Y-27206810D01*
X30648632Y-27276288D01*
X30352520Y-27474144D01*
X30189000Y-27718869D01*
X30189000Y-21627992D01*
X30240032Y-21142447D01*
X30770000Y-21142447D01*
X30770000Y-22037553D01*
X31112542Y-22864523D01*
X31745477Y-23497458D01*
X32572447Y-23840000D01*
X33467553Y-23840000D01*
X34294523Y-23497458D01*
X34927458Y-22864523D01*
X35083503Y-22487795D01*
X38228000Y-22487795D01*
X38228000Y-23144205D01*
X38479198Y-23750650D01*
X38943350Y-24214802D01*
X39549795Y-24466000D01*
X40206205Y-24466000D01*
X40812650Y-24214802D01*
X41276802Y-23750650D01*
X41528000Y-23144205D01*
X41528000Y-22487795D01*
X41778000Y-22487795D01*
X41778000Y-23144205D01*
X42029198Y-23750650D01*
X42493350Y-24214802D01*
X43099795Y-24466000D01*
X43756205Y-24466000D01*
X44362650Y-24214802D01*
X44826802Y-23750650D01*
X45078000Y-23144205D01*
X45078000Y-22487795D01*
X45049163Y-22418175D01*
X50578000Y-22418175D01*
X50578000Y-23213825D01*
X50882482Y-23948909D01*
X51445091Y-24511518D01*
X52180175Y-24816000D01*
X52975825Y-24816000D01*
X53710909Y-24511518D01*
X54273518Y-23948909D01*
X54578000Y-23213825D01*
X54578000Y-22418175D01*
X58198000Y-22418175D01*
X58198000Y-23213825D01*
X58502482Y-23948909D01*
X59065091Y-24511518D01*
X59800175Y-24816000D01*
X60595825Y-24816000D01*
X61330909Y-24511518D01*
X61893518Y-23948909D01*
X62198000Y-23213825D01*
X62198000Y-22418175D01*
X61893518Y-21683091D01*
X61352874Y-21142447D01*
X65314000Y-21142447D01*
X65314000Y-22037553D01*
X65656542Y-22864523D01*
X66289477Y-23497458D01*
X67116447Y-23840000D01*
X68011553Y-23840000D01*
X68838523Y-23497458D01*
X69471458Y-22864523D01*
X69814000Y-22037553D01*
X69814000Y-21142447D01*
X69471458Y-20315477D01*
X68838523Y-19682542D01*
X68011553Y-19340000D01*
X67116447Y-19340000D01*
X66289477Y-19682542D01*
X65656542Y-20315477D01*
X65314000Y-21142447D01*
X61352874Y-21142447D01*
X61330909Y-21120482D01*
X60595825Y-20816000D01*
X59800175Y-20816000D01*
X59065091Y-21120482D01*
X58502482Y-21683091D01*
X58198000Y-22418175D01*
X54578000Y-22418175D01*
X54273518Y-21683091D01*
X53710909Y-21120482D01*
X52975825Y-20816000D01*
X52180175Y-20816000D01*
X51445091Y-21120482D01*
X50882482Y-21683091D01*
X50578000Y-22418175D01*
X45049163Y-22418175D01*
X44826802Y-21881350D01*
X44362650Y-21417198D01*
X43756205Y-21166000D01*
X43099795Y-21166000D01*
X42493350Y-21417198D01*
X42029198Y-21881350D01*
X41778000Y-22487795D01*
X41528000Y-22487795D01*
X41276802Y-21881350D01*
X40812650Y-21417198D01*
X40206205Y-21166000D01*
X39549795Y-21166000D01*
X38943350Y-21417198D01*
X38479198Y-21881350D01*
X38228000Y-22487795D01*
X35083503Y-22487795D01*
X35270000Y-22037553D01*
X35270000Y-21142447D01*
X34927458Y-20315477D01*
X34294523Y-19682542D01*
X33467553Y-19340000D01*
X32572447Y-19340000D01*
X31745477Y-19682542D01*
X31112542Y-20315477D01*
X30770000Y-21142447D01*
X30240032Y-21142447D01*
X30254770Y-21002233D01*
X30437400Y-20440154D01*
X30732904Y-19928328D01*
X31128364Y-19489124D01*
X31606497Y-19141740D01*
X32146405Y-18901357D01*
X32743224Y-18774500D01*
X33038976Y-18759000D01*
X67526008Y-18759000D01*
X68151767Y-18824770D01*
X68151767Y-18824770D01*
G37*
X68151767Y-18824770D02*
X68713846Y-19007400D01*
X69225672Y-19302904D01*
X69664876Y-19698364D01*
X70012260Y-20176497D01*
X70252643Y-20716405D01*
X70379500Y-21313224D01*
X70395000Y-21608976D01*
X70395001Y-50761999D01*
X70329230Y-51387767D01*
X70146600Y-51949846D01*
X69851096Y-52461672D01*
X69455634Y-52900877D01*
X68977503Y-53248260D01*
X68437595Y-53488643D01*
X67840776Y-53615500D01*
X67545024Y-53631000D01*
X33057992Y-53631000D01*
X32432233Y-53565230D01*
X31870154Y-53382600D01*
X31358328Y-53087096D01*
X30919123Y-52691634D01*
X30571740Y-52213503D01*
X30331357Y-51673595D01*
X30204500Y-51076776D01*
X30189000Y-50781024D01*
X30189000Y-50352447D01*
X30770000Y-50352447D01*
X30770000Y-51247553D01*
X31112542Y-52074523D01*
X31745477Y-52707458D01*
X32572447Y-53050000D01*
X33467553Y-53050000D01*
X34294523Y-52707458D01*
X34927458Y-52074523D01*
X35270000Y-51247553D01*
X35270000Y-50569596D01*
X37720000Y-50569596D01*
X37720000Y-51226006D01*
X37971198Y-51832451D01*
X38435350Y-52296603D01*
X39041795Y-52547801D01*
X39698205Y-52547801D01*
X40304650Y-52296603D01*
X40768802Y-51832451D01*
X41020000Y-51226006D01*
X41020000Y-50569596D01*
X40768802Y-49963151D01*
X40304650Y-49498999D01*
X39698205Y-49247801D01*
X39041795Y-49247801D01*
X38435350Y-49498999D01*
X37971198Y-49963151D01*
X37720000Y-50569596D01*
X35270000Y-50569596D01*
X35270000Y-50352447D01*
X34927458Y-49525477D01*
X34294523Y-48892542D01*
X33467553Y-48550000D01*
X32572447Y-48550000D01*
X31745477Y-48892542D01*
X31112542Y-49525477D01*
X30770000Y-50352447D01*
X30189000Y-50352447D01*
X30189000Y-45529100D01*
X35043400Y-45529100D01*
X35043400Y-46786376D01*
X35158799Y-47064973D01*
X35372028Y-47278202D01*
X35650625Y-47393600D01*
X36407900Y-47393600D01*
X36597400Y-47204100D01*
X36597400Y-45339600D01*
X36605400Y-45339600D01*
X36605400Y-47204100D01*
X36794900Y-47393600D01*
X37552175Y-47393600D01*
X37830772Y-47278202D01*
X38044001Y-47064973D01*
X38159400Y-46786376D01*
X38159400Y-45529100D01*
X37969900Y-45339600D01*
X36605400Y-45339600D01*
X36597400Y-45339600D01*
X35232900Y-45339600D01*
X35043400Y-45529100D01*
X30189000Y-45529100D01*
X30189000Y-43155900D01*
X30396000Y-43155900D01*
X30396000Y-43963175D01*
X30511398Y-44241772D01*
X30724627Y-44455001D01*
X31003224Y-44570400D01*
X31810500Y-44570400D01*
X32000000Y-44380900D01*
X32000000Y-42966400D01*
X32008000Y-42966400D01*
X32008000Y-44380900D01*
X32197500Y-44570400D01*
X33004776Y-44570400D01*
X33283373Y-44455001D01*
X33496602Y-44241772D01*
X33612000Y-43963175D01*
X33612000Y-43155900D01*
X33422500Y-42966400D01*
X32008000Y-42966400D01*
X32000000Y-42966400D01*
X30585500Y-42966400D01*
X30396000Y-43155900D01*
X30189000Y-43155900D01*
X30189000Y-41266677D01*
X30370465Y-41387928D01*
X30743259Y-41462081D01*
X30724627Y-41469799D01*
X30511398Y-41683028D01*
X30396000Y-41961625D01*
X30396000Y-42768900D01*
X30585500Y-42958400D01*
X32000000Y-42958400D01*
X32000000Y-42938400D01*
X32008000Y-42938400D01*
X32008000Y-42958400D01*
X33422500Y-42958400D01*
X33612000Y-42768900D01*
X33612000Y-42054731D01*
X33636599Y-42071167D01*
X33954433Y-42389001D01*
X34011617Y-42474583D01*
X34350665Y-42701128D01*
X34649651Y-42760600D01*
X34649655Y-42760600D01*
X34750600Y-42780679D01*
X34851545Y-42760600D01*
X35138666Y-42760600D01*
X35138666Y-43035600D01*
X35189114Y-43289217D01*
X35303947Y-43461079D01*
X35158799Y-43606227D01*
X35043400Y-43884824D01*
X35043400Y-45142100D01*
X35232900Y-45331600D01*
X36597400Y-45331600D01*
X36597400Y-45311600D01*
X36605400Y-45311600D01*
X36605400Y-45331600D01*
X37969900Y-45331600D01*
X38159400Y-45142100D01*
X38159400Y-43884824D01*
X38044001Y-43606227D01*
X37898853Y-43461079D01*
X38013686Y-43289217D01*
X38053797Y-43087566D01*
X38395800Y-43429569D01*
X38395801Y-45593650D01*
X38375721Y-45694600D01*
X38455272Y-46094534D01*
X38624634Y-46348002D01*
X38624636Y-46348004D01*
X38681818Y-46433583D01*
X38767397Y-46490765D01*
X39208833Y-46932201D01*
X39266017Y-47017783D01*
X39591105Y-47235000D01*
X39605065Y-47244328D01*
X40005000Y-47323880D01*
X40105949Y-47303800D01*
X41453469Y-47303800D01*
X41467100Y-47324200D01*
X41500000Y-47346183D01*
X41500000Y-47504054D01*
X41479921Y-47605000D01*
X41500000Y-47705945D01*
X41500000Y-47705948D01*
X41559472Y-48004934D01*
X41786017Y-48343983D01*
X41871599Y-48401167D01*
X42383834Y-48913403D01*
X42441017Y-48998983D01*
X42526596Y-49056165D01*
X42526597Y-49056166D01*
X42716666Y-49183166D01*
X42780065Y-49225528D01*
X43079051Y-49285000D01*
X43079055Y-49285000D01*
X43180000Y-49305079D01*
X43280945Y-49285000D01*
X43795877Y-49285000D01*
X43515350Y-49401198D01*
X43051198Y-49865350D01*
X42800000Y-50471795D01*
X42800000Y-51128205D01*
X43051198Y-51734650D01*
X43515350Y-52198802D01*
X44121795Y-52450000D01*
X44778205Y-52450000D01*
X45384650Y-52198802D01*
X45848802Y-51734650D01*
X46100000Y-51128205D01*
X46100000Y-50471795D01*
X45848802Y-49865350D01*
X45384650Y-49401198D01*
X45104123Y-49285000D01*
X48505001Y-49285000D01*
X48505001Y-49491547D01*
X48131198Y-49865350D01*
X47880000Y-50471795D01*
X47880000Y-51128205D01*
X48131198Y-51734650D01*
X48595350Y-52198802D01*
X49201795Y-52450000D01*
X49858205Y-52450000D01*
X50464650Y-52198802D01*
X50727177Y-51936275D01*
X53479382Y-51936275D01*
X53559669Y-52252463D01*
X54195454Y-52543845D01*
X54894350Y-52569743D01*
X55549956Y-52326213D01*
X55660331Y-52252463D01*
X55740618Y-51936275D01*
X54610000Y-50805657D01*
X53479382Y-51936275D01*
X50727177Y-51936275D01*
X50928802Y-51734650D01*
X51180000Y-51128205D01*
X51180000Y-51084350D01*
X52840257Y-51084350D01*
X53083787Y-51739956D01*
X53157537Y-51850331D01*
X53473725Y-51930618D01*
X54604343Y-50800000D01*
X54615657Y-50800000D01*
X55746275Y-51930618D01*
X56062463Y-51850331D01*
X56353845Y-51214546D01*
X56379743Y-50515650D01*
X56319120Y-50352447D01*
X65314000Y-50352447D01*
X65314000Y-51247553D01*
X65656542Y-52074523D01*
X66289477Y-52707458D01*
X67116447Y-53050000D01*
X68011553Y-53050000D01*
X68838523Y-52707458D01*
X69471458Y-52074523D01*
X69814000Y-51247553D01*
X69814000Y-50352447D01*
X69471458Y-49525477D01*
X68838523Y-48892542D01*
X68011553Y-48550000D01*
X67116447Y-48550000D01*
X66289477Y-48892542D01*
X65656542Y-49525477D01*
X65314000Y-50352447D01*
X56319120Y-50352447D01*
X56136213Y-49860044D01*
X56062463Y-49749669D01*
X55746275Y-49669382D01*
X54615657Y-50800000D01*
X54604343Y-50800000D01*
X53473725Y-49669382D01*
X53157537Y-49749669D01*
X52866155Y-50385454D01*
X52840257Y-51084350D01*
X51180000Y-51084350D01*
X51180000Y-50471795D01*
X50928802Y-49865350D01*
X50727177Y-49663725D01*
X53479382Y-49663725D01*
X54610000Y-50794343D01*
X55740618Y-49663725D01*
X55660331Y-49347537D01*
X55024546Y-49056155D01*
X54325650Y-49030257D01*
X53670044Y-49273787D01*
X53559669Y-49347537D01*
X53479382Y-49663725D01*
X50727177Y-49663725D01*
X50555000Y-49491548D01*
X50555000Y-48614943D01*
X50575079Y-48513999D01*
X50562448Y-48450500D01*
X50575079Y-48386999D01*
X50555000Y-48286051D01*
X50504754Y-48033448D01*
X50495528Y-47987065D01*
X50381073Y-47815771D01*
X50270992Y-47651024D01*
X50355000Y-47667734D01*
X51180000Y-47667734D01*
X51529288Y-47598256D01*
X51825400Y-47400400D01*
X52023256Y-47104288D01*
X52092734Y-46755000D01*
X52092734Y-45955000D01*
X52023256Y-45605712D01*
X51825400Y-45309600D01*
X51778970Y-45278576D01*
X51968256Y-44995289D01*
X52037734Y-44646001D01*
X52037734Y-43745999D01*
X52003123Y-43572000D01*
X53505359Y-43572000D01*
X53594000Y-43589632D01*
X53682641Y-43572000D01*
X53682642Y-43572000D01*
X53945163Y-43519781D01*
X54242864Y-43320864D01*
X54293078Y-43245713D01*
X55818716Y-41720076D01*
X55893864Y-41669864D01*
X56092781Y-41372163D01*
X56145000Y-41109642D01*
X56145000Y-41109641D01*
X56162632Y-41021000D01*
X56145000Y-40932359D01*
X56145000Y-39879097D01*
X56159251Y-39885000D01*
X56616749Y-39885000D01*
X57039423Y-39709923D01*
X57362923Y-39386423D01*
X57538000Y-38963749D01*
X57538000Y-38506251D01*
X57369726Y-38100000D01*
X65027675Y-38100000D01*
X65155734Y-38743798D01*
X65520417Y-39289583D01*
X65640769Y-39370000D01*
X65520417Y-39450417D01*
X65155734Y-39996202D01*
X65027675Y-40640000D01*
X65155734Y-41283798D01*
X65520417Y-41829583D01*
X65640769Y-41910000D01*
X65520417Y-41990417D01*
X65155734Y-42536202D01*
X65027675Y-43180000D01*
X65155734Y-43823798D01*
X65520417Y-44369583D01*
X66066202Y-44734266D01*
X66547491Y-44830000D01*
X68072509Y-44830000D01*
X68553798Y-44734266D01*
X69099583Y-44369583D01*
X69464266Y-43823798D01*
X69592325Y-43180000D01*
X69464266Y-42536202D01*
X69099583Y-41990417D01*
X68979231Y-41910000D01*
X69099583Y-41829583D01*
X69464266Y-41283798D01*
X69592325Y-40640000D01*
X69464266Y-39996202D01*
X69099583Y-39450417D01*
X68979231Y-39370000D01*
X69099583Y-39289583D01*
X69464266Y-38743798D01*
X69592325Y-38100000D01*
X69464266Y-37456202D01*
X69218813Y-37088857D01*
X69350720Y-37000720D01*
X69516484Y-36752635D01*
X69574693Y-36460000D01*
X69574693Y-34660000D01*
X69516484Y-34367365D01*
X69350720Y-34119280D01*
X69102635Y-33953516D01*
X68810000Y-33895307D01*
X65810000Y-33895307D01*
X65517365Y-33953516D01*
X65269280Y-34119280D01*
X65103516Y-34367365D01*
X65045307Y-34660000D01*
X65045307Y-36460000D01*
X65103516Y-36752635D01*
X65269280Y-37000720D01*
X65401187Y-37088857D01*
X65155734Y-37456202D01*
X65027675Y-38100000D01*
X57369726Y-38100000D01*
X57362923Y-38083577D01*
X57039423Y-37760077D01*
X56616749Y-37585000D01*
X56232734Y-37585000D01*
X56232734Y-37540000D01*
X56182286Y-37286383D01*
X56038624Y-37071376D01*
X55823617Y-36927714D01*
X55570000Y-36877266D01*
X54920000Y-36877266D01*
X54666383Y-36927714D01*
X54451376Y-37071376D01*
X54307714Y-37286383D01*
X54257266Y-37540000D01*
X54257266Y-39540000D01*
X54307714Y-39793617D01*
X54345000Y-39849421D01*
X54345000Y-40648208D01*
X53221209Y-41772000D01*
X52782291Y-41772000D01*
X53278715Y-41275577D01*
X53353864Y-41225364D01*
X53552781Y-40927663D01*
X53577499Y-40803399D01*
X53622632Y-40576501D01*
X53605000Y-40487860D01*
X53605000Y-40286846D01*
X53679923Y-40211923D01*
X53855000Y-39789249D01*
X53855000Y-39331751D01*
X53679923Y-38909077D01*
X53356423Y-38585577D01*
X52970774Y-38425836D01*
X52972766Y-38422856D01*
X53077582Y-38265987D01*
X53077583Y-38265986D01*
X53124000Y-38032631D01*
X53124000Y-38032627D01*
X53139671Y-37953843D01*
X53124000Y-37875059D01*
X53124000Y-36145370D01*
X53307266Y-35962105D01*
X53307266Y-36120000D01*
X53357714Y-36373617D01*
X53501376Y-36588624D01*
X53716383Y-36732286D01*
X53970000Y-36782734D01*
X54620000Y-36782734D01*
X54873617Y-36732286D01*
X55088624Y-36588624D01*
X55184328Y-36445391D01*
X55227399Y-36549373D01*
X55440628Y-36762602D01*
X55719225Y-36878000D01*
X56001500Y-36878000D01*
X56191000Y-36688500D01*
X56191000Y-35124000D01*
X56199000Y-35124000D01*
X56199000Y-36688500D01*
X56388500Y-36878000D01*
X56670775Y-36878000D01*
X56949372Y-36762602D01*
X57162601Y-36549373D01*
X57278000Y-36270776D01*
X57278000Y-35313500D01*
X57088500Y-35124000D01*
X56199000Y-35124000D01*
X56191000Y-35124000D01*
X56171000Y-35124000D01*
X56171000Y-35116000D01*
X56191000Y-35116000D01*
X56191000Y-33551500D01*
X56199000Y-33551500D01*
X56199000Y-35116000D01*
X57088500Y-35116000D01*
X57278000Y-34926500D01*
X57278000Y-33969224D01*
X57162601Y-33690627D01*
X56949372Y-33477398D01*
X56670775Y-33362000D01*
X56388500Y-33362000D01*
X56199000Y-33551500D01*
X56191000Y-33551500D01*
X56001500Y-33362000D01*
X55719225Y-33362000D01*
X55440628Y-33477398D01*
X55227399Y-33690627D01*
X55184328Y-33794609D01*
X55088624Y-33651376D01*
X54873617Y-33507714D01*
X54620000Y-33457266D01*
X53970000Y-33457266D01*
X53716383Y-33507714D01*
X53501376Y-33651376D01*
X53357714Y-33866383D01*
X53307266Y-34120000D01*
X53307266Y-34320000D01*
X53096783Y-34320000D01*
X53017999Y-34304329D01*
X52939215Y-34320000D01*
X52939211Y-34320000D01*
X52705856Y-34366417D01*
X52660436Y-34396766D01*
X52527237Y-34485767D01*
X52441233Y-34543233D01*
X52396603Y-34610026D01*
X52069561Y-34937069D01*
X52017602Y-34811628D01*
X51804373Y-34598399D01*
X51525776Y-34483000D01*
X50993500Y-34483000D01*
X50804000Y-34672500D01*
X50804000Y-35937000D01*
X50824000Y-35937000D01*
X50824000Y-35945000D01*
X50804000Y-35945000D01*
X50804000Y-35965000D01*
X50796000Y-35965000D01*
X50796000Y-35945000D01*
X50776000Y-35945000D01*
X50776000Y-35937000D01*
X50796000Y-35937000D01*
X50796000Y-34672500D01*
X50606500Y-34483000D01*
X50074224Y-34483000D01*
X49795627Y-34598399D01*
X49617310Y-34776716D01*
X49424289Y-34647744D01*
X49075001Y-34578266D01*
X48424999Y-34578266D01*
X48075711Y-34647744D01*
X47779599Y-34845599D01*
X47581744Y-35141711D01*
X47512266Y-35490999D01*
X47512266Y-36391001D01*
X47581744Y-36740289D01*
X47779599Y-37036401D01*
X47980390Y-37170565D01*
X47996418Y-37251144D01*
X48050272Y-37331742D01*
X47779599Y-37512599D01*
X47771480Y-37524750D01*
X47322784Y-37524750D01*
X47244000Y-37509079D01*
X47165216Y-37524750D01*
X47165211Y-37524750D01*
X46931856Y-37571167D01*
X46702405Y-37724481D01*
X46695777Y-37717853D01*
X46309858Y-37558000D01*
X45892142Y-37558000D01*
X45564734Y-37693617D01*
X45564734Y-37540000D01*
X45514286Y-37286383D01*
X45370624Y-37071376D01*
X45155617Y-36927714D01*
X44902000Y-36877266D01*
X44252000Y-36877266D01*
X43998383Y-36927714D01*
X43783376Y-37071376D01*
X43639714Y-37286383D01*
X43589266Y-37540000D01*
X43589266Y-37615083D01*
X43583423Y-37600977D01*
X43259923Y-37277477D01*
X42837249Y-37102400D01*
X42429000Y-37102400D01*
X42429000Y-35397346D01*
X42503923Y-35322423D01*
X42639266Y-34995676D01*
X42639266Y-36120000D01*
X42689714Y-36373617D01*
X42833376Y-36588624D01*
X43048383Y-36732286D01*
X43302000Y-36782734D01*
X43952000Y-36782734D01*
X44205617Y-36732286D01*
X44420624Y-36588624D01*
X44516328Y-36445391D01*
X44559399Y-36549373D01*
X44772628Y-36762602D01*
X45051225Y-36878000D01*
X45333500Y-36878000D01*
X45523000Y-36688500D01*
X45523000Y-35124000D01*
X45531000Y-35124000D01*
X45531000Y-36688500D01*
X45720500Y-36878000D01*
X46002775Y-36878000D01*
X46281372Y-36762602D01*
X46494601Y-36549373D01*
X46610000Y-36270776D01*
X46610000Y-35313500D01*
X46420500Y-35124000D01*
X45531000Y-35124000D01*
X45523000Y-35124000D01*
X45503000Y-35124000D01*
X45503000Y-35116000D01*
X45523000Y-35116000D01*
X45523000Y-33551500D01*
X45531000Y-33551500D01*
X45531000Y-35116000D01*
X46420500Y-35116000D01*
X46610000Y-34926500D01*
X46610000Y-33969224D01*
X46494601Y-33690627D01*
X46281372Y-33477398D01*
X46002775Y-33362000D01*
X45720500Y-33362000D01*
X45531000Y-33551500D01*
X45523000Y-33551500D01*
X45333500Y-33362000D01*
X45051225Y-33362000D01*
X44772628Y-33477398D01*
X44559399Y-33690627D01*
X44516328Y-33794609D01*
X44420624Y-33651376D01*
X44407369Y-33642519D01*
X44380583Y-33507856D01*
X44203767Y-33243233D01*
X44136972Y-33198602D01*
X43829398Y-32891028D01*
X43784767Y-32824233D01*
X43520144Y-32647417D01*
X43286789Y-32601000D01*
X43286784Y-32601000D01*
X43208000Y-32585329D01*
X43129216Y-32601000D01*
X40845783Y-32601000D01*
X40766999Y-32585329D01*
X40688215Y-32601000D01*
X40688211Y-32601000D01*
X40454856Y-32647417D01*
X40190233Y-32824233D01*
X40145602Y-32891028D01*
X39749028Y-33287602D01*
X39682233Y-33332233D01*
X39505417Y-33596857D01*
X39459000Y-33830212D01*
X39459000Y-33830216D01*
X39443329Y-33909000D01*
X39459000Y-33987784D01*
X39459000Y-34985741D01*
X39391690Y-35030716D01*
X39213373Y-34852399D01*
X38934776Y-34737000D01*
X38402500Y-34737000D01*
X38213000Y-34926500D01*
X38213000Y-36191000D01*
X38233000Y-36191000D01*
X38233000Y-36199000D01*
X38213000Y-36199000D01*
X38213000Y-36219000D01*
X38205000Y-36219000D01*
X38205000Y-36199000D01*
X37065500Y-36199000D01*
X36876000Y-36388500D01*
X36876000Y-37045775D01*
X36991398Y-37324372D01*
X37204627Y-37537601D01*
X37319832Y-37585321D01*
X37238599Y-37639599D01*
X37041219Y-37935000D01*
X35256371Y-37935000D01*
X34693798Y-37372428D01*
X34649167Y-37305633D01*
X34384544Y-37128817D01*
X34151189Y-37082400D01*
X34151184Y-37082400D01*
X34072400Y-37066729D01*
X33993616Y-37082400D01*
X33273491Y-37082400D01*
X33085439Y-36800961D01*
X32803238Y-36612400D01*
X33085439Y-36423839D01*
X33416968Y-35927671D01*
X33533022Y-35344225D01*
X36876000Y-35344225D01*
X36876000Y-36001500D01*
X37065500Y-36191000D01*
X38205000Y-36191000D01*
X38205000Y-34926500D01*
X38015500Y-34737000D01*
X37483224Y-34737000D01*
X37204627Y-34852399D01*
X36991398Y-35065628D01*
X36876000Y-35344225D01*
X33533022Y-35344225D01*
X33533386Y-35342400D01*
X33416968Y-34757129D01*
X33085439Y-34260961D01*
X32589271Y-33929432D01*
X32151733Y-33842400D01*
X31856267Y-33842400D01*
X31418729Y-33929432D01*
X31139010Y-34116334D01*
X31139010Y-33810558D01*
X32051323Y-32898246D01*
X32136903Y-32841063D01*
X32363448Y-32502015D01*
X32422920Y-32203029D01*
X32422920Y-32203025D01*
X32442999Y-32102080D01*
X32422920Y-32001135D01*
X32422920Y-31528575D01*
X32443320Y-31514944D01*
X32632320Y-31232086D01*
X32632320Y-31245320D01*
X32747719Y-31523917D01*
X32960948Y-31737146D01*
X33239545Y-31852544D01*
X33896820Y-31852544D01*
X34086320Y-31663044D01*
X34086320Y-30523544D01*
X34094320Y-30523544D01*
X34094320Y-31663044D01*
X34283820Y-31852544D01*
X34941095Y-31852544D01*
X35219692Y-31737146D01*
X35432921Y-31523917D01*
X35548320Y-31245320D01*
X35548320Y-30713044D01*
X35358820Y-30523544D01*
X34094320Y-30523544D01*
X34086320Y-30523544D01*
X34066320Y-30523544D01*
X34066320Y-30515544D01*
X34086320Y-30515544D01*
X34086320Y-30495544D01*
X34094320Y-30495544D01*
X34094320Y-30515544D01*
X35358820Y-30515544D01*
X35548320Y-30326044D01*
X35548320Y-29793768D01*
X35467974Y-29599795D01*
X38228000Y-29599795D01*
X38228000Y-30256205D01*
X38479198Y-30862650D01*
X38943350Y-31326802D01*
X39549795Y-31578000D01*
X40206205Y-31578000D01*
X40812650Y-31326802D01*
X41276802Y-30862650D01*
X41528000Y-30256205D01*
X41528000Y-29599795D01*
X41778000Y-29599795D01*
X41778000Y-30256205D01*
X42029198Y-30862650D01*
X42493350Y-31326802D01*
X43099795Y-31578000D01*
X43756205Y-31578000D01*
X44362650Y-31326802D01*
X44826802Y-30862650D01*
X45078000Y-30256205D01*
X45078000Y-29599795D01*
X45049163Y-29530175D01*
X50578000Y-29530175D01*
X50578000Y-30325825D01*
X50882482Y-31060909D01*
X51445091Y-31623518D01*
X52180175Y-31928000D01*
X52975825Y-31928000D01*
X53710909Y-31623518D01*
X54273518Y-31060909D01*
X54578000Y-30325825D01*
X54578000Y-29530175D01*
X58198000Y-29530175D01*
X58198000Y-30325825D01*
X58502482Y-31060909D01*
X59065091Y-31623518D01*
X59800175Y-31928000D01*
X60595825Y-31928000D01*
X61330909Y-31623518D01*
X61893518Y-31060909D01*
X62198000Y-30325825D01*
X62198000Y-29530175D01*
X61893518Y-28795091D01*
X61330909Y-28232482D01*
X60595825Y-27928000D01*
X59800175Y-27928000D01*
X59065091Y-28232482D01*
X58502482Y-28795091D01*
X58198000Y-29530175D01*
X54578000Y-29530175D01*
X54273518Y-28795091D01*
X53710909Y-28232482D01*
X52975825Y-27928000D01*
X52180175Y-27928000D01*
X51445091Y-28232482D01*
X50882482Y-28795091D01*
X50578000Y-29530175D01*
X45049163Y-29530175D01*
X44826802Y-28993350D01*
X44362650Y-28529198D01*
X43756205Y-28278000D01*
X43099795Y-28278000D01*
X42493350Y-28529198D01*
X42029198Y-28993350D01*
X41778000Y-29599795D01*
X41528000Y-29599795D01*
X41276802Y-28993350D01*
X40812650Y-28529198D01*
X40206205Y-28278000D01*
X39549795Y-28278000D01*
X38943350Y-28529198D01*
X38479198Y-28993350D01*
X38228000Y-29599795D01*
X35467974Y-29599795D01*
X35432921Y-29515171D01*
X35254604Y-29336854D01*
X35383576Y-29143833D01*
X35453054Y-28794545D01*
X35453054Y-28144543D01*
X35383576Y-27795255D01*
X35185721Y-27499143D01*
X34889609Y-27301288D01*
X34540321Y-27231810D01*
X33640319Y-27231810D01*
X33291031Y-27301288D01*
X32994919Y-27499143D01*
X32839300Y-27732044D01*
X32615644Y-27732044D01*
X32443320Y-27474144D01*
X32147208Y-27276288D01*
X31797920Y-27206810D01*
X30997920Y-27206810D01*
X30648632Y-27276288D01*
X30352520Y-27474144D01*
X30189000Y-27718869D01*
X30189000Y-21627992D01*
X30240032Y-21142447D01*
X30770000Y-21142447D01*
X30770000Y-22037553D01*
X31112542Y-22864523D01*
X31745477Y-23497458D01*
X32572447Y-23840000D01*
X33467553Y-23840000D01*
X34294523Y-23497458D01*
X34927458Y-22864523D01*
X35083503Y-22487795D01*
X38228000Y-22487795D01*
X38228000Y-23144205D01*
X38479198Y-23750650D01*
X38943350Y-24214802D01*
X39549795Y-24466000D01*
X40206205Y-24466000D01*
X40812650Y-24214802D01*
X41276802Y-23750650D01*
X41528000Y-23144205D01*
X41528000Y-22487795D01*
X41778000Y-22487795D01*
X41778000Y-23144205D01*
X42029198Y-23750650D01*
X42493350Y-24214802D01*
X43099795Y-24466000D01*
X43756205Y-24466000D01*
X44362650Y-24214802D01*
X44826802Y-23750650D01*
X45078000Y-23144205D01*
X45078000Y-22487795D01*
X45049163Y-22418175D01*
X50578000Y-22418175D01*
X50578000Y-23213825D01*
X50882482Y-23948909D01*
X51445091Y-24511518D01*
X52180175Y-24816000D01*
X52975825Y-24816000D01*
X53710909Y-24511518D01*
X54273518Y-23948909D01*
X54578000Y-23213825D01*
X54578000Y-22418175D01*
X58198000Y-22418175D01*
X58198000Y-23213825D01*
X58502482Y-23948909D01*
X59065091Y-24511518D01*
X59800175Y-24816000D01*
X60595825Y-24816000D01*
X61330909Y-24511518D01*
X61893518Y-23948909D01*
X62198000Y-23213825D01*
X62198000Y-22418175D01*
X61893518Y-21683091D01*
X61352874Y-21142447D01*
X65314000Y-21142447D01*
X65314000Y-22037553D01*
X65656542Y-22864523D01*
X66289477Y-23497458D01*
X67116447Y-23840000D01*
X68011553Y-23840000D01*
X68838523Y-23497458D01*
X69471458Y-22864523D01*
X69814000Y-22037553D01*
X69814000Y-21142447D01*
X69471458Y-20315477D01*
X68838523Y-19682542D01*
X68011553Y-19340000D01*
X67116447Y-19340000D01*
X66289477Y-19682542D01*
X65656542Y-20315477D01*
X65314000Y-21142447D01*
X61352874Y-21142447D01*
X61330909Y-21120482D01*
X60595825Y-20816000D01*
X59800175Y-20816000D01*
X59065091Y-21120482D01*
X58502482Y-21683091D01*
X58198000Y-22418175D01*
X54578000Y-22418175D01*
X54273518Y-21683091D01*
X53710909Y-21120482D01*
X52975825Y-20816000D01*
X52180175Y-20816000D01*
X51445091Y-21120482D01*
X50882482Y-21683091D01*
X50578000Y-22418175D01*
X45049163Y-22418175D01*
X44826802Y-21881350D01*
X44362650Y-21417198D01*
X43756205Y-21166000D01*
X43099795Y-21166000D01*
X42493350Y-21417198D01*
X42029198Y-21881350D01*
X41778000Y-22487795D01*
X41528000Y-22487795D01*
X41276802Y-21881350D01*
X40812650Y-21417198D01*
X40206205Y-21166000D01*
X39549795Y-21166000D01*
X38943350Y-21417198D01*
X38479198Y-21881350D01*
X38228000Y-22487795D01*
X35083503Y-22487795D01*
X35270000Y-22037553D01*
X35270000Y-21142447D01*
X34927458Y-20315477D01*
X34294523Y-19682542D01*
X33467553Y-19340000D01*
X32572447Y-19340000D01*
X31745477Y-19682542D01*
X31112542Y-20315477D01*
X30770000Y-21142447D01*
X30240032Y-21142447D01*
X30254770Y-21002233D01*
X30437400Y-20440154D01*
X30732904Y-19928328D01*
X31128364Y-19489124D01*
X31606497Y-19141740D01*
X32146405Y-18901357D01*
X32743224Y-18774500D01*
X33038976Y-18759000D01*
X67526008Y-18759000D01*
X68151767Y-18824770D01*
G36*
X47581744Y-39407289D02*
X47779599Y-39703401D01*
X48075711Y-39901256D01*
X48278030Y-39941500D01*
X48075711Y-39981744D01*
X47779599Y-40179599D01*
X47737742Y-40242242D01*
X47675799Y-40229921D01*
X47574856Y-40250000D01*
X47574851Y-40250000D01*
X47275865Y-40309472D01*
X46936817Y-40536017D01*
X46879631Y-40621602D01*
X46692198Y-40809034D01*
X46606618Y-40866217D01*
X46549436Y-40951796D01*
X46549434Y-40951798D01*
X46380072Y-41205266D01*
X46300521Y-41605200D01*
X46320601Y-41706150D01*
X46320600Y-45923855D01*
X46300521Y-46024800D01*
X46320600Y-46125745D01*
X46320600Y-46125748D01*
X46380072Y-46424734D01*
X46606617Y-46763783D01*
X46692200Y-46820968D01*
X46879631Y-47008398D01*
X46936817Y-47093983D01*
X47147864Y-47235000D01*
X45567502Y-47235000D01*
X45705756Y-47028088D01*
X45775234Y-46678800D01*
X45775234Y-45878800D01*
X45705756Y-45529512D01*
X45507900Y-45233400D01*
X45290449Y-45088104D01*
X45556401Y-44910401D01*
X45754256Y-44614289D01*
X45823734Y-44265001D01*
X45823734Y-43364999D01*
X45754256Y-43015711D01*
X45556401Y-42719599D01*
X45312303Y-42556499D01*
X45424781Y-42388163D01*
X45477000Y-42125642D01*
X45477000Y-42125639D01*
X45494631Y-42037001D01*
X45477000Y-41948363D01*
X45477000Y-39849420D01*
X45514286Y-39793617D01*
X45564734Y-39540000D01*
X45564734Y-39522383D01*
X45892142Y-39658000D01*
X46309858Y-39658000D01*
X46695777Y-39498147D01*
X46785924Y-39408000D01*
X46881966Y-39408000D01*
X46960750Y-39423671D01*
X47039534Y-39408000D01*
X47039539Y-39408000D01*
X47272894Y-39361583D01*
X47537486Y-39184788D01*
X47581744Y-39407289D01*
X47581744Y-39407289D01*
G37*
X47581744Y-39407289D02*
X47779599Y-39703401D01*
X48075711Y-39901256D01*
X48278030Y-39941500D01*
X48075711Y-39981744D01*
X47779599Y-40179599D01*
X47737742Y-40242242D01*
X47675799Y-40229921D01*
X47574856Y-40250000D01*
X47574851Y-40250000D01*
X47275865Y-40309472D01*
X46936817Y-40536017D01*
X46879631Y-40621602D01*
X46692198Y-40809034D01*
X46606618Y-40866217D01*
X46549436Y-40951796D01*
X46549434Y-40951798D01*
X46380072Y-41205266D01*
X46300521Y-41605200D01*
X46320601Y-41706150D01*
X46320600Y-45923855D01*
X46300521Y-46024800D01*
X46320600Y-46125745D01*
X46320600Y-46125748D01*
X46380072Y-46424734D01*
X46606617Y-46763783D01*
X46692200Y-46820968D01*
X46879631Y-47008398D01*
X46936817Y-47093983D01*
X47147864Y-47235000D01*
X45567502Y-47235000D01*
X45705756Y-47028088D01*
X45775234Y-46678800D01*
X45775234Y-45878800D01*
X45705756Y-45529512D01*
X45507900Y-45233400D01*
X45290449Y-45088104D01*
X45556401Y-44910401D01*
X45754256Y-44614289D01*
X45823734Y-44265001D01*
X45823734Y-43364999D01*
X45754256Y-43015711D01*
X45556401Y-42719599D01*
X45312303Y-42556499D01*
X45424781Y-42388163D01*
X45477000Y-42125642D01*
X45477000Y-42125639D01*
X45494631Y-42037001D01*
X45477000Y-41948363D01*
X45477000Y-39849420D01*
X45514286Y-39793617D01*
X45564734Y-39540000D01*
X45564734Y-39522383D01*
X45892142Y-39658000D01*
X46309858Y-39658000D01*
X46695777Y-39498147D01*
X46785924Y-39408000D01*
X46881966Y-39408000D01*
X46960750Y-39423671D01*
X47039534Y-39408000D01*
X47039539Y-39408000D01*
X47272894Y-39361583D01*
X47537486Y-39184788D01*
X47581744Y-39407289D01*
G36*
X41825444Y-42251465D02*
X41688219Y-42456838D01*
X41657610Y-42610717D01*
X41646736Y-42665385D01*
X41565599Y-42719599D01*
X41367744Y-43015711D01*
X41298266Y-43364999D01*
X41298266Y-44265001D01*
X41367744Y-44614289D01*
X41565599Y-44910401D01*
X41758051Y-45038993D01*
X41467100Y-45233400D01*
X41453469Y-45253800D01*
X40445800Y-45253800D01*
X40445800Y-43105945D01*
X40465879Y-43005000D01*
X40445800Y-42904055D01*
X40445800Y-42904051D01*
X40386328Y-42605065D01*
X40343115Y-42540393D01*
X40449399Y-42561534D01*
X41099401Y-42561534D01*
X41448689Y-42492056D01*
X41744801Y-42294201D01*
X41799400Y-42212488D01*
X41825444Y-42251465D01*
X41825444Y-42251465D01*
G37*
X41825444Y-42251465D02*
X41688219Y-42456838D01*
X41657610Y-42610717D01*
X41646736Y-42665385D01*
X41565599Y-42719599D01*
X41367744Y-43015711D01*
X41298266Y-43364999D01*
X41298266Y-44265001D01*
X41367744Y-44614289D01*
X41565599Y-44910401D01*
X41758051Y-45038993D01*
X41467100Y-45233400D01*
X41453469Y-45253800D01*
X40445800Y-45253800D01*
X40445800Y-43105945D01*
X40465879Y-43005000D01*
X40445800Y-42904055D01*
X40445800Y-42904051D01*
X40386328Y-42605065D01*
X40343115Y-42540393D01*
X40449399Y-42561534D01*
X41099401Y-42561534D01*
X41448689Y-42492056D01*
X41744801Y-42294201D01*
X41799400Y-42212488D01*
X41825444Y-42251465D01*
G04 #@! TD*
M02*
