%FSLAX45Y45*%
G04 Gerber Fmt 4.5, Leading zero omitted, Abs format (unit mm)*
G04 Created by KiCad (PCBNEW 5.0.0-fee4fd1~66~ubuntu18.04.1) date Wed Oct 10 23:27:11 2018*
%MOMM*%
%LPD*%
G01*
G04 APERTURE LIST*
%ADD10C,0.150000*%
%ADD11C,0.200000*%
%ADD12C,0.300000*%
G04 APERTURE END LIST*
D10*
X6756400Y-1803400D02*
G75*
G02X7112000Y-2159000I0J-355600D01*
G01*
X2946400Y-2159000D02*
G75*
G02X3302000Y-1803400I355600J0D01*
G01*
X3302000Y-5435600D02*
G75*
G02X2946400Y-5080000I0J355600D01*
G01*
X7112000Y-5080000D02*
G75*
G02X6756400Y-5435600I-355600J0D01*
G01*
X7112000Y-2159000D02*
X7112000Y-5080000D01*
X2946400Y-2159000D02*
X2946400Y-5080000D01*
X3302000Y-5435600D02*
X6756400Y-5435600D01*
X3302000Y-1803400D02*
X6756400Y-1803400D01*
D11*
X6596400Y-1999000D02*
X6916400Y-2319000D01*
X6916400Y-1999000D02*
X6596400Y-2319000D01*
X3142000Y-1999000D02*
X3462000Y-2319000D01*
X3462000Y-1999000D02*
X3142000Y-2319000D01*
X6596400Y-4920000D02*
X6916400Y-5240000D01*
X6916400Y-4920000D02*
X6596400Y-5240000D01*
X3142000Y-4920000D02*
X3462000Y-5240000D01*
X3462000Y-4920000D02*
X3142000Y-5240000D01*
D12*
X3225328Y-5908814D02*
X3225328Y-5608814D01*
X3296757Y-5608814D01*
X3339614Y-5623100D01*
X3368186Y-5651671D01*
X3382471Y-5680243D01*
X3396757Y-5737386D01*
X3396757Y-5780243D01*
X3382471Y-5837386D01*
X3368186Y-5865957D01*
X3339614Y-5894529D01*
X3296757Y-5908814D01*
X3225328Y-5908814D01*
X3525328Y-5908814D02*
X3525328Y-5708814D01*
X3525328Y-5765957D02*
X3539614Y-5737386D01*
X3553900Y-5723100D01*
X3582471Y-5708814D01*
X3611043Y-5708814D01*
X3711043Y-5908814D02*
X3711043Y-5708814D01*
X3711043Y-5608814D02*
X3696757Y-5623100D01*
X3711043Y-5637386D01*
X3725328Y-5623100D01*
X3711043Y-5608814D01*
X3711043Y-5637386D01*
X3896757Y-5908814D02*
X3868186Y-5894529D01*
X3853900Y-5865957D01*
X3853900Y-5608814D01*
X4053900Y-5908814D02*
X4025328Y-5894529D01*
X4011043Y-5865957D01*
X4011043Y-5608814D01*
X4396757Y-5908814D02*
X4396757Y-5608814D01*
X4496757Y-5823100D01*
X4596757Y-5608814D01*
X4596757Y-5908814D01*
X4868186Y-5908814D02*
X4868186Y-5751671D01*
X4853900Y-5723100D01*
X4825328Y-5708814D01*
X4768186Y-5708814D01*
X4739614Y-5723100D01*
X4868186Y-5894529D02*
X4839614Y-5908814D01*
X4768186Y-5908814D01*
X4739614Y-5894529D01*
X4725328Y-5865957D01*
X4725328Y-5837386D01*
X4739614Y-5808814D01*
X4768186Y-5794529D01*
X4839614Y-5794529D01*
X4868186Y-5780243D01*
X5011043Y-5708814D02*
X5011043Y-6008814D01*
X5011043Y-5723100D02*
X5039614Y-5708814D01*
X5096757Y-5708814D01*
X5125328Y-5723100D01*
X5139614Y-5737386D01*
X5153900Y-5765957D01*
X5153900Y-5851671D01*
X5139614Y-5880243D01*
X5125328Y-5894529D01*
X5096757Y-5908814D01*
X5039614Y-5908814D01*
X5011043Y-5894529D01*
X5282471Y-5880243D02*
X5296757Y-5894529D01*
X5282471Y-5908814D01*
X5268186Y-5894529D01*
X5282471Y-5880243D01*
X5282471Y-5908814D01*
X5282471Y-5723100D02*
X5296757Y-5737386D01*
X5282471Y-5751671D01*
X5268186Y-5737386D01*
X5282471Y-5723100D01*
X5282471Y-5751671D01*
X2618900Y-6243100D02*
X2938900Y-6563100D01*
X2938900Y-6243100D02*
X2618900Y-6563100D01*
X3196757Y-6238814D02*
X3382471Y-6238814D01*
X3282471Y-6353100D01*
X3325328Y-6353100D01*
X3353900Y-6367386D01*
X3368186Y-6381671D01*
X3382471Y-6410243D01*
X3382471Y-6481671D01*
X3368186Y-6510243D01*
X3353900Y-6524529D01*
X3325328Y-6538814D01*
X3239614Y-6538814D01*
X3211043Y-6524529D01*
X3196757Y-6510243D01*
X3511043Y-6510243D02*
X3525328Y-6524529D01*
X3511043Y-6538814D01*
X3496757Y-6524529D01*
X3511043Y-6510243D01*
X3511043Y-6538814D01*
X3639614Y-6267386D02*
X3653900Y-6253100D01*
X3682471Y-6238814D01*
X3753900Y-6238814D01*
X3782471Y-6253100D01*
X3796757Y-6267386D01*
X3811043Y-6295957D01*
X3811043Y-6324529D01*
X3796757Y-6367386D01*
X3625328Y-6538814D01*
X3811043Y-6538814D01*
X3996757Y-6238814D02*
X4025328Y-6238814D01*
X4053900Y-6253100D01*
X4068186Y-6267386D01*
X4082471Y-6295957D01*
X4096757Y-6353100D01*
X4096757Y-6424529D01*
X4082471Y-6481671D01*
X4068186Y-6510243D01*
X4053900Y-6524529D01*
X4025328Y-6538814D01*
X3996757Y-6538814D01*
X3968186Y-6524529D01*
X3953900Y-6510243D01*
X3939614Y-6481671D01*
X3925328Y-6424529D01*
X3925328Y-6353100D01*
X3939614Y-6295957D01*
X3953900Y-6267386D01*
X3968186Y-6253100D01*
X3996757Y-6238814D01*
X4225328Y-6538814D02*
X4225328Y-6338814D01*
X4225328Y-6367386D02*
X4239614Y-6353100D01*
X4268186Y-6338814D01*
X4311043Y-6338814D01*
X4339614Y-6353100D01*
X4353900Y-6381671D01*
X4353900Y-6538814D01*
X4353900Y-6381671D02*
X4368186Y-6353100D01*
X4396757Y-6338814D01*
X4439614Y-6338814D01*
X4468186Y-6353100D01*
X4482471Y-6381671D01*
X4482471Y-6538814D01*
X4625328Y-6538814D02*
X4625328Y-6338814D01*
X4625328Y-6367386D02*
X4639614Y-6353100D01*
X4668186Y-6338814D01*
X4711043Y-6338814D01*
X4739614Y-6353100D01*
X4753900Y-6381671D01*
X4753900Y-6538814D01*
X4753900Y-6381671D02*
X4768186Y-6353100D01*
X4796757Y-6338814D01*
X4839614Y-6338814D01*
X4868186Y-6353100D01*
X4882471Y-6381671D01*
X4882471Y-6538814D01*
X5468186Y-6224529D02*
X5211043Y-6610243D01*
X5853900Y-6238814D02*
X5882471Y-6238814D01*
X5911043Y-6253100D01*
X5925328Y-6267386D01*
X5939614Y-6295957D01*
X5953900Y-6353100D01*
X5953900Y-6424529D01*
X5939614Y-6481671D01*
X5925328Y-6510243D01*
X5911043Y-6524529D01*
X5882471Y-6538814D01*
X5853900Y-6538814D01*
X5825328Y-6524529D01*
X5811043Y-6510243D01*
X5796757Y-6481671D01*
X5782471Y-6424529D01*
X5782471Y-6353100D01*
X5796757Y-6295957D01*
X5811043Y-6267386D01*
X5825328Y-6253100D01*
X5853900Y-6238814D01*
X6082471Y-6510243D02*
X6096757Y-6524529D01*
X6082471Y-6538814D01*
X6068186Y-6524529D01*
X6082471Y-6510243D01*
X6082471Y-6538814D01*
X6382471Y-6538814D02*
X6211043Y-6538814D01*
X6296757Y-6538814D02*
X6296757Y-6238814D01*
X6268186Y-6281671D01*
X6239614Y-6310243D01*
X6211043Y-6324529D01*
X6496757Y-6267386D02*
X6511043Y-6253100D01*
X6539614Y-6238814D01*
X6611043Y-6238814D01*
X6639614Y-6253100D01*
X6653900Y-6267386D01*
X6668186Y-6295957D01*
X6668186Y-6324529D01*
X6653900Y-6367386D01*
X6482471Y-6538814D01*
X6668186Y-6538814D01*
X6925328Y-6238814D02*
X6868186Y-6238814D01*
X6839614Y-6253100D01*
X6825328Y-6267386D01*
X6796757Y-6310243D01*
X6782471Y-6367386D01*
X6782471Y-6481671D01*
X6796757Y-6510243D01*
X6811043Y-6524529D01*
X6839614Y-6538814D01*
X6896757Y-6538814D01*
X6925328Y-6524529D01*
X6939614Y-6510243D01*
X6953900Y-6481671D01*
X6953900Y-6410243D01*
X6939614Y-6381671D01*
X6925328Y-6367386D01*
X6896757Y-6353100D01*
X6839614Y-6353100D01*
X6811043Y-6367386D01*
X6796757Y-6381671D01*
X6782471Y-6410243D01*
X7068186Y-6238814D02*
X7068186Y-6295957D01*
X7182471Y-6238814D02*
X7182471Y-6295957D01*
X7625328Y-6653100D02*
X7611043Y-6638814D01*
X7582471Y-6595957D01*
X7568186Y-6567386D01*
X7553900Y-6524529D01*
X7539614Y-6453100D01*
X7539614Y-6395957D01*
X7553900Y-6324529D01*
X7568186Y-6281671D01*
X7582471Y-6253100D01*
X7611043Y-6210243D01*
X7625328Y-6195957D01*
X7868186Y-6338814D02*
X7868186Y-6538814D01*
X7796757Y-6224529D02*
X7725328Y-6438814D01*
X7911043Y-6438814D01*
X8253900Y-6538814D02*
X8253900Y-6238814D01*
X8382471Y-6538814D02*
X8382471Y-6381671D01*
X8368186Y-6353100D01*
X8339614Y-6338814D01*
X8296757Y-6338814D01*
X8268186Y-6353100D01*
X8253900Y-6367386D01*
X8568186Y-6538814D02*
X8539614Y-6524529D01*
X8525328Y-6510243D01*
X8511043Y-6481671D01*
X8511043Y-6395957D01*
X8525328Y-6367386D01*
X8539614Y-6353100D01*
X8568186Y-6338814D01*
X8611043Y-6338814D01*
X8639614Y-6353100D01*
X8653900Y-6367386D01*
X8668186Y-6395957D01*
X8668186Y-6481671D01*
X8653900Y-6510243D01*
X8639614Y-6524529D01*
X8611043Y-6538814D01*
X8568186Y-6538814D01*
X8839614Y-6538814D02*
X8811043Y-6524529D01*
X8796757Y-6495957D01*
X8796757Y-6238814D01*
X9068186Y-6524529D02*
X9039614Y-6538814D01*
X8982471Y-6538814D01*
X8953900Y-6524529D01*
X8939614Y-6495957D01*
X8939614Y-6381671D01*
X8953900Y-6353100D01*
X8982471Y-6338814D01*
X9039614Y-6338814D01*
X9068186Y-6353100D01*
X9082471Y-6381671D01*
X9082471Y-6410243D01*
X8939614Y-6438814D01*
X9196757Y-6524529D02*
X9225328Y-6538814D01*
X9282471Y-6538814D01*
X9311043Y-6524529D01*
X9325328Y-6495957D01*
X9325328Y-6481671D01*
X9311043Y-6453100D01*
X9282471Y-6438814D01*
X9239614Y-6438814D01*
X9211043Y-6424529D01*
X9196757Y-6395957D01*
X9196757Y-6381671D01*
X9211043Y-6353100D01*
X9239614Y-6338814D01*
X9282471Y-6338814D01*
X9311043Y-6353100D01*
X9425328Y-6653100D02*
X9439614Y-6638814D01*
X9468186Y-6595957D01*
X9482471Y-6567386D01*
X9496757Y-6524529D01*
X9511043Y-6453100D01*
X9511043Y-6395957D01*
X9496757Y-6324529D01*
X9482471Y-6281671D01*
X9468186Y-6253100D01*
X9439614Y-6210243D01*
X9425328Y-6195957D01*
X9968186Y-6653100D02*
X9953900Y-6638814D01*
X9925328Y-6595957D01*
X9911043Y-6567386D01*
X9896757Y-6524529D01*
X9882471Y-6453100D01*
X9882471Y-6395957D01*
X9896757Y-6324529D01*
X9911043Y-6281671D01*
X9925328Y-6253100D01*
X9953900Y-6210243D01*
X9968186Y-6195957D01*
X10082471Y-6338814D02*
X10082471Y-6538814D01*
X10082471Y-6367386D02*
X10096757Y-6353100D01*
X10125328Y-6338814D01*
X10168186Y-6338814D01*
X10196757Y-6353100D01*
X10211043Y-6381671D01*
X10211043Y-6538814D01*
X10396757Y-6538814D02*
X10368186Y-6524529D01*
X10353900Y-6510243D01*
X10339614Y-6481671D01*
X10339614Y-6395957D01*
X10353900Y-6367386D01*
X10368186Y-6353100D01*
X10396757Y-6338814D01*
X10439614Y-6338814D01*
X10468186Y-6353100D01*
X10482471Y-6367386D01*
X10496757Y-6395957D01*
X10496757Y-6481671D01*
X10482471Y-6510243D01*
X10468186Y-6524529D01*
X10439614Y-6538814D01*
X10396757Y-6538814D01*
X10582471Y-6338814D02*
X10696757Y-6338814D01*
X10625328Y-6238814D02*
X10625328Y-6495957D01*
X10639614Y-6524529D01*
X10668186Y-6538814D01*
X10696757Y-6538814D01*
X11025328Y-6338814D02*
X11025328Y-6638814D01*
X11025328Y-6353100D02*
X11053900Y-6338814D01*
X11111043Y-6338814D01*
X11139614Y-6353100D01*
X11153900Y-6367386D01*
X11168186Y-6395957D01*
X11168186Y-6481671D01*
X11153900Y-6510243D01*
X11139614Y-6524529D01*
X11111043Y-6538814D01*
X11053900Y-6538814D01*
X11025328Y-6524529D01*
X11339614Y-6538814D02*
X11311043Y-6524529D01*
X11296757Y-6495957D01*
X11296757Y-6238814D01*
X11582471Y-6538814D02*
X11582471Y-6381671D01*
X11568186Y-6353100D01*
X11539614Y-6338814D01*
X11482471Y-6338814D01*
X11453900Y-6353100D01*
X11582471Y-6524529D02*
X11553900Y-6538814D01*
X11482471Y-6538814D01*
X11453900Y-6524529D01*
X11439614Y-6495957D01*
X11439614Y-6467386D01*
X11453900Y-6438814D01*
X11482471Y-6424529D01*
X11553900Y-6424529D01*
X11582471Y-6410243D01*
X11682471Y-6338814D02*
X11796757Y-6338814D01*
X11725328Y-6238814D02*
X11725328Y-6495957D01*
X11739614Y-6524529D01*
X11768186Y-6538814D01*
X11796757Y-6538814D01*
X12011043Y-6524529D02*
X11982471Y-6538814D01*
X11925328Y-6538814D01*
X11896757Y-6524529D01*
X11882471Y-6495957D01*
X11882471Y-6381671D01*
X11896757Y-6353100D01*
X11925328Y-6338814D01*
X11982471Y-6338814D01*
X12011043Y-6353100D01*
X12025328Y-6381671D01*
X12025328Y-6410243D01*
X11882471Y-6438814D01*
X12282471Y-6538814D02*
X12282471Y-6238814D01*
X12282471Y-6524529D02*
X12253900Y-6538814D01*
X12196757Y-6538814D01*
X12168186Y-6524529D01*
X12153900Y-6510243D01*
X12139614Y-6481671D01*
X12139614Y-6395957D01*
X12153900Y-6367386D01*
X12168186Y-6353100D01*
X12196757Y-6338814D01*
X12253900Y-6338814D01*
X12282471Y-6353100D01*
X12396757Y-6653100D02*
X12411043Y-6638814D01*
X12439614Y-6595957D01*
X12453900Y-6567386D01*
X12468186Y-6524529D01*
X12482471Y-6453100D01*
X12482471Y-6395957D01*
X12468186Y-6324529D01*
X12453900Y-6281671D01*
X12439614Y-6253100D01*
X12411043Y-6210243D01*
X12396757Y-6195957D01*
M02*
